<?xml version="1.0" encoding="UTF-8" standalone="no"?>
<!-- Created with Inkscape (http://www.inkscape.org/) -->

<svg
   version="1.1"
   id="svg2"
   width="700"
   height="700"
   viewBox="0 0 700 700"
   sodipodi:docname="coment-ig.svg"
   xml:space="preserve"
   inkscape:version="1.2.2 (732a01da63, 2022-12-09)"
   xmlns:inkscape="http://www.inkscape.org/namespaces/inkscape"
   xmlns:sodipodi="http://sodipodi.sourceforge.net/DTD/sodipodi-0.dtd"
   xmlns="http://www.w3.org/2000/svg"
   xmlns:svg="http://www.w3.org/2000/svg"><defs
     id="defs6" /><sodipodi:namedview
     id="namedview4"
     pagecolor="#ffffff"
     bordercolor="#666666"
     borderopacity="1.0"
     inkscape:showpageshadow="2"
     inkscape:pageopacity="0.0"
     inkscape:pagecheckerboard="0"
     inkscape:deskcolor="#d1d1d1"
     showgrid="false"
     inkscape:zoom="0.51269531"
     inkscape:cx="223.32952"
     inkscape:cy="407.64952"
     inkscape:window-width="1366"
     inkscape:window-height="705"
     inkscape:window-x="-8"
     inkscape:window-y="-8"
     inkscape:window-maximized="1"
     inkscape:current-layer="layer3" /><g
     inkscape:groupmode="layer"
     id="layer3"
     inkscape:label="Coment"
     style="display:inline"><path
       style="display:inline;fill:#000000"
       d="m 105.38384,604.92265 c -4.17697,-1.20763 -9.178496,-6.47987 -10.379966,-10.9418 -1.3028,-4.83825 -1.09555,-5.53824 18.772336,-63.40401 l 16.80174,-48.93554 -8.58828,-17.06446 c -8.80353,-17.49218 -16.93984,-39.56888 -20.84667,-56.56447 -19.886416,-86.5103 5.65392,-175.59968 68.36936,-238.48488 70.04235,-70.231933 173.92517,-93.459594 267.60359,-59.83477 14.87805,5.3403 39.43378,17.82099 53.39641,27.13923 16.12828,10.76353 26.83713,19.51124 40.00316,32.67727 99.94658,99.94657 99.94658,261.05973 0,361.00631 -37.515,37.515 -86.42117,62.88279 -137.67004,71.40991 -54.26603,9.02913 -108.27639,0.83154 -157.39511,-23.88914 l -17.06199,-8.58703 -51.55711,17.6457 c -28.35641,9.70514 -53.07852,17.89016 -54.93801,18.18895 -1.8595,0.29878 -4.78873,0.13621 -6.50942,-0.36127 z m 269.65475,-31.93338 c 89.434,-10.79798 163.71024,-72.54997 189.46525,-157.51814 7.51908,-24.80614 9.95738,-43.76193 9.24304,-71.85721 -0.57263,-22.52188 -2.52746,-35.7803 -8.1564,-55.32007 -24.78175,-86.02487 -98.48609,-149.43098 -186.87934,-160.76791 -13.54857,-1.73768 -41.29692,-1.991 -53.72501,-0.49047 -103.35952,12.47931 -184.1332,91.95982 -197.43909,194.27812 -1.91918,14.75788 -1.96136,42.73097 -0.0855,56.69878 4.16308,30.99868 12.86935,56.3213 29.59505,86.0787 4.69271,8.34899 5.95577,11.50261 5.95577,14.8704 0,2.87358 -4.47146,17.35274 -13.64499,44.18425 -7.50475,21.9505 -13.36155,40.19344 -13.01513,40.53987 0.34643,0.34642 18.59124,-5.51333 40.54403,-13.02168 26.78071,-9.1596 41.31705,-13.65154 44.1777,-13.65154 3.35471,0 6.52224,1.26955 14.85969,5.95577 29.3148,16.47693 54.79748,25.31875 85.0787,29.52008 11.60192,1.60969 42.47266,1.896 54.02623,0.50105 z"
       id="path885" /></g></svg>
