<?xml version="1.0" encoding="UTF-8" standalone="no"?>
<!-- Created with Inkscape (http://www.inkscape.org/) -->

<svg
   version="1.1"
   id="svg2"
   width="700"
   height="700"
   viewBox="0 0 700 700"
   xml:space="preserve"
   xmlns="http://www.w3.org/2000/svg"
   xmlns:svg="http://www.w3.org/2000/svg"><defs
     id="defs6" /><g
     id="g8"
     style="display:inline"><path
       style="display:inline;fill:#000000"
       d="m 196.4617,584.07753 c -11.39185,-1.94474 -21.38509,-9.07352 -26.85063,-19.15419 l -3.42984,-6.32601 -0.25875,-222.964 c -0.23344,-201.15339 -0.10346,-223.50553 1.32867,-228.5 4.11616,-14.354806 14.79618,-25.487078 30.0108,-31.281624 l 5.91928,-2.254378 h 153 c 146.60753,0 153.22979,0.07783 158.5,1.862762 15.44315,5.230347 25.98754,15.587455 30.93091,30.38153 l 2.0865,6.2443 -0.25871,223.2557 -0.2587,223.25571 -3.42984,6.32601 c -9.64558,17.79035 -31.32436,24.52866 -50.01901,15.54717 -4.63914,-2.22879 -15.24435,-12.31825 -64.55115,-61.41192 -32.45,-32.30973 -60.575,-59.56597 -62.5,-60.56942 -4.74009,-2.47087 -15.25006,-2.47393 -20,-0.006 -1.925,1.00025 -29.825,28.04025 -62,60.0889 -36.02189,35.88044 -60.22909,59.2372 -63,60.78671 -8.01333,4.48112 -16.88603,6.1412 -25.21953,4.71857 z m 69.17638,-88.27782 c 44.61843,-44.43444 60.8404,-59.98046 64.71863,-62.02185 6.70387,-3.52874 19.12345,-6.68053 26.32452,-6.68053 7.19639,0 19.61614,3.15035 26.32452,6.67738 3.8838,2.04196 20.03199,17.52121 64.7022,62.02185 57.34219,57.12452 59.66336,59.30077 63.25,59.30077 2.38995,0 4.43949,-0.71621 5.72328,-2 1.98774,-1.98774 2,-3.33333 2,-219.53984 0,-214.73617 -0.0255,-217.58979 -1.97736,-221.41578 -1.08755,-2.13178 -3.45005,-4.92635 -5.25,-6.21017 l -3.27264,-2.33421 h -151.5 -151.5 l -3.27264,2.33421 c -1.79995,1.28382 -4.16245,4.07839 -5.25,6.21017 -1.95188,3.82599 -1.97736,6.67961 -1.97736,221.41578 0,216.20651 0.0123,217.5521 2,219.53984 1.28061,1.28061 3.33333,2 5.70685,2 3.5647,0 5.99024,-2.27398 63.25,-59.29762 z"
       id="path929" /></g></svg>
