<?xml version="1.0" encoding="UTF-8" standalone="no"?>
<!-- Created with Inkscape (http://www.inkscape.org/) -->

<svg
   version="1.1"
   id="svg3176"
   width="468.84665"
   height="526.01428"
   viewBox="0 0 468.84665 526.01428"
   xml:space="preserve"
   xmlns="http://www.w3.org/2000/svg"
   xmlns:svg="http://www.w3.org/2000/svg"><defs
     id="defs3180" /><g
     id="g3182"
     transform="translate(-118.83538,-46.149228)"><g
       id="g3776"
       transform="translate(123.09315,101.2954)"><path
         style="fill:#bcc2c6"
         d="m 137.06341,469.68239 c -2.69652,-1.30366 -4.72849,-5.95258 -3.83384,-8.77138 0.3679,-1.15915 1.61861,-2.99232 2.77935,-4.07372 1.82667,-1.7018 3.55427,-1.96617 12.84855,-1.96617 9.38589,0 10.7957,-0.22037 11.19543,-1.75 0.43555,-1.66667 0.46285,-1.66667 0.57333,0 0.10928,1.64862 4.10908,1.75 69.04268,1.75 64.80356,0 68.95403,-0.10468 69.38399,-1.75 0.43555,-1.66667 0.46285,-1.66667 0.57333,0 0.10266,1.54882 1.35182,1.75366 10.866,1.7818 11.23555,0.0332 12.90623,0.55901 15.14805,4.76717 1.69441,3.1806 -0.15858,8.54308 -3.47403,10.0537 -3.40709,1.55237 -181.88881,1.51245 -185.10284,-0.0414 z m 31.81939,-45.81127 c 0,-0.825 0.38674,-2.4 0.85943,-3.5 0.54172,-1.26064 0.85943,-1.44548 0.85943,-0.5 0,0.825 -0.38674,2.4 -0.85943,3.5 -0.54172,1.26064 -0.85943,1.44548 -0.85943,0.5 z m 120.43086,-1.57143 c -0.36782,-1.46551 -0.47591,-2.85742 -0.24019,-3.09314 0.23571,-0.23571 0.72951,0.77049 1.09733,2.236 0.36782,1.46551 0.47591,2.85742 0.24019,3.09314 -0.23571,0.23571 -0.72951,-0.77049 -1.09733,-2.236 z M 170.8828,416.87112 c 0,-0.825 0.38674,-2.4 0.85943,-3.5 0.54172,-1.26064 0.85943,-1.44548 0.85943,-0.5 0,0.825 -0.38674,2.4 -0.85943,3.5 -0.54172,1.26064 -0.85943,1.44548 -0.85943,0.5 z m 116.43086,-1.57143 c -0.36782,-1.46551 -0.47591,-2.85742 -0.24019,-3.09314 0.23571,-0.23571 0.72951,0.77049 1.09733,2.236 0.36782,1.46551 0.47591,2.85742 0.24019,3.09314 -0.23571,0.23571 -0.72951,-0.77049 -1.09733,-2.236 z M 175.85823,399.63768 c -0.10893,-1.62782 -5.29014,-1.74967 -85.043025,-2 -83.9387748,-0.26346 -84.9598768,-0.29051 -87.7499998,-2.3251 -1.5526355,-1.1322 -3.84296777,-4.05526 -5.0896278,-6.49569 -2.2010543,-4.30872 -2.2589371,-5.1608 -2,-29.44145 l 0.2666545,-25.00432 h 233.4999981 233.5 v 26.07501 26.07501 l -2.66076,4.0187 c -5.147,7.77381 0.47673,7.33128 -93.16704,7.33128 -78.70726,0 -83.55193,0.10095 -83.98287,1.75 -0.43555,1.66667 -0.46285,1.66667 -0.57333,0 -0.10892,-1.64316 -3.34718,-1.75 -53.04268,-1.75 -49.56547,0 -52.95571,0.11114 -53.38399,1.75 -0.42915,1.64219 -0.46447,1.64321 -0.57333,0.0166 z m 218.884,-115.76656 c -0.90129,-0.58246 -1.02463,-0.97549 -0.30902,-0.98469 0.65504,-0.008 1.4691,0.43469 1.80902,0.98469 0.7673,1.24153 0.42112,1.24153 -1.5,0 z m 42.45669,-11.07008 c -0.36374,-0.58854 -1.6278,-1.46002 -2.80902,-1.93661 -1.46543,-0.59127 -1.64099,-0.88667 -0.55266,-0.92992 0.87726,-0.0349 2.4095,0.83661 3.40499,1.93661 0.99549,1.1 1.54179,2 1.214,2 -0.32778,0 -0.89357,-0.48153 -1.25731,-1.07008 z m -30.15759,-3.6752 c 4.83951,-0.18371 12.48951,-0.18277 17,0.002 4.5105,0.18485 0.5509,0.33516 -8.7991,0.33401 -9.35,-0.001 -13.0404,-0.1524 -8.2009,-0.3361 z m -6.99268,-17.00198 c 6.49353,-0.17445 16.84353,-0.17388 23,0.001 6.15647,0.17516 0.84358,0.31789 -11.80642,0.31719 -12.65,-7e-4 -17.68711,-0.14401 -11.19358,-0.31847 z m -14.8181,-2.26565 c -2.58943,-2.86128 -2.33103,-7.62845 0.5579,-10.29265 l 2.37954,-2.19444 -1.87954,2.26291 c -2.38577,2.87237 -2.41267,7.6222 -0.0579,10.22418 1.00191,1.1071 1.59666,2.01291 1.32166,2.01291 -0.275,0 -1.31975,-0.90581 -2.32166,-2.01291 z m 51.01168,0.0129 c 0.99549,-1.1 2.03498,-2 2.30998,-2 0.275,0 -0.31449,0.9 -1.30998,2 -0.99549,1.1 -2.03498,2 -2.30998,2 -0.275,0 0.31449,-0.9 1.30998,-2 z m -0.095,-10.25 -1.90499,-2.25 2.25,1.90499 c 2.11444,1.79022 2.70524,2.59501 1.90499,2.59501 -0.18976,0 -1.20226,-1.0125 -2.25,-2.25 z m -36.21041,-2.49565 c 5.88201,-0.17649 15.78201,-0.17711 22,-0.001 6.21798,0.17574 1.40542,0.32014 -10.69458,0.32089 -12.1,7.6e-4 -17.18744,-0.14302 -11.30542,-0.31951 z m 18.58894,-16.99275 c 2.90594,-0.20265 7.40594,-0.20052 10,0.005 2.59406,0.20525 0.21648,0.37104 -5.28352,0.36844 -5.5,-0.003 -7.62242,-0.17053 -4.71648,-0.37317 z m -8.91108,-2.0116 c -1.24387,-1.58606 -1.2085,-1.62143 0.37756,-0.37756 1.66575,1.30637 2.19548,2.12756 1.37244,2.12756 -0.20765,0 -0.99515,-0.7875 -1.75,-1.75 z m 26.62755,-0.25 c 0.99549,-1.1 2.03498,-2 2.30998,-2 0.275,0 -0.31449,0.9 -1.30998,2 -0.99549,1.1 -2.03498,2 -2.30998,2 -0.275,0 0.31449,-0.9 1.30998,-2 z m -28.42105,-7.09501 c -0.0434,-0.87726 0.93355,-2.45226 2.17105,-3.5 2.23084,-1.88877 2.23621,-1.88796 0.63049,0.095 -0.89073,1.1 -1.86771,2.675 -2.17105,3.5 -0.46813,1.27314 -0.56349,1.25877 -0.63049,-0.095 z m 15.92105,-4.90499 -11.5,-0.60107 11.19098,-0.19946 c 6.60654,-0.11776 11.44417,0.21019 11.80902,0.80053 0.33992,0.55 0.47898,0.91024 0.30902,0.80053 -0.16996,-0.1097 -5.48402,-0.46994 -11.80902,-0.80053 z M 462.82118,40.202903 c -0.0434,-0.642516 -0.33793,-1.992516 -0.65446,-3 -0.54705,-1.741219 -0.51883,-1.7434 0.57078,-0.04411 0.63045,0.983222 0.92496,2.333222 0.65445,3 -0.35498,0.874997 -0.51379,0.887271 -0.57077,0.04411 z M 0.24223193,31.871116 c 0.99548627,-1.1 2.03497497,-2 2.30997527,-2 0.275,0 -0.3144893,0.9 -1.3099753,2 -0.99548627,1.1 -2.03497507,2 -2.3099751,2 -0.275,0 0.31448883,-0.9 1.30997513,-2 z m 457.90498807,-0.25 -1.90499,-2.25 2.25,1.904988 c 1.2375,1.047743 2.25,2.060243 2.25,2.25 0,0.800253 -0.80479,0.209457 -2.59501,-1.904988 z m -371.247093,-6.75 c 0,-1.375 0.226973,-1.9375 0.504386,-1.25 0.277412,0.6875 0.277412,1.8125 0,2.5 -0.277413,0.6875 -0.504386,0.125 -0.504386,-1.25 z M 380.82118,20.287783 c 0.048,-1.164943 0.28494,-1.4019 0.60416,-0.604167 0.28887,0.721875 0.25335,1.584375 -0.0789,1.916667 -0.33229,0.332291 -0.56864,-0.258334 -0.52522,-1.3125 z m 1.17323,-7.916667 c 0.0111,-2.2 0.21589,-2.9822528 0.45508,-1.738341 0.23919,1.243913 0.23011,3.043913 -0.0202,4 -0.25027,0.956088 -0.44598,-0.06166 -0.43488,-2.261659 z M 85.821179,12.287783 c 0.04798,-1.164943 0.284941,-1.4019 0.604167,-0.604167 0.288871,0.721875 0.253344,1.584375 -0.07895,1.916667 -0.332292,0.332291 -0.568641,-0.258334 -0.52522,-1.3125 z M 84.858233,3.6801332 c -0.0638,-2.5800406 0.239954,-4.9109749 0.675009,-5.1798541 0.435056,-0.2688791 0.634116,1.16706333 0.442357,3.1909831 -0.585894,6.183799 -0.995598,6.913057 -1.117366,1.988871 z M 382.71756,2.6676082 c -0.26529,-2.58692957 -0.11257,-4.33373 0.33938,-3.8817787 0.45195,0.45195133 0.66901,2.56853 0.48235,4.7035087 l -0.33938,3.881778 z"
         id="path3680" /><path
         style="fill:#95a3a3"
         d="m 160.74223,453.39535 c 0,-0.81168 2.07688,-8.12418 4.61528,-16.25 2.53841,-8.12583 6.20249,-20.28673 8.1424,-27.02423 l 3.52711,-12.25 h 52.71521 52.71521 l 3.52711,12.25 c 1.93991,6.7375 5.60399,18.8984 8.1424,27.02423 2.5384,8.12582 4.61528,15.43832 4.61528,16.25 0,1.28677 -8.83676,1.47577 -69,1.47577 -60.16324,0 -69,-0.189 -69,-1.47577 z M -4.0111267,187.37112 -3.7644854,40.371116 l 0.2566915,146.250004 0.2566916,146.25 H 229.74223 462.73556 l 0.2567,-146.25 0.25669,-146.250004 0.24664,147.000004 0.24664,147 h -234 H -4.2577681 Z M 407.04133,285.12584 c 4.83951,-0.18371 12.48951,-0.18277 17,0.002 4.5105,0.18485 0.5509,0.33516 -8.7991,0.33401 -9.35,-0.001 -13.0404,-0.1524 -8.2009,-0.3361 z m -16.10415,-7.75472 c 0.0204,-1.65 0.2445,-2.20394 0.49804,-1.23097 0.25354,0.97297 0.23687,2.32297 -0.0371,3 -0.27393,0.67703 -0.48137,-0.11903 -0.46099,-1.76903 z m 48,0 c 0.0204,-1.65 0.2445,-2.20394 0.49804,-1.23097 0.25354,0.97297 0.23687,2.32297 -0.0371,3 -0.27393,0.67703 -0.48137,-0.11903 -0.46099,-1.76903 z m -39.00037,-24.24565 c 5.88201,-0.17649 15.78201,-0.17711 22,-0.001 6.21798,0.17574 1.40542,0.32014 -10.69458,0.32089 -12.1,7.6e-4 -17.18744,-0.14302 -11.30542,-0.31951 z m 33.88875,-0.51501 c 0.22917,-0.14336 1.54167,-1.15586 2.91667,-2.25 l 2.5,-1.98934 -1.90499,2.25 c -1.04774,1.2375 -2.36024,2.25 -2.91666,2.25 -0.55643,0 -0.82418,-0.1173 -0.59502,-0.26066 z m -49.21089,-2.48934 c -1.24387,-1.58606 -1.2085,-1.62143 0.37756,-0.37756 1.66575,1.30637 2.19548,2.12756 1.37244,2.12756 -0.20765,0 -0.99515,-0.7875 -1.75,-1.75 z m 54.28545,-5.25 c 0,-1.375 0.22698,-1.9375 0.50439,-1.25 0.27741,0.6875 0.27741,1.8125 0,2.5 -0.27741,0.6875 -0.50439,0.125 -0.50439,-1.25 z m -55.15789,-4.37756 c 0,-0.20765 0.7875,-0.99515 1.75,-1.75 1.58606,-1.24387 1.62143,-1.2085 0.37756,0.37756 -1.30637,1.66575 -2.12756,2.19548 -2.12756,1.37244 z m 52.87244,-1.37244 c -1.24387,-1.58606 -1.2085,-1.62143 0.37756,-0.37756 0.9625,0.75485 1.75,1.54235 1.75,1.75 0,0.82304 -0.82119,0.29331 -2.12756,-1.37244 z m -29.71455,-26.25 c 0,-1.375 0.22698,-1.9375 0.50439,-1.25 0.27741,0.6875 0.27741,1.8125 0,2.5 -0.27741,0.6875 -0.50439,0.125 -0.50439,-1.25 z m 32,0 c 0,-1.375 0.22698,-1.9375 0.50439,-1.25 0.27741,0.6875 0.27741,1.8125 0,2.5 -0.27741,0.6875 -0.50439,0.125 -0.50439,-1.25 z m -31.15789,-4.37756 c 0,-0.20765 0.7875,-0.99515 1.75,-1.75 1.58606,-1.24387 1.62143,-1.2085 0.37756,0.37756 -1.30637,1.66575 -2.12756,2.19548 -2.12756,1.37244 z m 11.28017,-4.35871 c 2.6291,-0.20668 6.6791,-0.20418 9,0.006 2.32091,0.20972 0.16983,0.37882 -4.78017,0.37577 -4.95,-0.003 -6.84892,-0.17464 -4.21983,-0.38131 z M -2.2577681,36.160227 c 0,-0.574322 0.7875,-1.661822 1.75000003,-2.416666 1.61875537,-1.269516 1.63997707,-1.222451 0.2829677,0.627555 -0.80686783,1.1 -1.59436783,2.1875 -1.75000003,2.416667 -0.1556323,0.229166 -0.2829677,-0.05323 -0.2829677,-0.627556 z M 459.84262,34.575638 c -1.26492,-2.106309 -1.24361,-2.127619 0.47833,-0.478332 0.99123,0.949405 1.58698,1.94144 1.3239,2.204522 -0.26308,0.263082 -1.07408,-0.513704 -1.80223,-1.72619 z M 28.992232,27.122366 c 10.8625,-0.161441 28.6375,-0.161441 39.5,0 10.8625,0.161441 1.975,0.29353 -19.75,0.29353 -21.725,0 -30.6125,-0.132089 -19.75,-0.29353 z M 397.42773,27.123 c 9.45202,-0.164207 25.20202,-0.164487 35,-6.22e-4 9.79797,0.163864 2.0645,0.298215 -17.1855,0.298558 -19.25,3.42e-4 -27.26653,-0.133729 -17.8145,-0.297936 z"
         id="path3678" /><path
         style="fill:#68adbe"
         d="m 23.210518,282.60274 c -3.124563,-2.53012 -1.724199,-9.92015 1.359488,-13.00384 2.150946,-2.15094 2.89842,-2.22778 21.672226,-2.22778 18.128156,0 19.576373,0.13539 21.393311,2 3.098836,3.18014 4.910861,9.7411 1.869742,12.78222 -1.862467,1.86247 -5.096386,2.64111 -23.152269,2.64111 -17.454229,0 -21.062324,-0.50729 -23.142498,-2.19171 z m 0.665096,-31.6994 c -4.441117,-3.37245 -2.328967,-12.71081 2.463446,-14.89438 1.625094,-0.74045 10.191297,-1.13784 24.527148,-1.13784 h 22.02987 l 2.923077,2.92308 c 1.607692,1.60769 2.923077,3.65504 2.923077,4.54966 0,2.47165 -1.119074,8.32849 -2.942027,9.02802 -0.890325,0.34165 -13.448735,1.58285 -25.948631,1.58285 -16.637078,0 -24.770951,-1.13634 -25.97596,-2.05139 z m -0.538435,-32.03035 c -1.257093,-0.88051 -2.529404,-4.26645 -3.023252,-5.56537 -1.124054,-2.95648 2.949427,-8.10984 5.467747,-9.45761 1.005991,-0.53839 6.723806,-0.97889 12.706255,-0.97889 9.564202,0 11.14136,0.24612 13.065742,2.03896 3.253573,3.03116 5.587969,8.51798 2.118143,11.24735 -2.272257,1.78736 -6.5951,5.11785 -15.341934,5.11785 -7.681361,0 -13.26172,-1.18987 -14.992701,-2.40229 z"
         id="path3676" /><path
         style="fill:#68adbe;stroke-width:1.1149"
         d="m 443.14565,283.23739 c -4.58042,0 3.81395,-8.58399 0.1,-11.76653 -2.59059,-2.21989 -4.13195,-5.50474 -26.74304,-5.50474 -21.83347,0 -22.93659,3.34528 -25.1249,5.26966 -3.73223,3.28208 -3.79121,8.73003 -0.1285,11.86864 2.24315,1.92217 4.01465,2.06411 25.76108,2.06411 21.0218,0 29.1848,-1.93114 26.13539,-1.93114 z m -0.99408,-32.38471 c 5.34886,-3.48055 4.73538,-11.79493 -1.03659,-14.0485 -1.95725,-0.76419 -12.07379,-3.59685 -29.31371,-2.64764 l -26.75935,1.47333 -3.52055,3.01678 c -1.93629,1.65922 -3.52054,3.7722 -3.52054,4.6955 0,2.55088 3.27818,7.43756 5.47374,8.15951 1.07231,0.3526 14.26722,1.88776 29.32204,1.88776 20.03763,0 27.90366,-1.59235 29.35496,-2.53674 z m -0.50974,-33.38793 c 1.51405,-0.90874 3.23945,-2.74906 3.83423,-4.08961 1.35381,-3.05125 -0.65671,-8.36981 -3.68976,-9.76078 -1.21161,-0.55565 -8.09813,-1.01027 -15.30337,-1.01027 -11.51908,0 -13.4186,0.25401 -15.73632,2.10432 -3.91858,3.12832 -4.60318,10.0938 -0.42414,12.91066 2.7367,1.84465 5.65589,4.62332 16.19054,4.62332 9.25139,0 13.04403,-3.52636 15.12882,-4.77764 z"
         id="path3676-3" /><path
         style="fill:#5d5e61"
         d="M -1.4111076,184.97505 V 38.361204 l 2.184091,-3.886065 c 1.391967,-2.476672 3.682547,-4.611455 6.315725,-5.886154 3.9150646,-1.895251 6.1748666,-2.00009 43.1117946,-2.00009 h 38.98016 c 392.120247,-20.3148066 389.865757,39.210011 293.530777,0 h 34.623 c 32.5797,0 34.86683,0.118037 38.75463,2.00009 2.63318,1.274699 4.92376,3.409482 6.31573,5.886154 l 2.18409,3.886065 V 184.97505 331.5889 h -233 H -1.4111076 Z M 439.1772,281.28314 c 2.65527,-3.08915 2.98096,-5.35072 1.30142,-9.03692 -1.86288,-4.08857 -4.79542,-4.65732 -24.01371,-4.65732 h -18.02987 l -2.92307,2.92308 c -1.63481,1.63481 -2.92308,3.99935 -2.92308,5.36514 0,3.10818 3.37291,7.43742 6.26993,8.04764 1.22654,0.25836 10.25731,0.40099 20.06838,0.31694 l 17.8383,-0.1528 z M 67.588893,281.5889 c 3.04112,-3.04112 2.99215,-8.31986 -0.10669,-11.5 -1.81694,-1.86461 -3.26515,-2 -21.39331,-2 -18.77381,0 -19.52128,0.0768 -21.672223,2.22778 -3.083691,3.08369 -3.041557,8.87094 0.08301,11.40106 2.080173,1.68442 4.245773,1.87116 21.700003,1.87116 18.05588,0 19.52674,-0.13753 21.38921,-2 z M 438.79041,249.83385 c 3.18051,-3.18337 3.13535,-9.744 -0.085,-12.35171 -2.14549,-1.73728 -4.26853,-1.89324 -25.77276,-1.89324 h -23.43467 l -2.45454,2.45455 c -4.04234,4.04233 -2.96372,10.09194 2.32059,13.0154 2.23864,1.2385 6.69049,1.46489 24.94911,1.26877 21.57231,-0.23172 22.29033,-0.30487 24.47727,-2.49377 z m -364.746317,1.13387 c 1.82295,-0.69953 4.5448,-5.43443 4.5448,-7.90608 0,-0.89462 -1.31539,-2.94197 -2.92308,-4.54966 l -2.92307,-2.92308 h -22.02987 c -14.33586,0 -22.90206,0.39739 -24.527153,1.13784 -3.21389,1.46434 -4.865712,6.00183 -3.512824,9.64958 1.878961,5.06618 2.638,5.21258 27.025337,5.21258 12.4999,0 23.45553,-0.27953 24.34586,-0.62118 z m -23.09006,-33.4514 c 3.46983,-2.72937 3.69987,-8.8573 0.4463,-11.88846 -1.92438,-1.79284 -3.50154,-2.03896 -13.06574,-2.03896 -5.98245,0 -11.70027,0.4405 -12.706259,0.97889 -2.51832,1.34777 -4.187638,6.50113 -3.063584,9.45761 1.719769,4.52334 4.638583,5.5635 15.611793,5.5635 8.74683,0 10.50523,-0.28522 12.77749,-2.07258 z m 387.612127,0.12461 c 3.34348,-2.56907 3.47957,-9.03963 0.25789,-12.26132 -1.92965,-1.92964 -3.49329,-2.26416 -11.97728,-2.56232 -7.94091,-0.27907 -10.39851,-0.006 -13.19833,1.46434 -4.17939,2.19544 -5.76998,6.17792 -4.08864,10.23703 1.70587,4.11834 4.31699,4.92963 16.02909,4.98032 8.83329,0.0382 10.89323,-0.2567 12.97727,-1.85805 z M 181.76209,19.839109 c 30.07026,-0.14697 79.57026,-0.147004 110,-7.5e-5 30.42974,0.146929 5.8268,0.267178 -54.6732,0.267219 -60.5,4.2e-5 -85.39706,-0.120173 -55.3268,-0.267144 z"
         id="path3670" /></g><g
       id="g3694"
       transform="matrix(0.72908348,0,0,0.7152544,464.96838,214.47984)"><path
         style="fill:#f9f8f8"
         d="m -208.74721,162.42353 c -31.31986,-8.7808 -57.02509,-16.06475 -57.12273,-16.18655 -0.0976,-0.1218 -1.9356,-20.24646 -4.08434,-44.72146 l -3.90682,-44.5 27.43013,-0.26608 c 15.08658,-0.14635 27.55663,-0.1396 27.71122,0.015 0.1546,0.1546 1.24259,10.61758 2.41775,23.25108 1.17516,12.6335 2.23956,23.0729 2.36533,23.19867 0.12577,0.12577 14.28166,4.03617 31.45753,8.68979 l 31.22885,8.46112 31.22414,-8.51606 c 17.17328,-4.68383 31.31697,-8.6053 31.43042,-8.71438 0.32226,-0.30987 6.29373,-67.3625 6.29373,-70.67124 v -2.9479 h -96.88478 -96.88477 l -0.61243,-5.25 c -0.52022,-4.45957 -14.61802,-162.87968 -14.61802,-164.26597 0,-0.26622 63.05185,-0.48403 140.11522,-0.48403 h 140.11523 l -0.5839,5.25 c -0.32114,2.8875 -1.29125,13.8 -2.15579,24.25 -0.86454,10.45 -1.79903,20.4625 -2.07664,22.25 l -0.50475,3.25 h -106.78802 c -58.73341,0 -106.98578,0.19776 -107.22749,0.43948 -0.24171,0.24171 0.69579,13.40421 2.08333,29.25 l 2.52281,28.81052 102.36283,0.25473 102.36284,0.25473 -0.56707,4.24527 c -0.31189,2.3349 -3.79907,41.14527 -7.74931,86.24527 -3.95023,45.1 -7.25202,82.0937 -7.33731,82.20821 -0.12166,0.16336 -107.48323,30.20275 -113.57198,31.77705 -0.825,0.21331 -27.12534,-6.79646 -58.44521,-15.57725 z"
         id="path3708" /><path
         style="fill:#fbd6ca"
         d="m -221.552,-141.23437 c 38.6375,-0.14499 101.8625,-0.14499 140.5,0 38.6375,0.14499 7.025,0.26361 -70.25,0.26361 -77.275,0 -108.8875,-0.11862 -70.25,-0.26361 z"
         id="path3706" /><path
         style="fill:#fbc6b6"
         d="m -260.552,55.7678 c 7.8375,-0.16896 20.6625,-0.16896 28.5,0 7.8375,0.16896 1.425,0.3072 -14.25,0.3072 -15.675,0 -22.0875,-0.13824 -14.25,-0.3072 z m 136.69379,-140.99999 c 83.96634,-0.20523 107.13337,-0.52898 107.82614,-1.50684 0.65049,-0.91819 0.77475,-0.85131 0.4729,0.25455 -0.36069,1.32143 -13.19714,1.50081 -107.82613,1.50684 l -107.4167,0.007 106.94379,-0.26139 z"
         id="path3704" /><path
         style="fill:#fcab91"
         d="m -174.552,-27.23428 c 28.1875,-0.1476 74.3125,-0.1476 102.5,0 28.1875,0.1476 5.125,0.26837 -51.25,0.26837 -56.375,0 -79.4375,-0.12077 -51.25,-0.26837 z"
         id="path3702" /><path
         style="fill:#fd8e6b"
         d="m -292.22305,-140.06781 c 0.048,-1.16495 0.28494,-1.4019 0.60416,-0.60417 0.28887,0.72188 0.25335,1.58438 -0.0789,1.91667 -0.3323,0.33229 -0.56864,-0.25834 -0.52522,-1.3125 z m 281,0 c 0.048,-1.16495 0.28494,-1.4019 0.60416,-0.60417 0.28887,0.72188 0.25335,1.58438 -0.0789,1.91667 -0.33229,0.33229 -0.56864,-0.25834 -0.52522,-1.3125 z"
         id="path3700" /><path
         style="fill:#fd764b"
         d="m -228.052,29.76574 c 26.8125,-0.14808 70.6875,-0.14808 97.5,0 26.8125,0.14809 4.875,0.26925 -48.75,0.26925 -53.625,0 -75.5625,-0.12116 -48.75,-0.26925 z"
         id="path3698" /><path
         style="fill:#fd5621"
         d="m -244.5486,250.16923 c -80.42944,-22.54234 -89.75134,-25.36134 -89.79221,-27.15371 -0.0251,-1.1 -9.14992,-104.6 -20.27741,-230 l -20.2318,-228 111.77401,-0.25431 c 61.47571,-0.13987 162.07111,-0.13987 223.54534,0 l 111.77134,0.25431 -20.22084,227.5 c -11.12146,125.125 -20.24411,228.625 -20.27257,230 -0.0508,2.45709 -1.60942,2.93408 -90.80049,27.78898 -49.91183,13.90894 -91.87377,25.22811 -93.24877,25.15371 -1.375,-0.0744 -42.88597,-11.45444 -92.2466,-25.28898 z m 151.69893,-87.3124 c 49.40902,-13.77547 56.67365,-16.04453 57.03266,-17.81379 0.22627,-1.11514 3.59754,-38.70252 7.4917,-83.52752 3.89415,-44.825 7.33202,-83.1875 7.63969,-85.25 l 0.55942,-3.75 h -102.5879 c -100.07956,0 -102.5879,-0.0464 -102.5879,-1.89779 0,-2.28963 -3.72256,-44.84571 -4.44826,-50.85221 l -0.51348,-4.25 h 107.48087 c 65.69006,0 107.48087,-0.36206 107.48087,-0.93116 0,-1.60732 3.90261,-45.30757 4.53833,-50.81884 l 0.60558,-5.25 h -141.16579 -141.1658 l 0.59433,4.75 c 0.32688,2.6125 3.75264,40.75 7.6128,84.75 3.86015,44 7.21995,80.56027 7.46622,81.24505 0.3522,0.97933 21.10836,1.29945 97.25816,1.5 l 96.81041,0.25495 -3.13484,35.30772 c -1.72417,19.41925 -3.53637,35.65708 -4.02712,36.08407 -0.49076,0.42698 -14.52849,4.46996 -31.19497,8.98439 l -30.30269,8.20806 -30.56218,-8.29212 c -25.39378,-6.88984 -30.68377,-8.63034 -31.28126,-10.29212 -0.3955,-1.1 -1.53665,-11.7875 -2.53589,-23.75 l -1.8168,-21.75 h -28.34925 -28.34924 l 0.0378,3.75 c 0.0596,5.91766 7.46613,87.09104 7.99096,87.57876 0.96019,0.8923 114.51433,32.43832 115.6368,32.12459 0.64105,-0.17917 26.6451,-7.42958 57.78679,-16.11204 z"
         id="path3696" /></g></g><g
     id="layer1"
     transform="translate(-118.83538,-46.149228)" /></svg>
