<?xml version="1.0" encoding="UTF-8" standalone="no"?>
<!-- Created with Inkscape (http://www.inkscape.org/) -->

<svg
   width="64mm"
   height="64mm"
   viewBox="0 0 64 64"
   version="1.1"
   id="svg357"
   sodipodi:docname="ico-react.svg"
   inkscape:version="1.2.2 (732a01da63, 2022-12-09)"
   xmlns:inkscape="http://www.inkscape.org/namespaces/inkscape"
   xmlns:sodipodi="http://sodipodi.sourceforge.net/DTD/sodipodi-0.dtd"
   xmlns="http://www.w3.org/2000/svg"
   xmlns:svg="http://www.w3.org/2000/svg">
  <sodipodi:namedview
     id="namedview359"
     pagecolor="#ffffff"
     bordercolor="#666666"
     borderopacity="1.0"
     inkscape:showpageshadow="2"
     inkscape:pageopacity="0.0"
     inkscape:pagecheckerboard="0"
     inkscape:deskcolor="#d1d1d1"
     inkscape:document-units="mm"
     showgrid="false"
     inkscape:zoom="0.98171998"
     inkscape:cx="19.863098"
     inkscape:cy="90.657216"
     inkscape:window-width="1366"
     inkscape:window-height="705"
     inkscape:window-x="-8"
     inkscape:window-y="-8"
     inkscape:window-maximized="1"
     inkscape:current-layer="layer1" />
  <defs
     id="defs354" />
  <g
     inkscape:label="Capa 1"
     inkscape:groupmode="layer"
     id="layer1"
     transform="translate(-117.21534,-116.72558)">
    <g
       id="g1063"
       transform="matrix(0.79492812,0,0,0.89342862,25.384933,24.960558)"
       style="fill:#9442ef;fill-opacity:1">
      <path
         style="fill:#9442ef;fill-opacity:1;stroke-width:0.0358171"
         d="m 177.37447,172.29243 c 0,-0.006 0.0524,-0.0585 0.11641,-0.11641 l 0.1164,-0.1052 -0.1052,0.11641 c -0.0981,0.10851 -0.12761,0.13287 -0.12761,0.1052 z m -43.34137,-0.12311 -0.0868,-0.0985 0.0985,0.0868 c 0.0542,0.0478 0.0985,0.0921 0.0985,0.0985 0,0.0281 -0.029,0.005 -0.11016,-0.0868 z m 20.72289,-5.66805 c 0.0357,-0.0394 0.0729,-0.0716 0.0827,-0.0716 0.01,0 -0.0113,0.0322 -0.0469,0.0716 -0.0357,0.0394 -0.0729,0.0716 -0.0827,0.0716 -0.01,0 0.0113,-0.0322 0.0469,-0.0716 z m 1.98328,-0.0269 c -0.0446,-0.0568 -0.0433,-0.0581 0.0135,-0.0135 0.0345,0.027 0.0627,0.0553 0.0627,0.0627 0,0.0295 -0.0294,0.0105 -0.0762,-0.0491 z m -1.35648,-0.56412 c 0.0463,-0.0493 0.0922,-0.0896 0.10203,-0.0896 0.01,0 -0.02,0.0403 -0.0662,0.0896 -0.0463,0.0493 -0.0922,0.0895 -0.10203,0.0895 -0.01,0 0.0199,-0.0403 0.0662,-0.0895 z m 0.74945,-0.009 -0.0868,-0.0985 0.0985,0.0868 c 0.0542,0.0478 0.0985,0.0921 0.0985,0.0985 0,0.0281 -0.029,0.005 -0.11016,-0.0868 z m 3.40076,-1.64758 c -0.0445,-0.0568 -0.0433,-0.0581 0.0135,-0.0135 0.0345,0.027 0.0627,0.0553 0.0627,0.0627 0,0.0295 -0.0294,0.0105 -0.0762,-0.0491 z m -7.15885,-0.34484 c 0,-0.007 0.0282,-0.0356 0.0627,-0.0627 0.0568,-0.0445 0.0581,-0.0433 0.0135,0.0135 -0.0468,0.0597 -0.0762,0.0786 -0.0762,0.0491 z m 6.7123,-0.0671 -0.0682,-0.0806 0.0806,0.0682 c 0.0443,0.0375 0.0806,0.0738 0.0806,0.0806 0,0.0287 -0.0288,0.007 -0.0929,-0.0682 z m 21.47857,-0.0119 c 0.002,-0.0417 0.0102,-0.0502 0.0216,-0.0216 0.0104,0.0259 0.009,0.0567 -0.003,0.0687 -0.0119,0.0119 -0.0204,-0.009 -0.0188,-0.047 z m -46.09658,-0.39398 c 0.002,-0.0417 0.0102,-0.0502 0.0216,-0.0217 0.0103,0.0259 0.009,0.0568 -0.003,0.0687 -0.0119,0.0119 -0.0204,-0.009 -0.0188,-0.047 z m 18.60415,-0.19401 c 0.0357,-0.0394 0.0729,-0.0716 0.0827,-0.0716 0.01,0 -0.0113,0.0322 -0.0469,0.0716 -0.0356,0.0394 -0.0729,0.0716 -0.0827,0.0716 -0.01,0 0.0113,-0.0322 0.0469,-0.0716 z m 5.35194,-0.0269 -0.0868,-0.0985 0.0985,0.0868 c 0.0921,0.0811 0.11493,0.11016 0.0868,0.11016 -0.006,0 -0.0507,-0.0443 -0.0985,-0.0985 z m -27.49782,-0.24176 c 7.3e-4,-0.0591 0.009,-0.0789 0.0178,-0.0441 0.009,0.0348 0.008,0.0832 -0.001,0.10745 -0.01,0.0242 -0.0172,-0.004 -0.0165,-0.0634 z m 49.67828,-0.0358 c 7.2e-4,-0.0591 0.009,-0.0789 0.0178,-0.0441 0.009,0.0349 0.008,0.0832 -0.001,0.10745 -0.01,0.0242 -0.0172,-0.004 -0.0165,-0.0634 z m -27.55488,-0.18804 c -0.0445,-0.0568 -0.0433,-0.0581 0.0135,-0.0135 0.0345,0.027 0.0627,0.0552 0.0627,0.0627 0,0.0295 -0.0294,0.0105 -0.0762,-0.0492 z m 5.37713,0.0492 c 0,-0.007 0.0282,-0.0357 0.0627,-0.0627 0.0568,-0.0445 0.0581,-0.0433 0.0135,0.0135 -0.0468,0.0597 -0.0762,0.0786 -0.0762,0.0492 z m 22.17908,-1.13263 c 0,-0.0689 0.007,-0.0971 0.0164,-0.0627 0.009,0.0345 0.009,0.0909 0,0.12536 -0.009,0.0345 -0.0164,0.006 -0.0164,-0.0627 z m -49.67828,-0.0358 c 0,-0.0689 0.007,-0.0972 0.0164,-0.0627 0.009,0.0345 0.009,0.0909 0,0.12536 -0.009,0.0345 -0.0164,0.006 -0.0164,-0.0627 z m 46.1269,-0.48652 c 0.002,-0.0417 0.0102,-0.0502 0.0217,-0.0216 0.0103,0.0259 0.009,0.0567 -0.003,0.0686 -0.0119,0.0119 -0.0204,-0.009 -0.0188,-0.047 z m -42.5865,-0.0358 c 0.002,-0.0417 0.0102,-0.0502 0.0216,-0.0216 0.0103,0.0259 0.009,0.0567 -0.003,0.0687 -0.0119,0.0119 -0.0204,-0.009 -0.0188,-0.047 z m 21.23213,-0.6865 c -0.0445,-0.0568 -0.0433,-0.0581 0.0135,-0.0135 0.0531,0.0417 0.0722,0.0417 0.12536,0 0.0568,-0.0446 0.0581,-0.0433 0.0135,0.0135 -0.027,0.0345 -0.0613,0.0627 -0.0762,0.0627 -0.0149,0 -0.0492,-0.0282 -0.0762,-0.0627 z m -0.35817,-0.39399 c -0.0445,-0.0568 -0.0433,-0.0581 0.0135,-0.0135 0.0597,0.0468 0.0786,0.0762 0.0491,0.0762 -0.007,0 -0.0356,-0.0282 -0.0627,-0.0627 z m 0.79255,0.0492 c 0,-0.007 0.0282,-0.0356 0.0627,-0.0627 0.0568,-0.0446 0.0581,-0.0433 0.0135,0.0135 -0.0468,0.0597 -0.0762,0.0786 -0.0762,0.0492 z m -1.63863,-5.09719 c 0.0345,-0.009 0.0909,-0.009 0.12536,0 0.0345,0.009 0.006,0.0164 -0.0627,0.0164 -0.069,0 -0.0972,-0.007 -0.0627,-0.0164 z m 2.43556,0 c 0.0345,-0.009 0.0909,-0.009 0.12536,0 0.0345,0.009 0.006,0.0164 -0.0627,0.0164 -0.069,0 -0.0972,-0.007 -0.0627,-0.0164 z m -4.20851,-0.0349 c 0.0246,-0.01 0.0649,-0.01 0.0895,0 0.0246,0.01 0.004,0.0181 -0.0448,0.0181 -0.0493,0 -0.0694,-0.008 -0.0448,-0.0181 z m 6.01727,0 c 0.0246,-0.01 0.0649,-0.01 0.0895,0 0.0246,0.01 0.004,0.0181 -0.0448,0.0181 -0.0493,0 -0.0694,-0.008 -0.0448,-0.0181 z m -5.26287,-3.51082 c 0.0259,-0.0103 0.0567,-0.009 0.0687,0.003 0.0119,0.0119 -0.009,0.0204 -0.047,0.0188 -0.0417,-0.002 -0.0502,-0.0102 -0.0216,-0.0216 z m 4.54877,0 c 0.0258,-0.0103 0.0567,-0.009 0.0686,0.003 0.0119,0.0119 -0.009,0.0204 -0.047,0.0188 -0.0417,-0.002 -0.0502,-0.0102 -0.0216,-0.0216 z m -5.80237,-0.0358 c 0.0259,-0.0103 0.0568,-0.009 0.0687,0.003 0.0119,0.0119 -0.009,0.0204 -0.047,0.0188 -0.0417,-0.002 -0.0502,-0.0102 -0.0216,-0.0216 z m 7.05596,0 c 0.0259,-0.0103 0.0567,-0.009 0.0686,0.003 0.0119,0.0119 -0.009,0.0204 -0.047,0.0188 -0.0417,-0.002 -0.0502,-0.0102 -0.0216,-0.0216 z m -8.66773,-0.0716 c 0.0259,-0.0103 0.0567,-0.009 0.0686,0.003 0.0119,0.0119 -0.009,0.0204 -0.047,0.0188 -0.0417,-0.002 -0.0502,-0.0102 -0.0216,-0.0216 z m 4.83531,-5.62328 c 0.0258,-0.0103 0.0567,-0.009 0.0686,0.003 0.0119,0.0119 -0.009,0.0204 -0.047,0.0188 -0.0417,-0.002 -0.0502,-0.0102 -0.0216,-0.0216 z m 0.60889,0 c 0.0258,-0.0103 0.0567,-0.009 0.0686,0.003 0.0119,0.0119 -0.009,0.0204 -0.047,0.0188 -0.0417,-0.002 -0.0502,-0.0102 -0.0216,-0.0216 z m -37.01364,-0.19939 -0.0682,-0.0806 0.0806,0.0682 c 0.0757,0.0641 0.0969,0.093 0.0682,0.093 -0.007,0 -0.0431,-0.0363 -0.0806,-0.0806 z m 73.4105,0.0312 c 0,-0.007 0.0282,-0.0357 0.0627,-0.0627 0.0568,-0.0446 0.0581,-0.0433 0.0135,0.0135 -0.0468,0.0597 -0.0762,0.0786 -0.0762,0.0492 z m -74.39663,-1.01622 c -0.0446,-0.0568 -0.0433,-0.0581 0.0135,-0.0135 0.0597,0.0468 0.0786,0.0762 0.0492,0.0762 -0.007,0 -0.0357,-0.0282 -0.0627,-0.0627 z m 75.36369,0.0491 c 0,-0.007 0.0282,-0.0356 0.0627,-0.0627 0.0568,-0.0446 0.0581,-0.0433 0.0135,0.0135 -0.0468,0.0597 -0.0762,0.0786 -0.0762,0.0491 z m -72.04945,-1.71464 -0.0682,-0.0806 0.0806,0.0682 c 0.0443,0.0375 0.0806,0.0738 0.0806,0.0806 0,0.0287 -0.0288,0.007 -0.093,-0.0682 z m 68.71846,0.0671 c 0,-0.007 0.0282,-0.0356 0.0627,-0.0627 0.0568,-0.0445 0.0581,-0.0433 0.0135,0.0135 -0.0468,0.0597 -0.0762,0.0786 -0.0762,0.0492 z m 0.68053,-0.68052 c 0,-0.007 0.0282,-0.0357 0.0627,-0.0627 0.0568,-0.0445 0.0581,-0.0433 0.0135,0.0135 -0.0468,0.0597 -0.0762,0.0786 -0.0762,0.0492 z m -42.18686,-3.3891 c 0,-0.0493 0.008,-0.0694 0.0181,-0.0448 0.01,0.0246 0.01,0.0649 0,0.0895 -0.01,0.0246 -0.0181,0.004 -0.0181,-0.0448 z m 14.36265,-0.0358 c 0,-0.0493 0.008,-0.0694 0.0181,-0.0448 0.01,0.0246 0.01,0.0649 0,0.0895 -0.01,0.0246 -0.0181,0.004 -0.0181,-0.0448 z m 0.001,-0.59098 c 7.2e-4,-0.0591 0.009,-0.0789 0.0178,-0.0441 0.009,0.0349 0.008,0.0832 -0.001,0.10745 -0.01,0.0242 -0.0172,-0.004 -0.0165,-0.0634 z m -14.36397,-0.0179 c 0,-0.0493 0.008,-0.0694 0.0181,-0.0448 0.01,0.0246 0.01,0.0649 0,0.0895 -0.01,0.0246 -0.0181,0.004 -0.0181,-0.0448 z m -27.94297,-3.27288 c 0,-0.007 0.0282,-0.0356 0.0627,-0.0627 0.0568,-0.0445 0.0581,-0.0433 0.0135,0.0135 -0.0468,0.0597 -0.0762,0.0786 -0.0762,0.0491 z m 70.19689,-0.0491 c -0.0445,-0.0568 -0.0433,-0.0581 0.0135,-0.0135 0.0345,0.027 0.0627,0.0553 0.0627,0.0627 0,0.0295 -0.0294,0.0105 -0.0762,-0.0491 z m -69.46264,-0.68948 c 0.0356,-0.0394 0.0729,-0.0716 0.0827,-0.0716 0.01,0 -0.0113,0.0322 -0.0469,0.0716 -0.0357,0.0394 -0.0729,0.0716 -0.0827,0.0716 -0.01,0 0.0113,-0.0322 0.0469,-0.0716 z m 68.7463,-0.0269 c -0.0445,-0.0568 -0.0433,-0.0581 0.0135,-0.0135 0.0345,0.027 0.0627,0.0552 0.0627,0.0627 0,0.0295 -0.0294,0.0105 -0.0762,-0.0491 z m -72.0952,-1.59843 c 0,-0.007 0.0282,-0.0357 0.0627,-0.0627 0.0568,-0.0446 0.0581,-0.0433 0.0135,0.0135 -0.0468,0.0597 -0.0762,0.0786 -0.0762,0.0492 z m 75.42619,-0.0492 c -0.0446,-0.0568 -0.0433,-0.0581 0.0135,-0.0135 0.0597,0.0468 0.0786,0.0762 0.0492,0.0762 -0.007,0 -0.0356,-0.0282 -0.0627,-0.0627 z m -74.4054,-0.97602 c 0.0357,-0.0394 0.0729,-0.0716 0.0827,-0.0716 0.01,0 -0.0113,0.0322 -0.0469,0.0716 -0.0356,0.0394 -0.0729,0.0716 -0.0827,0.0716 -0.01,0 0.0113,-0.0322 0.0469,-0.0716 z m 73.4216,-0.009 -0.0682,-0.0806 0.0806,0.0682 c 0.0443,0.0375 0.0806,0.0738 0.0806,0.0806 0,0.0287 -0.0288,0.007 -0.0929,-0.0682 z m -37.058,-0.19375 c 0.0246,-0.01 0.0649,-0.01 0.0895,0 0.0246,0.01 0.004,0.0181 -0.0448,0.0181 -0.0493,0 -0.0694,-0.008 -0.0448,-0.0181 z m 0.64471,0 c 0.0246,-0.01 0.0649,-0.01 0.0895,0 0.0246,0.01 0.004,0.0181 -0.0448,0.0181 -0.0493,0 -0.0694,-0.008 -0.0448,-0.0181 z m -4.72562,-5.65985 c 0.0259,-0.0103 0.0567,-0.009 0.0686,0.003 0.0119,0.0119 -0.009,0.0204 -0.047,0.0188 -0.0417,-0.002 -0.0502,-0.0102 -0.0216,-0.0216 z m 8.84682,0 c 0.0259,-0.0103 0.0568,-0.009 0.0687,0.003 0.0119,0.0119 -0.009,0.0204 -0.047,0.0188 -0.0417,-0.002 -0.0502,-0.0102 -0.0216,-0.0216 z m -7.95139,-0.0358 c 0.0259,-0.0104 0.0568,-0.009 0.0687,0.003 0.0119,0.0119 -0.009,0.0204 -0.047,0.0188 -0.0417,-0.002 -0.0502,-0.0102 -0.0216,-0.0216 z m 7.05596,0 c 0.0259,-0.0104 0.0567,-0.009 0.0686,0.003 0.0119,0.0119 -0.009,0.0204 -0.047,0.0188 -0.0417,-0.002 -0.0502,-0.0102 -0.0216,-0.0216 z m -5.84042,-0.0351 c 0.0246,-0.01 0.0649,-0.01 0.0895,0 0.0246,0.01 0.004,0.0181 -0.0448,0.0181 -0.0493,0 -0.0694,-0.008 -0.0448,-0.0181 z m 4.58459,0 c 0.0246,-0.01 0.0649,-0.01 0.0895,0 0.0246,0.01 0.004,0.0181 -0.0448,0.0181 -0.0493,0 -0.0694,-0.008 -0.0448,-0.0181 z m -6.33739,-3.47501 c 0.0259,-0.0103 0.0567,-0.009 0.0686,0.003 0.0119,0.0119 -0.009,0.0204 -0.047,0.0188 -0.0417,-0.002 -0.0502,-0.0102 -0.0216,-0.0216 z m 8.13048,0 c 0.0259,-0.0103 0.0568,-0.009 0.0687,0.003 0.0119,0.0119 -0.009,0.0204 -0.047,0.0188 -0.0417,-0.002 -0.0502,-0.0102 -0.0216,-0.0216 z m -7.09178,-0.0358 c 0.0259,-0.0104 0.0568,-0.009 0.0687,0.003 0.0119,0.0119 -0.009,0.0204 -0.047,0.0188 -0.0417,-0.002 -0.0502,-0.0102 -0.0216,-0.0216 z m 6.05308,0 c 0.0259,-0.0104 0.0567,-0.009 0.0687,0.003 0.0119,0.0119 -0.009,0.0204 -0.047,0.0188 -0.0417,-0.002 -0.0502,-0.0102 -0.0216,-0.0216 z m -4.28169,-0.0362 c 0.0348,-0.009 0.0832,-0.008 0.10745,0.001 0.0242,0.01 -0.004,0.0173 -0.0634,0.0165 -0.0591,-7.3e-4 -0.0789,-0.009 -0.0441,-0.0178 z m 2.47137,0 c 0.0349,-0.009 0.0832,-0.008 0.10746,0.001 0.0242,0.01 -0.004,0.0173 -0.0634,0.0165 -0.0591,-7.3e-4 -0.0789,-0.009 -0.0441,-0.0178 z m -1.33486,-5.36127 c 0,-0.007 0.0282,-0.0356 0.0627,-0.0627 0.0568,-0.0446 0.0581,-0.0433 0.0135,0.0135 -0.0468,0.0597 -0.0762,0.0786 -0.0762,0.0491 z m 0.17451,-0.085 c -0.0445,-0.0568 -0.0433,-0.0581 0.0135,-0.0135 0.0597,0.0468 0.0786,0.0762 0.0491,0.0762 -0.007,0 -0.0356,-0.0282 -0.0627,-0.0627 z m -21.33958,-0.67456 c 0.002,-0.0417 0.0102,-0.0502 0.0216,-0.0216 0.0103,0.0259 0.009,0.0568 -0.003,0.0687 -0.0119,0.0119 -0.0204,-0.009 -0.0188,-0.047 z m 42.5865,-0.0358 c 0.002,-0.0417 0.0102,-0.0502 0.0217,-0.0216 0.0103,0.0259 0.009,0.0567 -0.003,0.0687 -0.0119,0.0119 -0.0204,-0.009 -0.0188,-0.047 z m -46.1269,-0.48055 c 0,-0.069 0.007,-0.0971 0.0164,-0.0627 0.009,0.0345 0.009,0.0909 0,0.12536 -0.009,0.0345 -0.0164,0.006 -0.0164,-0.0627 z m 49.67828,-0.0358 c 0,-0.0689 0.007,-0.0971 0.0164,-0.0627 0.009,0.0345 0.009,0.0909 0,0.12536 -0.009,0.0345 -0.0164,0.006 -0.0164,-0.0627 z m -27.58746,-1.05221 c 0,-0.007 0.0282,-0.0356 0.0627,-0.0627 0.0568,-0.0446 0.0581,-0.0433 0.0135,0.0135 -0.0468,0.0597 -0.0762,0.0786 -0.0762,0.0492 z m 5.43963,-0.0492 c -0.0446,-0.0568 -0.0433,-0.0581 0.0135,-0.0135 0.0597,0.0468 0.0786,0.0762 0.0492,0.0762 -0.007,0 -0.0357,-0.0282 -0.0627,-0.0627 z m 22.1465,-0.17013 c 7.2e-4,-0.0591 0.009,-0.0789 0.0178,-0.0441 0.009,0.0349 0.008,0.0832 -0.001,0.10745 -0.01,0.0243 -0.0172,-0.004 -0.0165,-0.0634 z m -49.67828,-0.0358 c 7.3e-4,-0.0591 0.009,-0.0789 0.0178,-0.0441 0.009,0.0349 0.008,0.0832 -0.001,0.10745 -0.01,0.0243 -0.0172,-0.004 -0.0165,-0.0634 z m 27.4289,-0.17238 c 0,-0.006 0.0524,-0.0585 0.1164,-0.11641 l 0.11641,-0.1052 -0.1052,0.11641 c -0.0981,0.10851 -0.12761,0.13287 -0.12761,0.1052 z m -5.30364,-0.12311 -0.0868,-0.0985 0.0985,0.0868 c 0.0542,0.0478 0.0985,0.0921 0.0985,0.0985 0,0.0281 -0.029,0.005 -0.11016,-0.0868 z m -18.58353,-0.17312 c 0.002,-0.0417 0.0102,-0.0502 0.0216,-0.0216 0.0103,0.0259 0.009,0.0567 -0.003,0.0686 -0.0119,0.0119 -0.0204,-0.009 -0.0188,-0.047 z m 24.62142,-0.40891 c 0.0357,-0.0394 0.0729,-0.0716 0.0827,-0.0716 0.01,0 -0.0113,0.0322 -0.0469,0.0716 -0.0357,0.0394 -0.0729,0.0716 -0.0827,0.0716 -0.01,0 0.0113,-0.0322 0.0469,-0.0716 z m 21.47516,0.0149 c 0.002,-0.0417 0.0102,-0.0502 0.0216,-0.0216 0.0104,0.0258 0.009,0.0567 -0.003,0.0686 -0.0119,0.0119 -0.0204,-0.009 -0.0188,-0.047 z m -28.15962,-0.0418 c -0.0445,-0.0568 -0.0433,-0.0581 0.0135,-0.0135 0.0597,0.0468 0.0786,0.0762 0.0491,0.0762 -0.007,0 -0.0356,-0.0282 -0.0627,-0.0627 z m 7.09635,-0.34483 c 0,-0.007 0.0282,-0.0356 0.0627,-0.0627 0.0568,-0.0446 0.0581,-0.0433 0.0135,0.0135 -0.0468,0.0597 -0.0762,0.0786 -0.0762,0.0492 z m -4.15749,-1.73256 -0.0868,-0.0985 0.0985,0.0868 c 0.0542,0.0478 0.0985,0.0921 0.0985,0.0985 0,0.0281 -0.029,0.005 -0.11016,-0.0868 z m 0.8265,0.009 c 0.0463,-0.0492 0.0922,-0.0895 0.10203,-0.0895 0.01,0 -0.0199,0.0403 -0.0662,0.0895 -0.0463,0.0493 -0.0922,0.0896 -0.10203,0.0896 -0.01,0 0.02,-0.0403 0.0662,-0.0896 z m -1.41817,-0.56412 -0.0682,-0.0806 0.0806,0.0682 c 0.0757,0.0641 0.0969,0.0929 0.0682,0.0929 -0.007,0 -0.0431,-0.0363 -0.0806,-0.0806 z m 1.95543,0.0671 c 0,-0.007 0.0282,-0.0356 0.0627,-0.0627 0.0568,-0.0446 0.0581,-0.0433 0.0135,0.0135 -0.0468,0.0597 -0.0762,0.0786 -0.0762,0.0492 z m -2.40431,-0.47896 c -0.0445,-0.0568 -0.0433,-0.0581 0.0135,-0.0135 0.0597,0.0468 0.0786,0.0762 0.0492,0.0762 -0.007,0 -0.0357,-0.0282 -0.0627,-0.0627 z m -0.35818,-0.32236 c -0.0445,-0.0568 -0.0433,-0.0581 0.0135,-0.0135 0.0597,0.0468 0.0786,0.0762 0.0491,0.0762 -0.007,0 -0.0356,-0.0282 -0.0627,-0.0627 z m -19.90972,-4.9338 c 0.0668,-0.0689 0.12956,-0.12536 0.13941,-0.12536 0.01,0 -0.0368,0.0564 -0.10359,0.12536 -0.0668,0.069 -0.12956,0.12536 -0.13941,0.12536 -0.01,0 0.0368,-0.0564 0.10359,-0.12536 z m 43.42652,-0.0269 -0.14158,-0.15222 0.15222,0.14158 c 0.0837,0.0779 0.15222,0.14637 0.15222,0.15222 0,0.0271 -0.0312,-1e-5 -0.16286,-0.14158 z"
         id="path1077" />
      <path
         style="fill:#9442ef;fill-opacity:1;stroke-width:0.0358171"
         d="m 139.68596,170.91886 c 0.0246,-0.01 0.0649,-0.01 0.0895,0 0.0246,0.01 0.004,0.0181 -0.0448,0.0181 -0.0493,0 -0.0694,-0.008 -0.0448,-0.0181 z m 32.09209,0 c 0.0246,-0.01 0.0649,-0.01 0.0896,0 0.0246,0.01 0.004,0.0181 -0.0448,0.0181 -0.0493,0 -0.0694,-0.008 -0.0448,-0.0181 z m -16.28781,-5.11164 c 0,-0.007 0.0282,-0.0356 0.0627,-0.0627 0.0568,-0.0445 0.0581,-0.0433 0.0135,0.0135 -0.0468,0.0597 -0.0762,0.0786 -0.0762,0.0492 z m 0.49687,-0.0492 c -0.0446,-0.0568 -0.0433,-0.0581 0.0135,-0.0135 0.0597,0.0468 0.0786,0.0762 0.0492,0.0762 -0.007,0 -0.0356,-0.0282 -0.0627,-0.0627 z m -3.05779,-2.37288 c 0.0357,-0.0394 0.0729,-0.0716 0.0827,-0.0716 0.01,0 -0.0113,0.0322 -0.0469,0.0716 -0.0357,0.0394 -0.0729,0.0716 -0.0827,0.0716 -0.01,0 0.0113,-0.0322 0.0469,-0.0716 z m 5.63662,-0.0269 c -0.0446,-0.0568 -0.0433,-0.0581 0.0135,-0.0135 0.0597,0.0468 0.0786,0.0762 0.0492,0.0762 -0.007,0 -0.0356,-0.0282 -0.0627,-0.0627 z m -27.64056,-0.54621 c 0,-0.0493 0.008,-0.0694 0.0181,-0.0448 0.01,0.0246 0.01,0.0649 0,0.0895 -0.01,0.0246 -0.0181,0.004 -0.0181,-0.0448 z m 49.67828,-0.0358 c 0,-0.0493 0.008,-0.0694 0.0181,-0.0448 0.01,0.0246 0.01,0.0649 0,0.0895 -0.01,0.0246 -0.0181,0.004 -0.0181,-0.0448 z m 0.001,-0.91333 c 7.2e-4,-0.0591 0.009,-0.0789 0.0178,-0.0441 0.009,0.0349 0.008,0.0832 -10e-4,0.10745 -0.01,0.0242 -0.0172,-0.004 -0.0165,-0.0634 z m -49.67828,-0.0358 c 7.3e-4,-0.0591 0.009,-0.0789 0.0178,-0.0441 0.009,0.0349 0.008,0.0832 -10e-4,0.10745 -0.01,0.0242 -0.0172,-0.004 -0.0165,-0.0634 z m 46.12823,-0.79096 c 0.002,-0.0417 0.0102,-0.0502 0.0217,-0.0216 0.0103,0.0259 0.009,0.0567 -0.003,0.0686 -0.0119,0.0119 -0.0204,-0.009 -0.0188,-0.047 z m -22.21836,-6.0586 c 0.10342,-0.007 0.27266,-0.007 0.37608,0 0.10342,0.007 0.0188,0.0132 -0.18804,0.0132 -0.20685,0 -0.29146,-0.006 -0.18804,-0.0132 z m 1.50431,0 c 0.10343,-0.007 0.27266,-0.007 0.37608,0 0.10343,0.007 0.0188,0.0132 -0.18804,0.0132 -0.20684,0 -0.29146,-0.006 -0.18804,-0.0132 z m -3.45566,-0.0342 c 0.0349,-0.009 0.0832,-0.008 0.10745,0.001 0.0242,0.01 -0.004,0.0172 -0.0634,0.0165 -0.0591,-7.2e-4 -0.0789,-0.009 -0.0441,-0.0178 z m 5.69491,0 c 0.0349,-0.009 0.0832,-0.008 0.10745,0.001 0.0243,0.01 -0.004,0.0172 -0.0634,0.0165 -0.0591,-7.2e-4 -0.0789,-0.009 -0.0441,-0.0178 z m -6.78578,-0.0355 c 0.0259,-0.0104 0.0567,-0.009 0.0687,0.003 0.0119,0.0119 -0.009,0.0204 -0.047,0.0188 -0.0417,-0.002 -0.0502,-0.0102 -0.0216,-0.0216 z m 7.91558,0 c 0.0259,-0.0104 0.0568,-0.009 0.0687,0.003 0.0119,0.0119 -0.009,0.0204 -0.047,0.0188 -0.0417,-0.002 -0.0502,-0.0102 -0.0216,-0.0216 z m -6.39491,-3.47461 c 0.0349,-0.009 0.0832,-0.008 0.10745,0.001 0.0243,0.01 -0.004,0.0172 -0.0634,0.0165 -0.0591,-7.1e-4 -0.0789,-0.009 -0.0441,-0.0178 z m 4.83531,0 c 0.0349,-0.009 0.0832,-0.008 0.10745,0.001 0.0242,0.01 -0.004,0.0172 -0.0634,0.0165 -0.0591,-7.1e-4 -0.0789,-0.009 -0.0441,-0.0178 z m -6.03362,-0.0355 c 0.0259,-0.0103 0.0568,-0.009 0.0687,0.003 0.0119,0.0119 -0.009,0.0204 -0.047,0.0188 -0.0417,-0.002 -0.0502,-0.0102 -0.0216,-0.0216 z m 7.27086,0 c 0.0259,-0.0103 0.0567,-0.009 0.0687,0.003 0.0119,0.0119 -0.009,0.0204 -0.047,0.0188 -0.0417,-0.002 -0.0502,-0.0102 -0.0216,-0.0216 z m -8.13047,-0.0358 c 0.0259,-0.0103 0.0567,-0.009 0.0686,0.003 0.0119,0.0119 -0.009,0.0204 -0.047,0.0188 -0.0417,-0.002 -0.0502,-0.0102 -0.0216,-0.0216 z m 8.99008,0 c 0.0259,-0.0103 0.0568,-0.009 0.0687,0.003 0.0119,0.0119 -0.009,0.0204 -0.047,0.0188 -0.0417,-0.002 -0.0502,-0.0102 -0.0217,-0.0216 z m -4.67568,-5.65946 c 0.0349,-0.009 0.0832,-0.008 0.10745,0.001 0.0243,0.01 -0.004,0.0172 -0.0634,0.0165 -0.0591,-7.1e-4 -0.0789,-0.009 -0.0441,-0.0178 z m 0.32235,0 c 0.0349,-0.009 0.0832,-0.008 0.10745,0.001 0.0243,0.01 -0.004,0.0172 -0.0634,0.0165 -0.0591,-7.1e-4 -0.0789,-0.009 -0.0441,-0.0178 z m -7.30933,-7.01323 c 7.3e-4,-0.0591 0.009,-0.0789 0.0178,-0.0441 0.009,0.0349 0.008,0.0832 -0.001,0.10745 -0.01,0.0242 -0.0173,-0.004 -0.0165,-0.0634 z m 14.36132,-0.0179 c 0,-0.0493 0.008,-0.0694 0.0181,-0.0448 0.01,0.0246 0.01,0.0649 0,0.0895 -0.01,0.0246 -0.0181,0.004 -0.0181,-0.0448 z M 148.5842,138.3669 c 7.3e-4,-0.0591 0.009,-0.0789 0.0178,-0.0441 0.009,0.0349 0.008,0.0832 -0.001,0.10745 -0.01,0.0242 -0.0173,-0.004 -0.0165,-0.0634 z m 14.36132,0.0179 c 0,-0.0493 0.008,-0.0694 0.0181,-0.0448 0.01,0.0246 0.01,0.0649 0,0.0896 -0.01,0.0246 -0.0181,0.004 -0.0181,-0.0448 z m -7.37434,-7.04497 c 0.0349,-0.009 0.0832,-0.008 0.10745,0.001 0.0243,0.01 -0.004,0.0172 -0.0634,0.0165 -0.0591,-7.3e-4 -0.0789,-0.009 -0.0441,-0.0178 z m 0.32235,0 c 0.0349,-0.009 0.0832,-0.008 0.10745,0.001 0.0243,0.01 -0.004,0.0172 -0.0634,0.0165 -0.0591,-7.3e-4 -0.0789,-0.009 -0.0441,-0.0178 z m -3.77714,-5.69456 c 0.0259,-0.0104 0.0568,-0.009 0.0687,0.003 0.0119,0.0119 -0.009,0.0204 -0.047,0.0188 -0.0417,-0.002 -0.0502,-0.0102 -0.0216,-0.0216 z m 7.27086,0 c 0.0259,-0.0104 0.0567,-0.009 0.0687,0.003 0.0119,0.0119 -0.009,0.0204 -0.047,0.0188 -0.0417,-0.002 -0.0502,-0.0102 -0.0216,-0.0216 z m -6.10836,-0.0362 c 0.0348,-0.009 0.0832,-0.008 0.10745,10e-4 0.0242,0.01 -0.004,0.0172 -0.0634,0.0165 -0.0591,-7.3e-4 -0.0789,-0.009 -0.0441,-0.0178 z m 4.90693,0 c 0.0349,-0.009 0.0832,-0.008 0.10746,10e-4 0.0242,0.01 -0.004,0.0172 -0.0634,0.0165 -0.0591,-7.3e-4 -0.0789,-0.009 -0.0441,-0.0178 z m -6.39179,-3.47391 c 0.0259,-0.0103 0.0567,-0.009 0.0687,0.003 0.0119,0.0119 -0.009,0.0204 -0.047,0.0188 -0.0417,-0.002 -0.0502,-0.0102 -0.0216,-0.0216 z m 7.91558,0 c 0.0259,-0.0103 0.0568,-0.009 0.0687,0.003 0.0119,0.0119 -0.009,0.0204 -0.047,0.0188 -0.0417,-0.002 -0.0502,-0.0102 -0.0216,-0.0216 z m -6.86053,-0.0362 c 0.0349,-0.009 0.0832,-0.008 0.10745,10e-4 0.0242,0.01 -0.004,0.0172 -0.0634,0.0165 -0.0591,-7.3e-4 -0.0789,-0.009 -0.0441,-0.0178 z m 5.76655,0 c 0.0349,-0.009 0.0832,-0.008 0.10745,10e-4 0.0242,0.01 -0.004,0.0172 -0.0634,0.0165 -0.0591,-7.3e-4 -0.0789,-0.009 -0.0441,-0.0178 z m -3.8152,-0.0374 c 0.10342,-0.007 0.27266,-0.007 0.37608,0 0.10342,0.007 0.0188,0.0132 -0.18804,0.0132 -0.20684,0 -0.29146,-0.006 -0.18804,-0.0132 z m 1.57595,0 c 0.10342,-0.007 0.27266,-0.007 0.37608,0 0.10342,0.007 0.0188,0.0132 -0.18804,0.0132 -0.20684,0 -0.29146,-0.006 -0.18804,-0.0132 z m 20.67823,-6.04757 c 0.002,-0.0417 0.0102,-0.0502 0.0217,-0.0216 0.0103,0.0259 0.009,0.0567 -0.003,0.0687 -0.0119,0.0119 -0.0204,-0.009 -0.0188,-0.047 z M 130.92638,115.229 c 7.3e-4,-0.0591 0.009,-0.0789 0.0178,-0.0441 0.009,0.0349 0.008,0.0832 -10e-4,0.10745 -0.01,0.0242 -0.0172,-0.004 -0.0165,-0.0634 z m 49.67828,-0.0358 c 7.2e-4,-0.0591 0.009,-0.0789 0.0178,-0.0441 0.009,0.0349 0.008,0.0832 -10e-4,0.10745 -0.01,0.0242 -0.0172,-0.004 -0.0165,-0.0634 z m -0.001,-0.91334 c 0,-0.0492 0.008,-0.0694 0.0181,-0.0448 0.01,0.0246 0.01,0.0649 0,0.0895 -0.01,0.0246 -0.0181,0.004 -0.0181,-0.0448 z m -49.67828,-0.0358 c 0,-0.0493 0.008,-0.0694 0.0181,-0.0448 0.01,0.0246 0.01,0.0649 0,0.0895 -0.01,0.0246 -0.0181,0.004 -0.0181,-0.0448 z m 21.98146,-0.59994 c -0.0445,-0.0568 -0.0433,-0.0581 0.0135,-0.0135 0.0345,0.027 0.0627,0.0552 0.0627,0.0627 0,0.0295 -0.0294,0.0105 -0.0762,-0.0492 z m 5.66367,0.0492 c 0,-0.007 0.0282,-0.0356 0.0627,-0.0627 0.0568,-0.0446 0.0581,-0.0433 0.0135,0.0135 -0.0468,0.0597 -0.0762,0.0786 -0.0762,0.0492 z m -2.56092,-2.42204 c 0.0357,-0.0394 0.0729,-0.0716 0.0827,-0.0716 0.01,0 -0.0113,0.0322 -0.0469,0.0716 -0.0357,0.0394 -0.0729,0.0716 -0.0827,0.0716 -0.01,0 0.0113,-0.0322 0.0469,-0.0716 z m -0.52392,-0.0269 c -0.0445,-0.0568 -0.0433,-0.0581 0.0135,-0.0135 0.0597,0.0468 0.0786,0.0762 0.0492,0.0762 -0.007,0 -0.0356,-0.0282 -0.0627,-0.0627 z m -18.97848,-3.85491 c 0,-0.007 0.0282,-0.0356 0.0627,-0.0627 0.0568,-0.0446 0.0581,-0.0433 0.0135,0.0135 -0.0468,0.0597 -0.0762,0.0786 -0.0762,0.0492 z m 3.17918,-1.2654 c 0.0446,-0.009 0.10903,-0.008 0.14327,7.2e-4 0.0342,0.009 -0.002,0.016 -0.081,0.0156 -0.0788,-4e-4 -0.10682,-0.008 -0.0623,-0.0163 z m 32.05629,0 c 0.0445,-0.009 0.10902,-0.008 0.14326,7.2e-4 0.0343,0.009 -0.002,0.016 -0.081,0.0156 -0.0788,-4e-4 -0.10682,-0.008 -0.0623,-0.0163 z"
         id="path1075" />
      <path
         style="fill:#9442ef;fill-opacity:1;stroke-width:0.0358171"
         d="m 139.52546,170.91776 c 0.0348,-0.009 0.0832,-0.008 0.10745,0.001 0.0242,0.01 -0.004,0.0172 -0.0634,0.0165 -0.0591,-7.1e-4 -0.0789,-0.009 -0.0441,-0.0178 z m 0.30376,0.001 c 0.0246,-0.01 0.0649,-0.01 0.0896,0 0.0246,0.01 0.004,0.0181 -0.0448,0.0181 -0.0492,0 -0.0694,-0.008 -0.0448,-0.0181 z m 31.80557,0 c 0.0246,-0.01 0.0649,-0.01 0.0895,0 0.0246,0.01 0.004,0.0181 -0.0448,0.0181 -0.0493,0 -0.0694,-0.008 -0.0448,-0.0181 z m 0.30512,-0.001 c 0.0349,-0.009 0.0832,-0.008 0.10745,0.001 0.0242,0.01 -0.004,0.0172 -0.0634,0.0165 -0.0591,-7.1e-4 -0.0789,-0.009 -0.0441,-0.0178 z m -35.32984,-1.14818 c -0.0446,-0.0568 -0.0433,-0.0581 0.0135,-0.0135 0.0597,0.0468 0.0786,0.0762 0.0491,0.0762 -0.007,0 -0.0356,-0.0282 -0.0627,-0.0627 z m 38.25721,0.0491 c 0,-0.007 0.0282,-0.0356 0.0627,-0.0627 0.0568,-0.0445 0.0581,-0.0433 0.0135,0.0135 -0.0468,0.0597 -0.0762,0.0786 -0.0762,0.0491 z m -38.40048,-0.19242 c -0.0446,-0.0568 -0.0433,-0.0581 0.0135,-0.0135 0.0597,0.0468 0.0786,0.0762 0.0491,0.0762 -0.007,0 -0.0356,-0.0282 -0.0627,-0.0627 z m 19.18462,-3.98465 c 0.0357,-0.0394 0.0729,-0.0716 0.0827,-0.0716 0.01,0 -0.0113,0.0322 -0.0469,0.0716 -0.0357,0.0394 -0.0729,0.0716 -0.0827,0.0716 -0.01,0 0.0113,-0.0322 0.0469,-0.0716 z m 0.19428,-0.0269 -0.0868,-0.0985 0.0985,0.0868 c 0.0921,0.0812 0.11493,0.11016 0.0868,0.11016 -0.006,0 -0.0507,-0.0443 -0.0985,-0.0985 z m -24.88733,-1.92816 c 0.002,-0.0417 0.0102,-0.0502 0.0216,-0.0216 0.0104,0.0259 0.009,0.0567 -0.003,0.0687 -0.0119,0.0119 -0.0204,-0.009 -0.0188,-0.047 z m 46.09657,-0.10745 c 0.002,-0.0417 0.0102,-0.0502 0.0217,-0.0216 0.0103,0.0259 0.009,0.0567 -0.003,0.0687 -0.0119,0.0119 -0.0204,-0.009 -0.0188,-0.047 z m -24.2868,-0.0285 c 0,-0.007 0.0282,-0.0356 0.0627,-0.0627 0.0568,-0.0445 0.0581,-0.0433 0.0135,0.0135 -0.0468,0.0597 -0.0762,0.0786 -0.0762,0.0491 z m 5.90525,-0.085 c -0.0446,-0.0568 -0.0433,-0.0581 0.0135,-0.0135 0.0345,0.027 0.0627,0.0552 0.0627,0.0627 0,0.0295 -0.0294,0.0105 -0.0762,-0.0492 z m -27.73999,-1.13719 c 7e-5,-0.23639 0.006,-0.32844 0.0129,-0.20454 0.007,0.12389 0.007,0.3173 -1.4e-4,0.4298 -0.007,0.1125 -0.0128,0.0111 -0.0128,-0.22526 z m 3.5098,0 c 7e-5,-0.21669 0.006,-0.30072 0.0131,-0.18673 0.007,0.11399 0.007,0.29128 -1.5e-4,0.39399 -0.007,0.1027 -0.013,0.009 -0.013,-0.20726 z m 46.16821,0 c 0,-0.21669 0.006,-0.30072 0.0131,-0.18673 0.007,0.11399 0.007,0.29128 0,0.39399 -0.007,0.1027 -0.013,0.009 -0.013,-0.20726 z m -3.51056,0.0179 c 0,-0.18715 0.006,-0.2637 0.0134,-0.17013 0.007,0.0936 0.007,0.24669 0,0.34026 -0.007,0.0936 -0.0134,0.017 -0.0134,-0.17013 z m -42.63241,-1.41776 c 0.002,-0.0417 0.0102,-0.0502 0.0216,-0.0216 0.0103,0.0259 0.009,0.0567 -0.003,0.0686 -0.0119,0.0119 -0.0204,-0.009 -0.0188,-0.047 z m -3.51007,-0.0716 c 0.002,-0.0417 0.0102,-0.0502 0.0216,-0.0216 0.0104,0.0258 0.009,0.0567 -0.003,0.0686 -0.0119,0.0119 -0.0204,-0.009 -0.0188,-0.047 z m 49.60665,0 c 0.002,-0.0417 0.0102,-0.0502 0.0216,-0.0216 0.0104,0.0258 0.009,0.0567 -0.003,0.0686 -0.0119,0.0119 -0.0204,-0.009 -0.0188,-0.047 z m -24.99419,-5.87958 c 0.11327,-0.007 0.29862,-0.007 0.41189,0 0.11328,0.007 0.0206,0.0129 -0.20594,0.0129 -0.22655,0 -0.31922,-0.006 -0.20595,-0.0129 z m -2.50652,-0.0342 c 0.0349,-0.009 0.0832,-0.008 0.10745,0.001 0.0243,0.01 -0.004,0.0172 -0.0634,0.0165 -0.0591,-7.2e-4 -0.0789,-0.009 -0.0441,-0.0178 z m 5.33675,0 c 0.0349,-0.009 0.0832,-0.008 0.10745,0.001 0.0242,0.01 -0.004,0.0172 -0.0634,0.0165 -0.0591,-7.2e-4 -0.0789,-0.009 -0.0441,-0.0178 z m -6.50148,-0.0347 c 0.0246,-0.01 0.0649,-0.01 0.0895,0 0.0246,0.01 0.004,0.0181 -0.0448,0.0181 -0.0492,0 -0.0694,-0.008 -0.0448,-0.0181 z m 7.66485,0 c 0.0246,-0.01 0.0649,-0.01 0.0895,0 0.0246,0.01 0.004,0.0181 -0.0448,0.0181 -0.0493,0 -0.0694,-0.008 -0.0448,-0.0181 z m -3.9936,-3.44118 c 0.11327,-0.007 0.29862,-0.007 0.41189,0 0.11328,0.007 0.0206,0.0129 -0.20594,0.0129 -0.22655,0 -0.31922,-0.006 -0.20595,-0.0129 z m -2.47138,-0.034 c 0.0345,-0.009 0.0909,-0.009 0.12536,0 0.0345,0.009 0.006,0.0164 -0.0627,0.0164 -0.069,0 -0.0971,-0.007 -0.0627,-0.0164 z m 5.22929,0 c 0.0345,-0.009 0.0909,-0.009 0.12536,0 0.0345,0.009 0.006,0.0164 -0.0627,0.0164 -0.069,0 -0.0971,-0.007 -0.0627,-0.0164 z m -6.35753,-0.0349 c 0.0246,-0.01 0.0649,-0.01 0.0895,0 0.0246,0.01 0.004,0.0181 -0.0448,0.0181 -0.0493,0 -0.0694,-0.008 -0.0448,-0.0181 z m 7.52159,0 c 0.0246,-0.01 0.0649,-0.01 0.0895,0 0.0246,0.01 0.004,0.0181 -0.0448,0.0181 -0.0493,0 -0.0694,-0.008 -0.0448,-0.0181 z m -8.34314,-0.0366 c 0.0258,-0.0103 0.0567,-0.009 0.0686,0.003 0.0119,0.0119 -0.009,0.0204 -0.047,0.0188 -0.0417,-0.002 -0.0502,-0.0102 -0.0216,-0.0216 z m 9.20499,0 c 0.0259,-0.0103 0.0567,-0.009 0.0687,0.003 0.0119,0.0119 -0.009,0.0204 -0.047,0.0188 -0.0417,-0.002 -0.0502,-0.0102 -0.0216,-0.0216 z m -9.88552,-0.0358 c 0.0259,-0.0103 0.0567,-0.009 0.0686,0.003 0.0119,0.0119 -0.009,0.0204 -0.047,0.0188 -0.0417,-0.002 -0.0502,-0.0102 -0.0216,-0.0216 z m 10.60186,0 c 0.0258,-0.0103 0.0567,-0.009 0.0687,0.003 0.0119,0.0119 -0.009,0.0204 -0.047,0.0188 -0.0417,-0.002 -0.0502,-0.0102 -0.0216,-0.0216 z m -5.33899,-5.62254 c 0.0246,-0.01 0.0649,-0.01 0.0896,0 0.0246,0.01 0.004,0.0181 -0.0448,0.0181 -0.0493,0 -0.0694,-0.008 -0.0448,-0.0181 z m -36.8872,-0.39712 c -0.0446,-0.0568 -0.0433,-0.0581 0.0135,-0.0135 0.0597,0.0468 0.0786,0.0762 0.0492,0.0762 -0.007,0 -0.0356,-0.0282 -0.0627,-0.0627 z m 29.7384,-6.77839 c 0,-0.0492 0.008,-0.0694 0.0181,-0.0448 0.01,0.0246 0.01,0.0649 0,0.0896 -0.01,0.0246 -0.0181,0.004 -0.0181,-0.0448 z m 14.36265,0 c 0,-0.0492 0.008,-0.0694 0.0181,-0.0448 0.01,0.0246 0.01,0.0649 0,0.0896 -0.01,0.0246 -0.0181,0.004 -0.0181,-0.0448 z M 155.732,131.341 c 0.0246,-0.01 0.0649,-0.01 0.0896,0 0.0246,0.01 0.004,0.0181 -0.0448,0.0181 -0.0493,0 -0.0694,-0.008 -0.0448,-0.0181 z m -5.26287,-5.62403 c 0.0259,-0.0103 0.0567,-0.009 0.0686,0.003 0.0119,0.0119 -0.009,0.0204 -0.047,0.0188 -0.0417,-0.002 -0.0502,-0.0102 -0.0216,-0.0216 z m 0.68053,-0.0358 c 0.0258,-0.0103 0.0567,-0.009 0.0686,0.003 0.0119,0.0119 -0.009,0.0204 -0.047,0.0188 -0.0417,-0.002 -0.0502,-0.0102 -0.0216,-0.0216 z m 9.20499,0 c 0.0259,-0.0103 0.0567,-0.009 0.0687,0.003 0.0119,0.0119 -0.009,0.0204 -0.047,0.0188 -0.0417,-0.002 -0.0502,-0.0102 -0.0216,-0.0216 z m -8.38344,-0.0351 c 0.0246,-0.01 0.0649,-0.01 0.0895,0 0.0246,0.01 0.004,0.0181 -0.0448,0.0181 -0.0493,0 -0.0694,-0.008 -0.0448,-0.0181 z m 7.52159,0 c 0.0246,-0.01 0.0649,-0.01 0.0895,0 0.0246,0.01 0.004,0.0181 -0.0448,0.0181 -0.0493,0 -0.0694,-0.008 -0.0448,-0.0181 z m -6.39267,-0.0369 c 0.0349,-0.009 0.0832,-0.008 0.10745,10e-4 0.0242,0.01 -0.004,0.0172 -0.0634,0.0165 -0.0591,-7.3e-4 -0.0789,-0.009 -0.0441,-0.0178 z m 5.26511,0 c 0.0349,-0.009 0.0832,-0.008 0.10745,10e-4 0.0242,0.01 -0.004,0.0172 -0.0634,0.0165 -0.0591,-7.3e-4 -0.0789,-0.009 -0.0441,-0.0178 z m -2.81092,-0.0376 c 0.12389,-0.007 0.31731,-0.007 0.42981,1.4e-4 0.1125,0.007 0.0111,0.0128 -0.22526,0.0127 -0.2364,-7e-5 -0.32844,-0.006 -0.20455,-0.0129 z m -3.65474,-3.43561 c 0.0246,-0.01 0.0649,-0.01 0.0895,0 0.0246,0.01 0.004,0.0181 -0.0448,0.0181 -0.0492,0 -0.0694,-0.008 -0.0448,-0.0181 z m 7.66485,0 c 0.0246,-0.01 0.0649,-0.01 0.0895,0 0.0246,0.01 0.004,0.0181 -0.0448,0.0181 -0.0493,0 -0.0694,-0.008 -0.0448,-0.0181 z m -6.53593,-0.0369 c 0.0349,-0.009 0.0832,-0.008 0.10745,0.001 0.0242,0.01 -0.004,0.0172 -0.0634,0.0165 -0.0591,-7.3e-4 -0.0789,-0.009 -0.0441,-0.0178 z m 5.37188,1.5e-4 c 0.0345,-0.009 0.0909,-0.009 0.12536,0 0.0345,0.009 0.006,0.0164 -0.0627,0.0164 -0.069,0 -0.0972,-0.007 -0.0627,-0.0164 z m -2.84746,-0.0376 c 0.12312,-0.007 0.32459,-0.007 0.44771,0 0.12312,0.007 0.0224,0.0127 -0.22385,0.0127 -0.24625,0 -0.34698,-0.006 -0.22386,-0.0127 z m 24.97628,-5.25948 c 0.002,-0.0417 0.0102,-0.0502 0.0216,-0.0216 0.0104,0.0259 0.009,0.0567 -0.003,0.0687 -0.0119,0.0119 -0.0204,-0.009 -0.0188,-0.047 z m -49.568,-0.58801 c 0,-0.0493 0.008,-0.0694 0.0181,-0.0448 0.01,0.0246 0.01,0.0649 0,0.0895 -0.01,0.0246 -0.0181,0.004 -0.0181,-0.0448 z m 49.60382,-0.0209 c 0.002,-0.0417 0.0102,-0.0502 0.0216,-0.0216 0.0104,0.0259 0.009,0.0567 -0.003,0.0687 -0.0119,0.0119 -0.0204,-0.009 -0.0188,-0.047 z m -49.63162,-1.46551 c 7e-5,-0.23639 0.006,-0.32844 0.0129,-0.20455 0.007,0.1239 0.007,0.31731 -1.4e-4,0.42981 -0.007,0.1125 -0.0128,0.0111 -0.0128,-0.22526 z m 3.5098,0 c 7e-5,-0.21669 0.006,-0.30072 0.0131,-0.18673 0.007,0.11399 0.007,0.29128 -1.5e-4,0.39398 -0.007,0.10271 -0.013,0.009 -0.013,-0.20725 z m 46.16821,0 c 0,-0.21669 0.006,-0.30072 0.0131,-0.18673 0.007,0.11399 0.007,0.29128 0,0.39398 -0.007,0.10271 -0.013,0.009 -0.013,-0.20725 z m -3.51056,-0.0179 c 0,-0.18714 0.006,-0.2637 0.0134,-0.17013 0.007,0.0936 0.007,0.24669 0,0.34026 -0.007,0.0936 -0.0134,0.017 -0.0134,-0.17013 z m -24.3182,-1.19092 -0.0682,-0.0806 0.0806,0.0682 c 0.0757,0.0641 0.0969,0.093 0.0682,0.093 -0.007,0 -0.0431,-0.0363 -0.0806,-0.0806 z m 5.89531,0.0671 c 0,-0.007 0.0282,-0.0357 0.0627,-0.0627 0.0568,-0.0446 0.0581,-0.0433 0.0135,0.0135 -0.0468,0.0597 -0.0762,0.0786 -0.0762,0.0492 z m 18.37698,-0.11482 c 0.002,-0.0417 0.0102,-0.0502 0.0217,-0.0216 0.0103,0.0258 0.009,0.0567 -0.003,0.0686 -0.0119,0.0119 -0.0204,-0.009 -0.0188,-0.047 z m -46.09657,-0.10746 c 0.002,-0.0417 0.0102,-0.0502 0.0216,-0.0216 0.0104,0.0258 0.009,0.0567 -0.003,0.0686 -0.0119,0.0119 -0.0204,-0.009 -0.0188,-0.047 z m 24.67243,-1.9759 -0.0868,-0.0985 0.0985,0.0868 c 0.0542,0.0478 0.0985,0.0921 0.0985,0.0985 0,0.0281 -0.029,0.005 -0.11016,-0.0868 z m 0.21761,0.0491 c 0,-0.007 0.0282,-0.0356 0.0627,-0.0627 0.0568,-0.0446 0.0581,-0.0433 0.0135,0.0135 -0.0468,0.0597 -0.0762,0.0786 -0.0762,0.0491 z m -19.44867,-3.93988 c 0,-0.007 0.0282,-0.0356 0.0627,-0.0627 0.0568,-0.0446 0.0581,-0.0433 0.0135,0.0135 -0.0468,0.0597 -0.0762,0.0786 -0.0762,0.0492 z m 38.49878,-0.22824 c -0.0445,-0.0568 -0.0433,-0.0581 0.0135,-0.0135 0.0597,0.0468 0.0786,0.0762 0.0491,0.0762 -0.007,0 -0.0356,-0.0282 -0.0627,-0.0627 z m -35.39165,-1.143 c 0.0246,-0.01 0.0649,-0.01 0.0895,0 0.0246,0.01 0.004,0.0181 -0.0448,0.0181 -0.0493,0 -0.0694,-0.008 -0.0448,-0.0181 z m 0.39623,-7.5e-4 c 0.0258,-0.0103 0.0567,-0.009 0.0686,0.003 0.0119,0.0119 -0.009,0.0204 -0.047,0.0188 -0.0417,-0.002 -0.0502,-0.0102 -0.0216,-0.0216 z m 31.69811,0 c 0.0258,-0.0103 0.0567,-0.009 0.0686,0.003 0.0119,0.0119 -0.009,0.0204 -0.047,0.0188 -0.0417,-0.002 -0.0502,-0.0102 -0.0216,-0.0216 z m 0.35593,7.5e-4 c 0.0246,-0.01 0.0649,-0.01 0.0895,0 0.0246,0.01 0.004,0.0181 -0.0448,0.0181 -0.0493,0 -0.0694,-0.008 -0.0448,-0.0181 z"
         id="path1073" />
      <path
         style="fill:#9442ef;fill-opacity:1;stroke-width:0.0358171"
         d="m 139.40166,170.91812 c 0.0259,-0.0103 0.0567,-0.009 0.0687,0.003 0.0119,0.0119 -0.009,0.0204 -0.047,0.0188 -0.0417,-0.002 -0.0502,-0.0102 -0.0216,-0.0216 z m 0.57307,0 c 0.0259,-0.0103 0.0567,-0.009 0.0687,0.003 0.0119,0.0119 -0.009,0.0204 -0.047,0.0188 -0.0417,-0.002 -0.0502,-0.0102 -0.0216,-0.0216 z m 31.55484,0 c 0.0259,-0.0103 0.0567,-0.009 0.0686,0.003 0.0119,0.0119 -0.009,0.0204 -0.047,0.0188 -0.0417,-0.002 -0.0502,-0.0102 -0.0216,-0.0216 z m 0.57308,0 c 0.0258,-0.0103 0.0567,-0.009 0.0686,0.003 0.0119,0.0119 -0.009,0.0204 -0.047,0.0188 -0.0417,-0.002 -0.0502,-0.0102 -0.0216,-0.0216 z m -37.63421,-7.23148 c 0.002,-0.0417 0.0102,-0.0502 0.0216,-0.0216 0.0103,0.0259 0.009,0.0567 -0.003,0.0687 -0.0119,0.0119 -0.0204,-0.009 -0.0188,-0.047 z m 18.19225,-0.0284 c 0,-0.007 0.0282,-0.0357 0.0627,-0.0627 0.0568,-0.0445 0.0581,-0.0433 0.0135,0.0135 -0.0468,0.0597 -0.0762,0.0786 -0.0762,0.0492 z m -21.70232,-0.079 c 0.002,-0.0417 0.0102,-0.0502 0.0216,-0.0216 0.0104,0.0259 0.009,0.0567 -0.003,0.0687 -0.0119,0.0119 -0.0204,-0.009 -0.0188,-0.047 z m 27.82247,-0.006 c -0.0446,-0.0568 -0.0433,-0.0581 0.0135,-0.0135 0.0345,0.027 0.0627,0.0552 0.0627,0.0627 0,0.0295 -0.0294,0.0105 -0.0762,-0.0492 z m 21.78418,0.006 c 0.002,-0.0417 0.0102,-0.0502 0.0216,-0.0216 0.0104,0.0259 0.009,0.0567 -0.003,0.0687 -0.0119,0.0119 -0.0204,-0.009 -0.0188,-0.047 z m -46.12691,-0.76708 c 0,-0.069 0.007,-0.0971 0.0164,-0.0627 0.009,0.0345 0.009,0.0909 0,0.12536 -0.009,0.0345 -0.0164,0.006 -0.0164,-0.0627 z m 42.65814,-0.0358 c 0,-0.0689 0.007,-0.0971 0.0164,-0.0627 0.009,0.0345 0.009,0.0909 0,0.12536 -0.009,0.0345 -0.0164,0.006 -0.0164,-0.0627 z m 0.001,-0.89542 c 0,-0.0887 0.007,-0.12492 0.0155,-0.0806 0.009,0.0443 0.009,0.11685 0,0.16117 -0.009,0.0443 -0.0155,0.008 -0.0155,-0.0806 z m -42.65886,-0.0537 c 4e-4,-0.0788 0.008,-0.10682 0.0163,-0.0623 0.009,0.0445 0.008,0.10902 -7.3e-4,0.14327 -0.009,0.0342 -0.016,-0.002 -0.0156,-0.081 z m 46.12903,-0.8417 c 0,-0.0493 0.008,-0.0694 0.0181,-0.0448 0.01,0.0246 0.01,0.0649 0,0.0895 -0.01,0.0246 -0.0181,0.004 -0.0181,-0.0448 z m -49.60948,-0.0209 c 0.002,-0.0417 0.0102,-0.0502 0.0216,-0.0216 0.0104,0.0258 0.009,0.0567 -0.003,0.0686 -0.0119,0.0119 -0.0204,-0.009 -0.0188,-0.047 z m 46.09657,-0.10745 c 0.002,-0.0417 0.0102,-0.0502 0.0217,-0.0216 0.0103,0.0258 0.009,0.0567 -0.003,0.0686 -0.0119,0.0119 -0.0204,-0.009 -0.0188,-0.047 z m -46.06075,-0.53726 c 0.002,-0.0417 0.0102,-0.0502 0.0216,-0.0216 0.0103,0.0259 0.009,0.0567 -0.003,0.0686 -0.0119,0.0119 -0.0204,-0.009 -0.0188,-0.047 z m 49.53501,0 c 0.002,-0.0417 0.0102,-0.0502 0.0216,-0.0216 0.0104,0.0259 0.009,0.0567 -0.003,0.0686 -0.0119,0.0119 -0.0204,-0.009 -0.0188,-0.047 z m -27.28648,-5.37636 c 0.0345,-0.009 0.0909,-0.009 0.12536,0 0.0345,0.009 0.006,0.0164 -0.0627,0.0164 -0.069,0 -0.0972,-0.007 -0.0627,-0.0164 z m 4.94275,0 c 0.0345,-0.009 0.0909,-0.009 0.12536,0 0.0345,0.009 0.006,0.0164 -0.0627,0.0164 -0.0689,0 -0.0971,-0.007 -0.0627,-0.0164 z m -6.14262,-0.0349 c 0.0246,-0.01 0.0649,-0.01 0.0895,0 0.0246,0.01 0.004,0.0181 -0.0448,0.0181 -0.0493,0 -0.0694,-0.008 -0.0448,-0.0181 z m 7.37831,0 c 0.0246,-0.01 0.0649,-0.01 0.0896,0 0.0246,0.01 0.004,0.0181 -0.0448,0.0181 -0.0492,0 -0.0694,-0.008 -0.0448,-0.0181 z m -8.23792,-0.0358 c 0.0246,-0.01 0.0649,-0.01 0.0895,0 0.0246,0.01 0.004,0.0181 -0.0448,0.0181 -0.0493,0 -0.0694,-0.008 -0.0448,-0.0181 z m 9.15194,-0.001 c 0.0349,-0.009 0.0832,-0.008 0.10745,0.001 0.0242,0.01 -0.004,0.0172 -0.0634,0.0165 -0.0591,-7.1e-4 -0.0789,-0.009 -0.0441,-0.0178 z m -5.4986,-3.4042 c 0.10342,-0.007 0.27266,-0.007 0.37608,0 0.10342,0.007 0.0188,0.0131 -0.18804,0.0131 -0.20685,0 -0.29146,-0.006 -0.18804,-0.0131 z m 1.50431,0 c 0.10343,-0.007 0.27266,-0.007 0.37608,0 0.10343,0.007 0.0188,0.0131 -0.18804,0.0131 -0.20684,0 -0.29146,-0.006 -0.18804,-0.0131 z m -3.45634,-0.0341 c 0.0345,-0.009 0.0909,-0.009 0.12536,0 0.0345,0.009 0.006,0.0164 -0.0627,0.0164 -0.069,0 -0.0972,-0.007 -0.0627,-0.0164 z m 5.6591,0 c 0.0345,-0.009 0.0909,-0.009 0.12535,0 0.0345,0.009 0.006,0.0164 -0.0627,0.0164 -0.0689,0 -0.0971,-0.007 -0.0627,-0.0164 z m -6.67765,-0.0356 c 0.0259,-0.0103 0.0567,-0.009 0.0686,0.003 0.0119,0.0119 -0.009,0.0204 -0.047,0.0188 -0.0417,-0.002 -0.0502,-0.0102 -0.0216,-0.0216 z m 7.7723,0 c 0.0259,-0.0103 0.0568,-0.009 0.0687,0.003 0.0119,0.0119 -0.009,0.0204 -0.047,0.0188 -0.0417,-0.002 -0.0502,-0.0102 -0.0217,-0.0216 z m -8.59609,-0.0358 c 0.0258,-0.0103 0.0567,-0.009 0.0686,0.003 0.0119,0.0119 -0.009,0.0204 -0.047,0.0188 -0.0417,-0.002 -0.0502,-0.0102 -0.0216,-0.0216 z m 9.41989,0 c 0.0259,-0.0103 0.0567,-0.009 0.0687,0.003 0.0119,0.0119 -0.009,0.0204 -0.047,0.0188 -0.0417,-0.002 -0.0502,-0.0102 -0.0216,-0.0216 z m -10.10042,-0.0358 c 0.0259,-0.0103 0.0567,-0.009 0.0686,0.003 0.0119,0.0119 -0.009,0.0204 -0.047,0.0188 -0.0417,-0.002 -0.0502,-0.0102 -0.0216,-0.0216 z m 10.81676,0 c 0.0258,-0.0103 0.0567,-0.009 0.0686,0.003 0.0119,0.0119 -0.009,0.0204 -0.047,0.0188 -0.0417,-0.002 -0.0502,-0.0102 -0.0216,-0.0216 z m -12.50016,-0.10745 c 0.0258,-0.0103 0.0567,-0.009 0.0686,0.003 0.0119,0.0119 -0.009,0.0204 -0.047,0.0188 -0.0417,-0.002 -0.0502,-0.0102 -0.0216,-0.0216 z m 14.18356,0 c 0.0259,-0.0103 0.0567,-0.009 0.0686,0.003 0.0119,0.0119 -0.009,0.0204 -0.047,0.0188 -0.0417,-0.002 -0.0502,-0.0102 -0.0216,-0.0216 z m 29.84234,-5.93468 c 0,-0.007 0.0282,-0.0357 0.0627,-0.0627 0.0568,-0.0446 0.0581,-0.0433 0.0135,0.0135 -0.0468,0.0597 -0.0762,0.0786 -0.0762,0.0492 z m -41.8031,-1.48184 c -0.0446,-0.0568 -0.0433,-0.0581 0.0135,-0.0135 0.0345,0.027 0.0627,0.0553 0.0627,0.0627 0,0.0295 -0.0294,0.0105 -0.0762,-0.0491 z m -35.37987,-4.79352 c 0.002,-0.0417 0.0102,-0.0502 0.0216,-0.0216 0.0104,0.0259 0.009,0.0567 -0.003,0.0686 -0.0119,0.0119 -0.0204,-0.009 -0.0188,-0.047 z m 80.48097,0 c 0.002,-0.0417 0.0102,-0.0502 0.0216,-0.0216 0.0103,0.0259 0.009,0.0567 -0.003,0.0686 -0.0119,0.0119 -0.0204,-0.009 -0.0188,-0.047 z m -80.48097,-0.96706 c 0.002,-0.0417 0.0102,-0.0502 0.0216,-0.0216 0.0104,0.0258 0.009,0.0567 -0.003,0.0686 -0.0119,0.0119 -0.0204,-0.009 -0.0188,-0.047 z m 80.48097,0 c 0.002,-0.0417 0.0102,-0.0502 0.0216,-0.0216 0.0103,0.0258 0.009,0.0567 -0.003,0.0686 -0.0119,0.0119 -0.0204,-0.009 -0.0188,-0.047 z M 121.0696,134.4631 c 0.0463,-0.0493 0.0922,-0.0896 0.10203,-0.0896 0.01,0 -0.02,0.0403 -0.0662,0.0896 -0.0463,0.0492 -0.0922,0.0895 -0.10203,0.0895 -0.01,0 0.0199,-0.0403 0.0662,-0.0895 z m 69.3731,-0.009 c -0.0445,-0.0568 -0.0433,-0.0581 0.0135,-0.0135 0.0345,0.027 0.0627,0.0552 0.0627,0.0627 0,0.0295 -0.0294,0.0105 -0.0762,-0.0492 z m 2.2923,-2.65046 c -0.0446,-0.0568 -0.0433,-0.0581 0.0135,-0.0135 0.0345,0.027 0.0627,0.0552 0.0627,0.0627 0,0.0295 -0.0294,0.0105 -0.0762,-0.0492 z m -29.87359,-5.97906 c 0.0259,-0.0103 0.0567,-0.009 0.0686,0.003 0.0119,0.0119 -0.009,0.0204 -0.047,0.0188 -0.0417,-0.002 -0.0502,-0.0102 -0.0216,-0.0216 z m -13.14487,-0.0716 c 0.0259,-0.0104 0.0567,-0.009 0.0686,0.003 0.0119,0.0119 -0.009,0.0204 -0.047,0.0188 -0.0417,-0.002 -0.0502,-0.0102 -0.0216,-0.0216 z m 12.07036,0 c 0.0259,-0.0104 0.0567,-0.009 0.0686,0.003 0.0119,0.0119 -0.009,0.0204 -0.047,0.0188 -0.0417,-0.002 -0.0502,-0.0102 -0.0216,-0.0216 z m -11.42565,-0.0358 c 0.0259,-0.0103 0.0567,-0.009 0.0686,0.003 0.0119,0.0119 -0.009,0.0204 -0.047,0.0188 -0.0417,-0.002 -0.0502,-0.0102 -0.0216,-0.0216 z m 10.81452,7.5e-4 c 0.0246,-0.01 0.0649,-0.01 0.0895,0 0.0246,0.01 0.004,0.0181 -0.0448,0.0181 -0.0493,0 -0.0694,-0.008 -0.0448,-0.0181 z m -10.17205,-0.0358 c 0.0246,-0.01 0.0649,-0.01 0.0895,0 0.0246,0.01 0.004,0.0181 -0.0448,0.0181 -0.0493,0 -0.0694,-0.008 -0.0448,-0.0181 z m 9.45571,0 c 0.0246,-0.01 0.0649,-0.01 0.0895,0 0.0246,0.01 0.004,0.0181 -0.0448,0.0181 -0.0493,0 -0.0694,-0.008 -0.0448,-0.0181 z m -8.63192,-0.0358 c 0.0246,-0.01 0.0649,-0.01 0.0895,0 0.0246,0.01 0.004,0.0181 -0.0448,0.0181 -0.0492,0 -0.0694,-0.008 -0.0448,-0.0181 z m 7.80813,0 c 0.0246,-0.01 0.0649,-0.01 0.0895,0 0.0246,0.01 0.004,0.0181 -0.0448,0.0181 -0.0493,0 -0.0694,-0.008 -0.0448,-0.0181 z m -6.75152,-0.0368 c 0.0345,-0.009 0.0909,-0.009 0.12536,0 0.0345,0.009 0.006,0.0164 -0.0627,0.0164 -0.069,0 -0.0972,-0.007 -0.0627,-0.0164 z m 5.6591,0 c 0.0345,-0.009 0.0909,-0.009 0.12535,0 0.0345,0.009 0.006,0.0164 -0.0627,0.0164 -0.0689,0 -0.0971,-0.007 -0.0627,-0.0164 z m -3.74289,-0.0375 c 0.10342,-0.007 0.27266,-0.007 0.37608,0 0.10342,0.007 0.0188,0.0132 -0.18804,0.0132 -0.20684,0 -0.29146,-0.006 -0.18804,-0.0132 z m 1.54013,0 c 0.10343,-0.007 0.27266,-0.007 0.37608,0 0.10343,0.007 0.0188,0.0132 -0.18804,0.0132 -0.20684,0 -0.29146,-0.006 -0.18804,-0.0132 z m -5.15765,-3.39993 c 0.0246,-0.01 0.0649,-0.01 0.0895,0 0.0246,0.01 0.004,0.0181 -0.0448,0.0181 -0.0493,0 -0.0694,-0.008 -0.0448,-0.0181 z m 9.16917,0 c 0.0246,-0.01 0.0649,-0.01 0.0895,0 0.0246,0.01 0.004,0.0181 -0.0448,0.0181 -0.0493,0 -0.0694,-0.008 -0.0448,-0.0181 z m -8.30956,-0.0358 c 0.0246,-0.01 0.0649,-0.01 0.0895,0 0.0246,0.01 0.004,0.0181 -0.0448,0.0181 -0.0493,0 -0.0694,-0.008 -0.0448,-0.0181 z m 7.37831,0 c 0.0246,-0.01 0.0649,-0.01 0.0896,0 0.0246,0.01 0.004,0.0181 -0.0448,0.0181 -0.0492,0 -0.0694,-0.008 -0.0448,-0.0181 z m -6.21426,-0.0368 c 0.0345,-0.009 0.0909,-0.009 0.12536,0 0.0345,0.009 0.006,0.0164 -0.0627,0.0164 -0.069,0 -0.0971,-0.007 -0.0627,-0.0164 z m 5.01507,-1.4e-4 c 0.0349,-0.009 0.0832,-0.008 0.10745,10e-4 0.0242,0.01 -0.004,0.0172 -0.0634,0.0165 -0.0591,-7.3e-4 -0.0789,-0.009 -0.0441,-0.0178 z m -27.22778,-5.36862 c 0.002,-0.0417 0.0102,-0.0502 0.0216,-0.0216 0.0103,0.0259 0.009,0.0567 -0.003,0.0686 -0.0119,0.0119 -0.0204,-0.009 -0.0188,-0.047 z m 3.47425,-0.53726 c 0.002,-0.0417 0.0102,-0.0502 0.0216,-0.0216 0.0103,0.0259 0.009,0.0567 -0.003,0.0687 -0.0119,0.0119 -0.0204,-0.009 -0.0188,-0.047 z m 42.5865,0 c 0.002,-0.0417 0.0102,-0.0502 0.0217,-0.0216 0.0103,0.0259 0.009,0.0567 -0.003,0.0687 -0.0119,0.0119 -0.0204,-0.009 -0.0188,-0.047 z m -46.09657,-0.10745 c 0.002,-0.0417 0.0102,-0.0502 0.0216,-0.0216 0.0104,0.0259 0.009,0.0567 -0.003,0.0687 -0.0119,0.0119 -0.0204,-0.009 -0.0188,-0.047 z m 49.60948,-0.0149 c 0,-0.0493 0.008,-0.0694 0.0181,-0.0448 0.01,0.0246 0.01,0.0649 0,0.0895 -0.01,0.0246 -0.0181,0.004 -0.0181,-0.0448 z m -46.12902,-0.8417 c 4e-4,-0.0788 0.008,-0.10682 0.0163,-0.0623 0.009,0.0446 0.008,0.10902 -7.2e-4,0.14326 -0.009,0.0343 -0.016,-0.002 -0.0156,-0.081 z m 42.65886,-0.0537 c 0,-0.0887 0.007,-0.12491 0.0155,-0.0806 0.009,0.0443 0.009,0.11686 0,0.16118 -0.009,0.0443 -0.0155,0.008 -0.0155,-0.0806 z m -0.001,-0.89543 c 0,-0.0689 0.007,-0.0971 0.0164,-0.0627 0.009,0.0345 0.009,0.0909 0,0.12535 -0.009,0.0345 -0.0164,0.006 -0.0164,-0.0627 z m -42.65814,-0.0358 c 0,-0.0689 0.007,-0.0972 0.0164,-0.0627 0.009,0.0345 0.009,0.0909 0,0.12536 -0.009,0.0345 -0.0164,0.006 -0.0164,-0.0627 z m -3.47973,-0.77305 c 0.002,-0.0417 0.0102,-0.0502 0.0216,-0.0216 0.0104,0.0258 0.009,0.0567 -0.003,0.0686 -0.0119,0.0119 -0.0204,-0.009 -0.0188,-0.047 z m 49.60664,0 c 0.002,-0.0417 0.0102,-0.0502 0.0216,-0.0216 0.0103,0.0258 0.009,0.0567 -0.003,0.0686 -0.0119,0.0119 -0.0204,-0.009 -0.0188,-0.047 z m -21.77962,0.007 c 0,-0.007 0.0282,-0.0357 0.0627,-0.0627 0.0568,-0.0446 0.0581,-0.0433 0.0135,0.0135 -0.0468,0.0597 -0.0762,0.0786 -0.0762,0.0492 z m -24.31697,-0.11483 c 0.002,-0.0417 0.0102,-0.0502 0.0216,-0.0216 0.0103,0.0258 0.009,0.0567 -0.003,0.0686 -0.0119,0.0119 -0.0204,-0.009 -0.0188,-0.047 z m 21.27252,-1.85567 c 0,-0.008 0.025,-0.0237 0.0556,-0.0354 0.0319,-0.0122 0.0463,-0.006 0.0337,0.0141 -0.021,0.034 -0.0893,0.0503 -0.0893,0.0213 z m -16.3393,-5.38295 c 0.0259,-0.0103 0.0567,-0.009 0.0687,0.003 0.0119,0.0119 -0.009,0.0204 -0.047,0.0188 -0.0417,-0.002 -0.0502,-0.0102 -0.0216,-0.0216 z m 0.60889,0 c 0.0258,-0.0103 0.0567,-0.009 0.0686,0.003 0.0119,0.0119 -0.009,0.0204 -0.047,0.0188 -0.0417,-0.002 -0.0502,-0.0102 -0.0216,-0.0216 z m 31.48321,0 c 0.0258,-0.0103 0.0567,-0.009 0.0686,0.003 0.0119,0.0119 -0.009,0.0204 -0.047,0.0188 -0.0417,-0.002 -0.0502,-0.0102 -0.0216,-0.0216 z m 0.60889,0 c 0.0258,-0.0103 0.0567,-0.009 0.0686,0.003 0.0119,0.0119 -0.009,0.0204 -0.047,0.0188 -0.0417,-0.002 -0.0502,-0.0102 -0.0216,-0.0216 z"
         id="path1071" />
      <path
         style="fill:#9442ef;fill-opacity:1;stroke-width:0.0358171"
         d="m 140.08218,170.91812 c 0.0259,-0.0103 0.0567,-0.009 0.0687,0.003 0.0119,0.0119 -0.009,0.0204 -0.047,0.0188 -0.0417,-0.002 -0.0502,-0.0102 -0.0216,-0.0216 z m 31.33994,0 c 0.0259,-0.0103 0.0567,-0.009 0.0686,0.003 0.0119,0.0119 -0.009,0.0204 -0.047,0.0188 -0.0417,-0.002 -0.0502,-0.0102 -0.0216,-0.0216 z m -16.36169,-4.71691 c 0,-0.007 0.0282,-0.0356 0.0627,-0.0627 0.0568,-0.0446 0.0581,-0.0433 0.0135,0.0135 -0.0468,0.0597 -0.0762,0.0786 -0.0762,0.0492 z m 1.35648,-0.0492 c -0.0446,-0.0568 -0.0433,-0.0581 0.0135,-0.0135 0.0345,0.027 0.0627,0.0552 0.0627,0.0627 0,0.0295 -0.0294,0.0105 -0.0762,-0.0492 z m 2.47138,-2.47138 c -0.0446,-0.0568 -0.0433,-0.0581 0.0135,-0.0135 0.0597,0.0468 0.0786,0.0762 0.0492,0.0762 -0.007,0 -0.0356,-0.0282 -0.0627,-0.0627 z m 21.67673,-0.20893 c 0.002,-0.0417 0.0102,-0.0502 0.0216,-0.0216 0.0104,0.0259 0.009,0.0567 -0.003,0.0687 -0.0119,0.0119 -0.0204,-0.009 -0.0188,-0.047 z m -46.12824,-0.46264 c 7.3e-4,-0.0591 0.009,-0.0789 0.0178,-0.0441 0.009,0.0349 0.008,0.0832 -0.001,0.10745 -0.01,0.0243 -0.0172,-0.004 -0.0165,-0.0634 z m 42.65814,-0.0358 c 7.1e-4,-0.0591 0.009,-0.0789 0.0178,-0.0441 0.009,0.0348 0.008,0.0832 -0.001,0.10745 -0.01,0.0242 -0.0172,-0.004 -0.0165,-0.0634 z m 0.001,-1.34314 c 0,-0.0689 0.007,-0.0972 0.0164,-0.0627 0.009,0.0345 0.009,0.0909 0,0.12536 -0.009,0.0345 -0.0164,0.006 -0.0164,-0.0627 z m -42.65813,-0.0358 c 0,-0.069 0.007,-0.0972 0.0164,-0.0627 0.009,0.0345 0.009,0.0909 0,0.12536 -0.009,0.0345 -0.0164,0.006 -0.0164,-0.0627 z m 46.1269,-0.48651 c 0.002,-0.0417 0.0102,-0.0502 0.0216,-0.0216 0.0104,0.0259 0.009,0.0567 -0.003,0.0687 -0.0119,0.0119 -0.0204,-0.009 -0.0188,-0.047 z m -49.60664,-0.0358 c 0.002,-0.0417 0.0102,-0.0502 0.0216,-0.0216 0.0103,0.0258 0.009,0.0567 -0.003,0.0686 -0.0119,0.0119 -0.0204,-0.009 -0.0188,-0.047 z m 22.49993,-6.12865 c 0.0349,-0.009 0.0832,-0.008 0.10745,10e-4 0.0242,0.01 -0.004,0.0172 -0.0634,0.0165 -0.0591,-7.2e-4 -0.0789,-0.009 -0.0441,-0.0178 z m 4.54877,0 c 0.0349,-0.009 0.0832,-0.008 0.10745,10e-4 0.0242,0.01 -0.004,0.0172 -0.0634,0.0165 -0.0591,-7.2e-4 -0.0789,-0.009 -0.0441,-0.0178 z m -5.82096,-0.0347 c 0.0246,-0.01 0.0649,-0.01 0.0895,0 0.0246,0.01 0.004,0.0181 -0.0448,0.0181 -0.0493,0 -0.0694,-0.008 -0.0448,-0.0181 z m 7.09179,0 c 0.0246,-0.01 0.0649,-0.01 0.0895,0 0.0246,0.01 0.004,0.0181 -0.0448,0.0181 -0.0493,0 -0.0694,-0.008 -0.0448,-0.0181 z m -4.85273,-3.44042 c 0.0545,-0.008 0.13504,-0.008 0.17909,5e-4 0.044,0.009 -5e-4,0.0152 -0.099,0.015 -0.0985,-3.6e-4 -0.13454,-0.007 -0.0801,-0.0155 z m 2.54301,0 c 0.0545,-0.008 0.13504,-0.008 0.17909,5e-4 0.044,0.009 -5e-4,0.0152 -0.099,0.015 -0.0985,-3.6e-4 -0.13454,-0.007 -0.0801,-0.0155 z m -4.20675,-0.0346 c 0.0259,-0.0103 0.0567,-0.009 0.0687,0.003 0.0119,0.0119 -0.009,0.0204 -0.047,0.0188 -0.0417,-0.002 -0.0502,-0.0102 -0.0216,-0.0216 z m 5.98145,0 c 0.0258,-0.0103 0.0567,-0.009 0.0686,0.003 0.0119,0.0119 -0.009,0.0204 -0.047,0.0188 -0.0417,-0.002 -0.0502,-0.0102 -0.0216,-0.0216 z m -6.98433,-0.0358 c 0.0258,-0.0103 0.0567,-0.009 0.0686,0.003 0.0119,0.0119 -0.009,0.0204 -0.047,0.0188 -0.0417,-0.002 -0.0502,-0.0102 -0.0216,-0.0216 z m 7.98721,0 c 0.0259,-0.0103 0.0567,-0.009 0.0687,0.003 0.0119,0.0119 -0.009,0.0204 -0.047,0.0188 -0.0417,-0.002 -0.0502,-0.0102 -0.0216,-0.0216 z m -8.811,-0.0358 c 0.0258,-0.0103 0.0567,-0.009 0.0686,0.003 0.0119,0.0119 -0.009,0.0204 -0.047,0.0188 -0.0417,-0.002 -0.0502,-0.0102 -0.0216,-0.0216 z m 9.63479,0 c 0.0259,-0.0103 0.0567,-0.009 0.0687,0.003 0.0119,0.0119 -0.009,0.0204 -0.047,0.0188 -0.0417,-0.002 -0.0502,-0.0102 -0.0216,-0.0216 z m -42.04376,-6.37784 -0.19577,-0.20595 0.20595,0.19577 c 0.11327,0.10768 0.20595,0.20036 0.20595,0.20595 0,0.0266 -0.0343,-0.004 -0.21613,-0.19577 z m 74.46493,0.009 c 0.107,-0.10835 0.2026,-0.197 0.21245,-0.197 0.01,0 -0.0696,0.0887 -0.17664,0.197 -0.107,0.10834 -0.2026,0.19699 -0.21245,0.19699 -0.01,0 0.0696,-0.0887 0.17664,-0.19699 z m -32.32491,-1.23569 c 0.0357,-0.0394 0.0729,-0.0716 0.0827,-0.0716 0.01,0 -0.0113,0.0322 -0.0469,0.0716 -0.0357,0.0394 -0.0729,0.0716 -0.0827,0.0716 -0.01,0 0.0113,-0.0322 0.0469,-0.0716 z m -10.1229,-0.3134 c -0.0446,-0.0568 -0.0433,-0.0581 0.0135,-0.0135 0.0597,0.0468 0.0786,0.0762 0.0491,0.0762 -0.007,0 -0.0356,-0.0282 -0.0627,-0.0627 z m 10.39152,0.0491 c 0,-0.007 0.0282,-0.0356 0.0627,-0.0627 0.0568,-0.0445 0.0581,-0.0433 0.0135,0.0135 -0.0468,0.0597 -0.0762,0.0786 -0.0762,0.0491 z m -39.91925,-0.96249 -0.21378,-0.22385 0.22386,0.21378 c 0.20794,0.19858 0.24025,0.23393 0.21378,0.23393 -0.006,0 -0.10628,-0.10074 -0.22386,-0.22386 z m 69.48625,0.009 c 0.11696,-0.1182 0.22072,-0.21491 0.23057,-0.21491 0.01,0 -0.0778,0.0967 -0.19475,0.21491 -0.11697,0.11819 -0.22072,0.2149 -0.23057,0.2149 -0.01,0 0.0778,-0.0967 0.19475,-0.2149 z m -69.61048,-7.89767 c 0.0463,-0.0493 0.0922,-0.0895 0.10202,-0.0895 0.01,0 -0.0199,0.0403 -0.0662,0.0895 -0.0463,0.0493 -0.0922,0.0895 -0.10203,0.0895 -0.01,0 0.0199,-0.0403 0.0662,-0.0895 z m 69.71568,-0.0269 -0.1052,-0.11641 0.11641,0.1052 c 0.1085,0.0981 0.13287,0.12761 0.10519,0.12761 -0.006,0 -0.0585,-0.0524 -0.1164,-0.1164 z m -0.27095,-0.26863 c -0.0445,-0.0568 -0.0433,-0.0581 0.0135,-0.0135 0.0597,0.0468 0.0786,0.0762 0.0491,0.0762 -0.007,0 -0.0356,-0.0282 -0.0627,-0.0627 z m -39.82401,-0.703 c 0,-0.007 0.0282,-0.0356 0.0627,-0.0627 0.0568,-0.0446 0.0581,-0.0433 0.0135,0.0135 -0.0468,0.0597 -0.0762,0.0786 -0.0762,0.0492 z m 10.45401,-0.0492 c -0.0445,-0.0568 -0.0433,-0.0581 0.0135,-0.0135 0.0345,0.027 0.0627,0.0552 0.0627,0.0627 0,0.0295 -0.0294,0.0105 -0.0762,-0.0492 z m -10.16748,-0.23738 c 0,-0.007 0.0282,-0.0356 0.0627,-0.0627 0.0568,-0.0446 0.0581,-0.0433 0.0135,0.0135 -0.0468,0.0597 -0.0762,0.0786 -0.0762,0.0492 z m 9.84513,-0.085 c -0.0445,-0.0568 -0.0433,-0.0581 0.0135,-0.0135 0.0345,0.027 0.0627,0.0552 0.0627,0.0627 0,0.0295 -0.0294,0.0105 -0.0762,-0.0492 z m -42.0984,-1.22674 c 0.11696,-0.11819 0.22072,-0.2149 0.23057,-0.2149 0.01,0 -0.0778,0.0967 -0.19476,0.2149 -0.11696,0.1182 -0.22071,0.21491 -0.23056,0.21491 -0.01,0 0.0778,-0.0967 0.19475,-0.21491 z m 74.44456,0.009 -0.19577,-0.20595 0.20595,0.19577 c 0.19133,0.18188 0.22236,0.21613 0.19577,0.21613 -0.006,0 -0.0983,-0.0927 -0.20595,-0.20595 z m -41.26676,-6.40886 c 0.0259,-0.0104 0.0567,-0.009 0.0686,0.003 0.0119,0.0119 -0.009,0.0204 -0.047,0.0188 -0.0417,-0.002 -0.0502,-0.0102 -0.0216,-0.0216 z m 8.05884,0 c 0.0259,-0.0104 0.0568,-0.009 0.0687,0.003 0.0119,0.0119 -0.009,0.0204 -0.047,0.0188 -0.0417,-0.002 -0.0502,-0.0102 -0.0216,-0.0216 z m -7.0582,-0.0351 c 0.0246,-0.01 0.0649,-0.01 0.0895,0 0.0246,0.01 0.004,0.0181 -0.0448,0.0181 -0.0493,0 -0.0694,-0.008 -0.0448,-0.0181 z m 6.01727,0 c 0.0246,-0.01 0.0649,-0.01 0.0895,0 0.0246,0.01 0.004,0.0181 -0.0448,0.0181 -0.0493,0 -0.0694,-0.008 -0.0448,-0.0181 z m -4.35128,-0.0378 c 0.0544,-0.008 0.13503,-0.008 0.17908,4.9e-4 0.0441,0.009 -5e-4,0.0152 -0.099,0.015 -0.0985,-2.8e-4 -0.13454,-0.007 -0.0801,-0.0155 z m 2.57833,3e-5 c 0.0542,-0.008 0.14282,-0.008 0.197,0 0.0542,0.008 0.01,0.0149 -0.0985,0.0149 -0.10835,0 -0.15267,-0.007 -0.0985,-0.0149 z m -4.78158,-3.4365 c 0.0246,-0.01 0.0649,-0.01 0.0895,0 0.0246,0.01 0.004,0.0181 -0.0448,0.0181 -0.0493,0 -0.0694,-0.008 -0.0448,-0.0181 z m 7.09179,0 c 0.0246,-0.01 0.0649,-0.01 0.0895,0 0.0246,0.01 0.004,0.0181 -0.0448,0.0181 -0.0493,0 -0.0694,-0.008 -0.0448,-0.0181 z m -5.8561,-0.0368 c 0.0345,-0.009 0.0909,-0.009 0.12536,0 0.0345,0.009 0.006,0.0164 -0.0627,0.0164 -0.0689,0 -0.0971,-0.007 -0.0627,-0.0164 z m 4.58459,0 c 0.0345,-0.009 0.0909,-0.009 0.12536,0 0.0345,0.009 0.006,0.0164 -0.0627,0.0164 -0.069,0 -0.0972,-0.007 -0.0627,-0.0164 z m -27.04802,-6.12092 c 0.002,-0.0417 0.0102,-0.0502 0.0216,-0.0216 0.0104,0.0259 0.009,0.0568 -0.003,0.0687 -0.0119,0.0119 -0.0204,-0.009 -0.0188,-0.047 z m 49.60665,-0.0358 c 0.002,-0.0417 0.0102,-0.0502 0.0216,-0.0216 0.0104,0.0259 0.009,0.0568 -0.003,0.0687 -0.0119,0.0119 -0.0204,-0.009 -0.0188,-0.047 z m -46.12691,-0.48053 c 0,-0.069 0.007,-0.0972 0.0164,-0.0627 0.009,0.0345 0.009,0.0909 0,0.12536 -0.009,0.0345 -0.0164,0.006 -0.0164,-0.0627 z m 42.65814,-0.0358 c 0,-0.069 0.007,-0.0971 0.0164,-0.0627 0.009,0.0345 0.009,0.0909 0,0.12536 -0.009,0.0345 -0.0164,0.006 -0.0164,-0.0627 z m -0.001,-1.34314 c 7.2e-4,-0.0591 0.009,-0.0789 0.0178,-0.0441 0.009,0.0349 0.008,0.0832 -0.001,0.10745 -0.01,0.0243 -0.0172,-0.004 -0.0165,-0.0634 z m -42.65813,-0.0358 c 7.3e-4,-0.0591 0.009,-0.0789 0.0178,-0.0441 0.009,0.0349 0.008,0.0832 -0.001,0.10746 -0.01,0.0242 -0.0173,-0.004 -0.0165,-0.0634 z m 46.12823,-0.4686 c 0.002,-0.0417 0.0102,-0.0502 0.0216,-0.0216 0.0104,0.0258 0.009,0.0567 -0.003,0.0686 -0.0119,0.0119 -0.0204,-0.009 -0.0188,-0.047 z m -24.17935,-2.6431 c 0,-0.007 0.0282,-0.0356 0.0627,-0.0627 0.0568,-0.0446 0.0581,-0.0433 0.0135,0.0135 -0.0468,0.0597 -0.0762,0.0786 -0.0762,0.0492 z M 140.118,106.12503 c 0.0258,-0.0103 0.0567,-0.009 0.0686,0.003 0.0119,0.0119 -0.009,0.0204 -0.047,0.0188 -0.0417,-0.002 -0.0502,-0.0102 -0.0216,-0.0216 z m 31.2683,0 c 0.0259,-0.0103 0.0567,-0.009 0.0687,0.003 0.0119,0.0119 -0.009,0.0204 -0.047,0.0188 -0.0417,-0.002 -0.0502,-0.0102 -0.0216,-0.0216 z"
         id="path1069" />
      <path
         style="fill:#9442ef;fill-opacity:1;stroke-width:0.0358171"
         d="m 134.0526,172.15141 -0.21378,-0.22385 0.22385,0.21378 c 0.20795,0.19858 0.24025,0.23393 0.21379,0.23393 -0.006,0 -0.10628,-0.10074 -0.22386,-0.22386 z m 43.39351,0.0269 c 0.107,-0.10835 0.2026,-0.197 0.21245,-0.197 0.01,0 -0.0696,0.0887 -0.17664,0.197 -0.107,0.10834 -0.2026,0.19699 -0.21245,0.19699 -0.01,0 0.0696,-0.0887 0.17664,-0.19699 z m -23.20947,-5.22491 c 0,-0.007 0.0282,-0.0357 0.0627,-0.0627 0.0568,-0.0446 0.0581,-0.0433 0.0135,0.0135 -0.0468,0.0597 -0.0762,0.0786 -0.0762,0.0492 z m 3.00407,-0.0492 c -0.0446,-0.0568 -0.0433,-0.0581 0.0135,-0.0135 0.0345,0.027 0.0627,0.0552 0.0627,0.0627 0,0.0295 -0.0294,0.0105 -0.0762,-0.0492 z m -2.55635,-0.36712 c 0.0357,-0.0394 0.0729,-0.0716 0.0827,-0.0716 0.01,0 -0.0113,0.0322 -0.0469,0.0716 -0.0357,0.0394 -0.0729,0.0716 -0.0827,0.0716 -0.01,0 0.0113,-0.0322 0.0469,-0.0716 z m 2.14562,-0.009 -0.0682,-0.0806 0.0806,0.0682 c 0.0757,0.0641 0.0969,0.093 0.0682,0.093 -0.007,0 -0.0431,-0.0363 -0.0806,-0.0806 z m -1.66209,-0.43206 c 0,-0.006 0.0524,-0.0585 0.1164,-0.1164 l 0.11641,-0.1052 -0.1052,0.11641 c -0.0981,0.1085 -0.12761,0.13287 -0.12761,0.10519 z m 1.09016,-0.10519 -0.10519,-0.11641 0.1164,0.1052 c 0.064,0.0579 0.11641,0.11024 0.11641,0.1164 0,0.0277 -0.0296,0.003 -0.12762,-0.10519 z m -4.92259,-1.1149 c 0,-0.007 0.0282,-0.0357 0.0627,-0.0627 0.0568,-0.0445 0.0581,-0.0433 0.0135,0.0135 -0.0468,0.0597 -0.0762,0.0786 -0.0762,0.0492 z m 8.80643,-0.0492 c -0.0445,-0.0568 -0.0433,-0.0581 0.0135,-0.0135 0.0597,0.0468 0.0786,0.0762 0.0492,0.0762 -0.007,0 -0.0356,-0.0282 -0.0627,-0.0627 z m -8.12591,-0.55973 c 0,-0.007 0.0282,-0.0357 0.0627,-0.0627 0.0568,-0.0445 0.0581,-0.0433 0.0135,0.0135 -0.0468,0.0597 -0.0762,0.0786 -0.0762,0.0492 z m 7.44538,-0.0492 c -0.0445,-0.0568 -0.0433,-0.0581 0.0135,-0.0135 0.0597,0.0468 0.0786,0.0762 0.0492,0.0762 -0.007,0 -0.0356,-0.0282 -0.0627,-0.0627 z m -24.99292,-0.38802 c 0.002,-0.0417 0.0102,-0.0502 0.0216,-0.0216 0.0103,0.0259 0.009,0.0567 -0.003,0.0687 -0.0119,0.0119 -0.0204,-0.009 -0.0188,-0.047 z m 18.03107,-0.0149 c 0.0357,-0.0394 0.0729,-0.0716 0.0827,-0.0716 0.01,0 -0.0113,0.0322 -0.0469,0.0716 -0.0357,0.0394 -0.0729,0.0716 -0.0827,0.0716 -0.01,0 0.0113,-0.0322 0.0469,-0.0716 z m 6.49623,-0.0269 c -0.0446,-0.0568 -0.0433,-0.0581 0.0135,-0.0135 0.0597,0.0468 0.0786,0.0762 0.0492,0.0762 -0.007,0 -0.0356,-0.0282 -0.0627,-0.0627 z m -28.03454,-0.40295 c 0,-0.0493 0.008,-0.0694 0.0181,-0.0448 0.01,0.0246 0.01,0.0649 0,0.0895 -0.01,0.0246 -0.0181,0.004 -0.0181,-0.0448 z m 49.60382,-0.0209 c 0.002,-0.0417 0.0102,-0.0502 0.0216,-0.0216 0.0104,0.0259 0.009,0.0568 -0.003,0.0687 -0.0119,0.0119 -0.0204,-0.009 -0.0188,-0.047 z m -27.36707,-0.21192 c 0.0668,-0.069 0.12956,-0.12536 0.13941,-0.12536 0.01,0 -0.0368,0.0564 -0.1036,0.12536 -0.0668,0.069 -0.12956,0.12536 -0.13941,0.12536 -0.01,0 0.0368,-0.0564 0.1036,-0.12536 z m -18.7625,0.0179 c 0,-0.0493 0.008,-0.0694 0.0181,-0.0448 0.01,0.0246 0.01,0.0649 0,0.0895 -0.01,0.0246 -0.0181,0.004 -0.0181,-0.0448 z m 23.86418,-0.0448 -0.1052,-0.11641 0.1164,0.1052 c 0.064,0.0579 0.11641,0.11024 0.11641,0.11641 0,0.0277 -0.0296,0.003 -0.12761,-0.1052 z m 18.79529,0.0269 c 7.1e-4,-0.0591 0.009,-0.0789 0.0178,-0.0441 0.009,0.0349 0.008,0.0832 -0.001,0.10745 -0.01,0.0242 -0.0172,-0.004 -0.0165,-0.0634 z m -24.08063,-0.47457 c -0.0445,-0.0568 -0.0433,-0.0581 0.0135,-0.0135 0.0345,0.027 0.0627,0.0553 0.0627,0.0627 0,0.0295 -0.0294,0.0105 -0.0762,-0.0491 z m 5.44877,0.0491 c 0,-0.007 0.0282,-0.0356 0.0627,-0.0627 0.0568,-0.0445 0.0581,-0.0433 0.0135,0.0135 -0.0468,0.0597 -0.0762,0.0786 -0.0762,0.0491 z m -5.77112,-0.40732 c -0.0445,-0.0568 -0.0433,-0.0581 0.0135,-0.0135 0.0345,0.027 0.0627,0.0553 0.0627,0.0627 0,0.0295 -0.0294,0.0105 -0.0762,-0.0491 z m 6.09347,0.0491 c 0,-0.007 0.0282,-0.0356 0.0627,-0.0627 0.0568,-0.0445 0.0581,-0.0433 0.0135,0.0135 -0.0468,0.0597 -0.0762,0.0786 -0.0762,0.0491 z m 0.32235,-0.35817 c 0,-0.007 0.0282,-0.0356 0.0627,-0.0627 0.0568,-0.0446 0.0581,-0.0433 0.0135,0.0135 -0.0468,0.0597 -0.0762,0.0786 -0.0762,0.0492 z m 17.98583,-0.55955 c 0,-0.0493 0.008,-0.0694 0.0181,-0.0448 0.01,0.0246 0.01,0.0649 0,0.0895 -0.01,0.0246 -0.0181,0.004 -0.0181,-0.0448 z m -42.65814,-0.0358 c 0,-0.0492 0.008,-0.0694 0.0181,-0.0448 0.01,0.0246 0.01,0.0649 0,0.0895 -0.01,0.0246 -0.0181,0.004 -0.0181,-0.0448 z m 46.1324,-0.17908 c 0,-0.0493 0.008,-0.0694 0.0181,-0.0448 0.01,0.0246 0.01,0.0649 0,0.0895 -0.01,0.0246 -0.0181,0.004 -0.0181,-0.0448 z m -49.60665,-0.0358 c 0,-0.0493 0.008,-0.0694 0.0181,-0.0448 0.01,0.0246 0.01,0.0649 0,0.0895 -0.01,0.0246 -0.0181,0.004 -0.0181,-0.0448 z m 3.50724,-0.52233 c 0.002,-0.0417 0.0102,-0.0502 0.0216,-0.0216 0.0103,0.0259 0.009,0.0567 -0.003,0.0686 -0.0119,0.0119 -0.0204,-0.009 -0.0188,-0.047 z m 42.5865,0 c 0.002,-0.0417 0.0102,-0.0502 0.0217,-0.0216 0.0103,0.0259 0.009,0.0567 -0.003,0.0686 -0.0119,0.0119 -0.0204,-0.009 -0.0188,-0.047 z m 3.47426,-0.17908 c 0.002,-0.0417 0.0102,-0.0502 0.0216,-0.0216 0.0104,0.0259 0.009,0.0567 -0.003,0.0687 -0.0119,0.0119 -0.0204,-0.009 -0.0188,-0.047 z m -24.80141,-0.007 c -0.01,-0.0155 0.0125,-0.0282 0.049,-0.0282 0.0365,0 0.0585,0.0127 0.049,0.0282 -0.01,0.0155 -0.0316,0.0281 -0.049,0.0281 -0.0174,0 -0.0394,-0.0127 -0.049,-0.0281 z m -0.34957,-0.39271 c -0.0445,-0.0568 -0.0433,-0.0581 0.0135,-0.0135 0.0597,0.0468 0.0786,0.0762 0.0492,0.0762 -0.007,0 -0.0356,-0.0282 -0.0627,-0.0627 z m 0.72091,0.0491 c 0,-0.007 0.0282,-0.0356 0.0627,-0.0627 0.0568,-0.0446 0.0581,-0.0433 0.0135,0.0135 -0.0468,0.0597 -0.0762,0.0786 -0.0762,0.0491 z m -1.04327,-0.40732 c -0.0445,-0.0568 -0.0433,-0.0581 0.0135,-0.0135 0.0597,0.0468 0.0786,0.0762 0.0491,0.0762 -0.007,0 -0.0356,-0.0282 -0.0627,-0.0627 z m -0.28653,-0.32236 c -0.0445,-0.0568 -0.0433,-0.0581 0.0135,-0.0135 0.0345,0.027 0.0627,0.0552 0.0627,0.0627 0,0.0295 -0.0294,0.0105 -0.0762,-0.0492 z m -1.09681,-4.47592 c 0.0542,-0.008 0.14282,-0.008 0.197,0 0.0542,0.008 0.01,0.0149 -0.0985,0.0149 -0.10835,0 -0.15267,-0.007 -0.0985,-0.0149 z m 4.01152,0 c 0.0542,-0.008 0.14282,-0.008 0.19699,0 0.0542,0.008 0.01,0.0149 -0.0985,0.0149 -0.10834,0 -0.15267,-0.007 -0.0985,-0.0149 z m -5.33675,-0.0349 c 0.0345,-0.009 0.0909,-0.009 0.12536,0 0.0345,0.009 0.006,0.0164 -0.0627,0.0164 -0.069,0 -0.0971,-0.007 -0.0627,-0.0164 z m 6.73361,0 c 0.0345,-0.009 0.0909,-0.009 0.12536,0 0.0345,0.009 0.006,0.0164 -0.0627,0.0164 -0.0689,0 -0.0971,-0.007 -0.0627,-0.0164 z m -7.66417,-0.0359 c 0.0349,-0.009 0.0832,-0.008 0.10745,0.001 0.0242,0.01 -0.004,0.0172 -0.0634,0.0165 -0.0591,-7.1e-4 -0.0789,-0.009 -0.0441,-0.0178 z m 8.68496,0.001 c 0.0246,-0.01 0.0649,-0.01 0.0895,0 0.0246,0.01 0.004,0.0181 -0.0448,0.0181 -0.0493,0 -0.0694,-0.008 -0.0448,-0.0181 z m -6.14263,-3.405 c 0.0739,-0.008 0.19475,-0.008 0.26863,0 0.0739,0.008 0.0134,0.014 -0.13432,0.014 -0.14774,0 -0.20818,-0.006 -0.13431,-0.014 z m 3.3668,0 c 0.0739,-0.008 0.19476,-0.008 0.26863,0 0.0739,0.008 0.0134,0.014 -0.13431,0.014 -0.14775,0 -0.20819,-0.006 -0.13432,-0.014 z m -4.76367,-0.0344 c 0.0345,-0.009 0.0909,-0.009 0.12536,0 0.0345,0.009 0.006,0.0164 -0.0627,0.0164 -0.0689,0 -0.0971,-0.007 -0.0627,-0.0164 z m 6.30381,0 c 0.0345,-0.009 0.0909,-0.009 0.12536,0 0.0345,0.009 0.006,0.0164 -0.0627,0.0164 -0.069,0 -0.0972,-0.007 -0.0627,-0.0164 z m -7.27019,-0.036 c 0.0349,-0.009 0.0832,-0.008 0.10745,0.001 0.0243,0.01 -0.004,0.0172 -0.0634,0.0165 -0.0591,-7.2e-4 -0.0789,-0.009 -0.0441,-0.0178 z m 8.27375,0 c 0.0349,-0.009 0.0832,-0.008 0.10745,0.001 0.0242,0.01 -0.004,0.0172 -0.0634,0.0165 -0.0591,-7.2e-4 -0.0789,-0.009 -0.0441,-0.0178 z m -9.04226,-0.0355 c 0.0259,-0.0103 0.0567,-0.009 0.0686,0.003 0.0119,0.0119 -0.009,0.0204 -0.047,0.0188 -0.0417,-0.002 -0.0502,-0.0102 -0.0216,-0.0216 z m 9.8497,0 c 0.0259,-0.0103 0.0567,-0.009 0.0687,0.003 0.0119,0.0119 -0.009,0.0204 -0.047,0.0188 -0.0417,-0.002 -0.0502,-0.0102 -0.0216,-0.0216 z m -10.4944,-0.0358 c 0.0258,-0.0103 0.0567,-0.009 0.0686,0.003 0.0119,0.0119 -0.009,0.0204 -0.047,0.0188 -0.0417,-0.002 -0.0502,-0.0102 -0.0216,-0.0216 z m 11.17269,7.5e-4 c 0.0246,-0.01 0.0649,-0.01 0.0895,0 0.0246,0.01 0.004,0.0181 -0.0448,0.0181 -0.0493,0 -0.0694,-0.008 -0.0448,-0.0181 z m -11.78158,-0.0366 c 0.0258,-0.0103 0.0567,-0.009 0.0686,0.003 0.0119,0.0119 -0.009,0.0204 -0.047,0.0188 -0.0417,-0.002 -0.0502,-0.0102 -0.0216,-0.0216 z m 12.35689,0 c 0.0258,-0.0103 0.0567,-0.009 0.0686,0.003 0.0119,0.0119 -0.009,0.0204 -0.047,0.0188 -0.0417,-0.002 -0.0502,-0.0102 -0.0216,-0.0216 z m -12.92997,-0.0358 c 0.0259,-0.0103 0.0567,-0.009 0.0686,0.003 0.0119,0.0119 -0.009,0.0204 -0.047,0.0188 -0.0417,-0.002 -0.0502,-0.0102 -0.0216,-0.0216 z m 13.50304,0 c 0.0259,-0.0103 0.0567,-0.009 0.0686,0.003 0.0119,0.0119 -0.009,0.0204 -0.047,0.0188 -0.0417,-0.002 -0.0502,-0.0102 -0.0216,-0.0216 z m -13.96866,-0.0358 c 0.0259,-0.0103 0.0567,-0.009 0.0686,0.003 0.0119,0.0119 -0.009,0.0204 -0.047,0.0188 -0.0417,-0.002 -0.0502,-0.0102 -0.0216,-0.0216 z m 14.4701,0 c 0.0259,-0.0103 0.0567,-0.009 0.0686,0.003 0.0119,0.0119 -0.009,0.0204 -0.047,0.0188 -0.0417,-0.002 -0.0502,-0.0102 -0.0216,-0.0216 z m -43.90959,-5.69733 c -0.0445,-0.0568 -0.0433,-0.0581 0.0135,-0.0135 0.0597,0.0468 0.0786,0.0762 0.0491,0.0762 -0.007,0 -0.0356,-0.0282 -0.0627,-0.0627 z m 73.28631,0.0491 c 0,-0.007 0.0282,-0.0356 0.0627,-0.0627 0.0568,-0.0446 0.0581,-0.0433 0.0135,0.0135 -0.0468,0.0597 -0.0762,0.0786 -0.0762,0.0491 z m -74.36082,-1.12366 c -0.0446,-0.0568 -0.0433,-0.0581 0.0135,-0.0135 0.0597,0.0468 0.0786,0.0762 0.0492,0.0762 -0.007,0 -0.0356,-0.0282 -0.0627,-0.0627 z m 75.43533,0.0491 c 0,-0.007 0.0282,-0.0356 0.0627,-0.0627 0.0568,-0.0445 0.0581,-0.0433 0.0135,0.0135 -0.0468,0.0597 -0.0762,0.0786 -0.0762,0.0491 z m -42.7683,-0.90876 -0.0868,-0.0985 0.0985,0.0868 c 0.0542,0.0478 0.0985,0.0921 0.0985,0.0985 0,0.0281 -0.029,0.005 -0.11016,-0.0868 z m 10.13894,0.009 c 0.0463,-0.0493 0.0922,-0.0895 0.10203,-0.0895 0.01,0 -0.0199,0.0403 -0.0662,0.0895 -0.0463,0.0493 -0.0922,0.0895 -0.10203,0.0895 -0.01,0 0.0199,-0.0403 0.0662,-0.0895 z m -39.52754,-0.77902 -0.0682,-0.0806 0.0806,0.0682 c 0.0443,0.0375 0.0806,0.0738 0.0806,0.0806 0,0.0287 -0.0288,0.007 -0.0929,-0.0682 z m 68.91545,0.009 c 0.0357,-0.0394 0.0729,-0.0716 0.0827,-0.0716 0.01,0 -0.0113,0.0322 -0.0469,0.0716 -0.0357,0.0394 -0.0729,0.0716 -0.0827,0.0716 -0.01,0 0.0113,-0.0322 0.0469,-0.0716 z m -69.47178,-0.56412 c -0.0446,-0.0568 -0.0433,-0.0581 0.0135,-0.0135 0.0597,0.0468 0.0786,0.0762 0.0492,0.0762 -0.007,0 -0.0357,-0.0282 -0.0627,-0.0627 z m 69.99113,0.0492 c 0,-0.007 0.0282,-0.0356 0.0627,-0.0627 0.0568,-0.0445 0.0581,-0.0433 0.0135,0.0135 -0.0468,0.0597 -0.0762,0.0786 -0.0762,0.0492 z m -42.11805,-3.26672 c 0.002,-0.0417 0.0102,-0.0502 0.0216,-0.0216 0.0103,0.0258 0.009,0.0567 -0.003,0.0686 -0.0119,0.0119 -0.0204,-0.009 -0.0188,-0.047 z m -33.09082,-0.24774 c 7.3e-4,-0.0591 0.009,-0.0789 0.0178,-0.0441 0.009,0.0349 0.008,0.0832 -0.001,0.10745 -0.01,0.0242 -0.0172,-0.004 -0.0165,-0.0634 z m 80.48229,-0.0179 c 0,-0.0689 0.007,-0.0971 0.0164,-0.0627 0.009,0.0345 0.009,0.0909 0,0.12536 -0.009,0.0345 -0.0164,0.006 -0.0164,-0.0627 z m -77.00526,-0.25072 c 0,-0.0886 0.007,-0.12491 0.0155,-0.0806 0.009,0.0443 0.009,0.11685 0,0.16117 -0.009,0.0443 -0.0155,0.008 -0.0155,-0.0806 z m 73.53245,0 c 0,-0.0886 0.007,-0.12491 0.0155,-0.0806 0.009,0.0443 0.009,0.11685 0,0.16117 -0.009,0.0443 -0.0155,0.008 -0.0155,-0.0806 z m 3.47281,-0.25072 c 0,-0.0689 0.007,-0.0971 0.0164,-0.0627 0.009,0.0345 0.009,0.0909 0,0.12536 -0.009,0.0345 -0.0164,0.006 -0.0164,-0.0627 z m -80.48229,-0.0179 c 7.3e-4,-0.0591 0.009,-0.0789 0.0178,-0.0441 0.009,0.0349 0.008,0.0832 -0.001,0.10745 -0.01,0.0242 -0.0172,-0.004 -0.0165,-0.0634 z m 33.09082,-0.25371 c 0.002,-0.0417 0.0102,-0.0502 0.0216,-0.0216 0.0103,0.0259 0.009,0.0567 -0.003,0.0686 -0.0119,0.0119 -0.0204,-0.009 -0.0188,-0.047 z m -27.88642,-3.20264 c 0.0357,-0.0394 0.0729,-0.0716 0.0827,-0.0716 0.01,0 -0.0113,0.0322 -0.0469,0.0716 -0.0357,0.0394 -0.0729,0.0716 -0.0827,0.0716 -0.01,0 0.0113,-0.0322 0.0469,-0.0716 z m 70.05479,-0.009 -0.0682,-0.0806 0.0806,0.0682 c 0.0757,0.0641 0.0969,0.0929 0.0682,0.0929 -0.007,0 -0.0431,-0.0363 -0.0806,-0.0806 z m -69.48172,-0.56411 c 0.0357,-0.0394 0.0729,-0.0716 0.0827,-0.0716 0.01,0 -0.0113,0.0322 -0.0469,0.0716 -0.0357,0.0394 -0.0729,0.0716 -0.0827,0.0716 -0.01,0 0.0113,-0.0322 0.0469,-0.0716 z m 68.90865,-0.009 -0.0682,-0.0806 0.0806,0.0682 c 0.0757,0.0641 0.0969,0.093 0.0682,0.093 -0.007,0 -0.0431,-0.0363 -0.0806,-0.0806 z m -28.99509,-0.34026 c -0.0445,-0.0568 -0.0433,-0.0581 0.0135,-0.0135 0.0345,0.027 0.0627,0.0552 0.0627,0.0627 0,0.0295 -0.0294,0.0105 -0.0762,-0.0492 z m -10.52565,-0.42085 c 0.0463,-0.0492 0.0922,-0.0895 0.10203,-0.0895 0.01,0 -0.0199,0.0403 -0.0662,0.0895 -0.0463,0.0493 -0.0922,0.0895 -0.10203,0.0895 -0.01,0 0.0199,-0.0403 0.0662,-0.0895 z m 10.11607,-0.0269 -0.1052,-0.11641 0.11641,0.1052 c 0.10851,0.0981 0.13287,0.12761 0.1052,0.12761 -0.006,0 -0.0585,-0.0524 -0.11641,-0.1164 z m -42.81706,-0.79255 c 0,-0.007 0.0282,-0.0356 0.0627,-0.0627 0.0568,-0.0446 0.0581,-0.0433 0.0135,0.0135 -0.0468,0.0597 -0.0762,0.0786 -0.0762,0.0492 z m 75.49783,-0.0492 c -0.0446,-0.0568 -0.0433,-0.0581 0.0135,-0.0135 0.0345,0.027 0.0627,0.0552 0.0627,0.0627 0,0.0295 -0.0294,0.0105 -0.0762,-0.0492 z m -74.42332,-1.02535 c 0,-0.007 0.0282,-0.0356 0.0627,-0.0627 0.0568,-0.0446 0.0581,-0.0433 0.0135,0.0135 -0.0468,0.0597 -0.0762,0.0786 -0.0762,0.0492 z m 73.3488,-0.0492 c -0.0446,-0.0568 -0.0433,-0.0581 0.0135,-0.0135 0.0597,0.0468 0.0786,0.0762 0.0491,0.0762 -0.007,0 -0.0356,-0.0282 -0.0627,-0.0627 z m -37.18027,-0.14087 c 0.0259,-0.0103 0.0567,-0.009 0.0686,0.003 0.0119,0.0119 -0.009,0.0204 -0.047,0.0188 -0.0417,-0.002 -0.0502,-0.0102 -0.0216,-0.0216 z m 1.0387,0 c 0.0259,-0.0103 0.0567,-0.009 0.0686,0.003 0.0119,0.0119 -0.009,0.0204 -0.047,0.0188 -0.0417,-0.002 -0.0502,-0.0102 -0.0216,-0.0216 z m -7.73649,-5.55165 c 0.0259,-0.0103 0.0567,-0.009 0.0686,0.003 0.0119,0.0119 -0.009,0.0204 -0.047,0.0188 -0.0417,-0.002 -0.0502,-0.0102 -0.0216,-0.0216 z m 14.4701,0 c 0.0259,-0.0103 0.0567,-0.009 0.0686,0.003 0.0119,0.0119 -0.009,0.0204 -0.047,0.0188 -0.0417,-0.002 -0.0502,-0.0102 -0.0216,-0.0216 z m -14.00448,-0.0358 c 0.0259,-0.0104 0.0567,-0.009 0.0686,0.003 0.0119,0.0119 -0.009,0.0204 -0.047,0.0188 -0.0417,-0.002 -0.0502,-0.0102 -0.0216,-0.0216 z m 13.50304,0 c 0.0259,-0.0104 0.0567,-0.009 0.0686,0.003 0.0119,0.0119 -0.009,0.0204 -0.047,0.0188 -0.0417,-0.002 -0.0502,-0.0102 -0.0216,-0.0216 z m -12.35913,-0.0709 c 0.0246,-0.01 0.0649,-0.01 0.0895,0 0.0246,0.01 0.004,0.0181 -0.0448,0.0181 -0.0493,0 -0.0694,-0.008 -0.0448,-0.0181 z m 11.21075,0 c 0.0246,-0.01 0.0649,-0.01 0.0895,0 0.0246,0.01 0.004,0.0181 -0.0448,0.0181 -0.0493,0 -0.0694,-0.008 -0.0448,-0.0181 z m -10.56604,-0.0358 c 0.0246,-0.01 0.0649,-0.01 0.0895,0 0.0246,0.01 0.004,0.0181 -0.0448,0.0181 -0.0493,0 -0.0694,-0.008 -0.0448,-0.0181 z m 9.88551,0 c 0.0246,-0.01 0.0649,-0.01 0.0895,0 0.0246,0.01 0.004,0.0181 -0.0448,0.0181 -0.0493,0 -0.0694,-0.008 -0.0448,-0.0181 z m -9.09754,-0.0358 c 0.0246,-0.01 0.0649,-0.01 0.0896,0 0.0246,0.01 0.004,0.0181 -0.0448,0.0181 -0.0493,0 -0.0694,-0.008 -0.0448,-0.0181 z m 8.30957,0 c 0.0246,-0.01 0.0649,-0.01 0.0895,0 0.0246,0.01 0.004,0.0181 -0.0448,0.0181 -0.0493,0 -0.0694,-0.008 -0.0448,-0.0181 z m -7.32392,-0.0369 c 0.0349,-0.009 0.0832,-0.008 0.10746,0.001 0.0242,0.01 -0.004,0.0172 -0.0634,0.0165 -0.0591,-7.3e-4 -0.0789,-0.009 -0.0441,-0.0178 z m 6.33963,0 c 0.0349,-0.009 0.0832,-0.008 0.10745,0.001 0.0242,0.01 -0.004,0.0172 -0.0634,0.0165 -0.0591,-7.3e-4 -0.0789,-0.009 -0.0441,-0.0178 z m -4.96215,-0.0369 c 0.0636,-0.008 0.17641,-0.008 0.25072,-2.9e-4 0.0743,0.008 0.0223,0.0142 -0.11561,0.0144 -0.13789,1.4e-4 -0.19869,-0.006 -0.13511,-0.0141 z m 3.40262,0 c 0.0636,-0.008 0.17641,-0.008 0.25072,-2.9e-4 0.0743,0.008 0.0223,0.0142 -0.1156,0.0144 -0.1379,1.4e-4 -0.1987,-0.006 -0.13512,-0.0141 z m -5.94483,-3.40049 c 0.0246,-0.01 0.0649,-0.01 0.0895,0 0.0246,0.01 0.004,0.0181 -0.0448,0.0181 -0.0493,0 -0.0694,-0.008 -0.0448,-0.0181 z m 8.72214,-0.001 c 0.0349,-0.009 0.0832,-0.008 0.10745,0.001 0.0242,0.01 -0.004,0.0172 -0.0634,0.0165 -0.0591,-7.3e-4 -0.0789,-0.009 -0.0441,-0.0178 z m -7.77231,-0.0358 c 0.0349,-0.009 0.0832,-0.008 0.10745,10e-4 0.0242,0.01 -0.004,0.0172 -0.0634,0.0165 -0.0591,-7.3e-4 -0.0789,-0.009 -0.0441,-0.0178 z m 6.76943,0 c 0.0349,-0.009 0.0832,-0.008 0.10745,10e-4 0.0242,0.01 -0.004,0.0172 -0.0634,0.0165 -0.0591,-7.3e-4 -0.0789,-0.009 -0.0441,-0.0178 z m -5.44488,-0.0367 c 0.0542,-0.008 0.14282,-0.008 0.197,0 0.0542,0.008 0.01,0.0149 -0.0985,0.0149 -0.10835,0 -0.15267,-0.007 -0.0985,-0.0149 z m 4.01152,0 c 0.0542,-0.008 0.14282,-0.008 0.19699,0 0.0542,0.008 0.01,0.0149 -0.0985,0.0149 -0.10834,0 -0.15267,-0.007 -0.0985,-0.0149 z m -2.94596,-4.42919 c 0,-0.007 0.0282,-0.0356 0.0627,-0.0627 0.0568,-0.0446 0.0581,-0.0433 0.0135,0.0135 -0.0468,0.0597 -0.0762,0.0786 -0.0762,0.0492 z m 25.7553,-0.58044 c 0.002,-0.0417 0.0102,-0.0502 0.0216,-0.0216 0.0104,0.0259 0.009,0.0567 -0.003,0.0686 -0.0119,0.0119 -0.0204,-0.009 -0.0188,-0.047 z m -24.66439,-0.48299 c -0.013,-0.021 -0.0502,-0.0281 -0.0827,-0.0158 -0.0475,0.0181 -0.0502,0.0136 -0.014,-0.0229 0.0363,-0.0366 0.0569,-0.0335 0.10617,0.0158 0.0336,0.0336 0.0506,0.0611 0.0377,0.0611 -0.0129,0 -0.0341,-0.0172 -0.0471,-0.0383 z m 24.70021,-0.0543 c 0.002,-0.0417 0.0102,-0.0502 0.0216,-0.0216 0.0104,0.0259 0.009,0.0567 -0.003,0.0687 -0.0119,0.0119 -0.0204,-0.009 -0.0188,-0.047 z m -46.06076,-0.17908 c 0.002,-0.0417 0.0102,-0.0502 0.0216,-0.0216 0.0103,0.0258 0.009,0.0567 -0.003,0.0687 -0.0119,0.0119 -0.0204,-0.009 -0.0188,-0.047 z m -3.50724,-0.51636 c 0,-0.0493 0.008,-0.0694 0.0181,-0.0448 0.01,0.0246 0.01,0.0649 0,0.0896 -0.01,0.0246 -0.0181,0.004 -0.0181,-0.0448 z m 49.60665,-0.0358 c 0,-0.0493 0.008,-0.0694 0.0181,-0.0448 0.01,0.0246 0.01,0.0649 0,0.0895 -0.01,0.0246 -0.0181,0.004 -0.0181,-0.0448 z m -46.1324,-0.17909 c 0,-0.0492 0.008,-0.0694 0.0181,-0.0448 0.01,0.0246 0.01,0.0649 0,0.0896 -0.01,0.0246 -0.0181,0.004 -0.0181,-0.0448 z m 42.65814,-0.0358 c 0,-0.0493 0.008,-0.0694 0.0181,-0.0448 0.01,0.0246 0.01,0.0649 0,0.0895 -0.01,0.0246 -0.0181,0.004 -0.0181,-0.0448 z m -24.11055,-1.19549 c 0,-0.007 0.0282,-0.0356 0.0627,-0.0627 0.0568,-0.0446 0.0581,-0.0433 0.0135,0.0135 -0.0468,0.0597 -0.0762,0.0786 -0.0762,0.0492 z m 5.51126,-0.0492 c -0.0446,-0.0568 -0.0433,-0.0581 0.0135,-0.0135 0.0345,0.027 0.0627,0.0552 0.0627,0.0627 0,0.0295 -0.0294,0.0105 -0.0762,-0.0492 z m -5.29828,-0.46562 -0.12343,-0.13431 0.13431,0.12343 c 0.12502,0.11489 0.15078,0.1452 0.12343,0.1452 -0.006,0 -0.0664,-0.0604 -0.13431,-0.13432 z m 5.12377,0.009 c 0.0668,-0.0689 0.12956,-0.12536 0.13941,-0.12536 0.01,0 -0.0368,0.0564 -0.10359,0.12536 -0.0668,0.0689 -0.12957,0.12536 -0.13942,0.12536 -0.01,0 0.0368,-0.0564 0.1036,-0.12536 z m 18.77513,0 c 7.1e-4,-0.0591 0.009,-0.0789 0.0178,-0.0441 0.009,0.0348 0.008,0.0832 -0.001,0.10745 -0.01,0.0243 -0.0172,-0.004 -0.0165,-0.0634 z m -42.65947,-0.0179 c 0,-0.0493 0.008,-0.0694 0.0181,-0.0448 0.01,0.0246 0.01,0.0649 0,0.0895 -0.01,0.0246 -0.0181,0.004 -0.0181,-0.0448 z m -3.47425,-0.21491 c 0,-0.0492 0.008,-0.0694 0.0181,-0.0448 0.01,0.0246 0.01,0.0649 0,0.0896 -0.01,0.0246 -0.0181,0.004 -0.0181,-0.0448 z m 49.60382,0.0149 c 0.002,-0.0417 0.0102,-0.0502 0.0216,-0.0216 0.0104,0.0258 0.009,0.0567 -0.003,0.0686 -0.0119,0.0119 -0.0204,-0.009 -0.0188,-0.047 z m -28.06891,-0.45368 -0.0682,-0.0806 0.0806,0.0682 c 0.0757,0.0641 0.0969,0.0929 0.0682,0.0929 -0.007,0 -0.0431,-0.0363 -0.0806,-0.0806 z m 6.52211,0.009 c 0.0357,-0.0394 0.0729,-0.0716 0.0827,-0.0716 0.01,0 -0.0113,0.0322 -0.0469,0.0716 -0.0357,0.0394 -0.0729,0.0716 -0.0827,0.0716 -0.01,0 0.0113,-0.0322 0.0469,-0.0716 z m -24.54978,-0.0209 c 0.002,-0.0417 0.0102,-0.0502 0.0216,-0.0216 0.0103,0.0258 0.009,0.0567 -0.003,0.0686 -0.0119,0.0119 -0.0204,-0.009 -0.0188,-0.047 z m 17.57879,-0.39996 c -0.0446,-0.0568 -0.0433,-0.0581 0.0135,-0.0135 0.0597,0.0468 0.0786,0.0762 0.0492,0.0762 -0.007,0 -0.0356,-0.0282 -0.0627,-0.0627 z m -0.39399,-0.35817 c -0.0446,-0.0568 -0.0433,-0.0581 0.0135,-0.0135 0.0597,0.0468 0.0786,0.0762 0.0491,0.0762 -0.007,0 -0.0356,-0.0282 -0.0627,-0.0627 z m 8.17087,0.0492 c 0,-0.007 0.0282,-0.0357 0.0627,-0.0627 0.0568,-0.0446 0.0581,-0.0433 0.0135,0.0135 -0.0468,0.0597 -0.0762,0.0786 -0.0762,0.0492 z m -3.65335,-1.35874 c 0,-0.006 0.0524,-0.0585 0.11641,-0.1164 l 0.1164,-0.1052 -0.10519,0.1164 c -0.0981,0.10851 -0.12762,0.13287 -0.12762,0.1052 z m -0.9514,-0.14101 -0.1052,-0.11641 0.11641,0.1052 c 0.1085,0.0981 0.13287,0.12761 0.10519,0.12761 -0.006,0 -0.0585,-0.0524 -0.1164,-0.1164 z m 1.61402,-0.49249 c 0.0357,-0.0394 0.0729,-0.0716 0.0827,-0.0716 0.01,0 -0.0113,0.0322 -0.0469,0.0716 -0.0357,0.0394 -0.0729,0.0716 -0.0827,0.0716 -0.01,0 0.0113,-0.0322 0.0469,-0.0716 z m -2.1715,-0.0269 c -0.0445,-0.0568 -0.0433,-0.0581 0.0135,-0.0135 0.0597,0.0468 0.0786,0.0762 0.0492,0.0762 -0.007,0 -0.0357,-0.0282 -0.0627,-0.0627 z m -20.59025,-5.61433 c 0.12691,-0.12804 0.2388,-0.23281 0.24865,-0.23281 0.01,0 -0.0859,0.10477 -0.21283,0.23281 -0.12691,0.12805 -0.2388,0.23281 -0.24865,0.23281 -0.01,0 0.0859,-0.10476 0.21283,-0.23281 z m 43.39126,0.009 -0.21378,-0.22386 0.22386,0.21378 c 0.12312,0.11758 0.22386,0.21832 0.22386,0.22386 0,0.0265 -0.0353,-0.006 -0.23394,-0.21378 z"
         id="path1067" />
      <path
         style="fill:#9442ef;fill-opacity:1;stroke-width:0.0358171"
         d="m 138.0217,174.25708 c -1.18353,-0.24584 -2.19337,-0.69099 -3.11429,-1.3728 -0.41325,-0.30594 -1.2544,-1.15151 -1.58044,-1.58874 -2.4046,-3.22458 -2.99068,-8.61471 -1.7052,-15.68266 0.16395,-0.90149 0.46964,-2.33019 0.65931,-3.0815 0.0589,-0.23341 0.10706,-0.44547 0.10695,-0.47125 -1.1e-4,-0.0294 -0.18323,-0.0993 -0.49248,-0.18803 -3.15986,-0.90605 -6.41849,-2.22142 -8.76604,-3.5385 -4.52671,-2.53967 -7.04389,-5.47964 -7.52493,-8.78882 -0.11553,-0.79482 -0.0628,-1.91304 0.12893,-2.73173 1.10761,-4.7306 6.70264,-8.79567 15.90204,-11.55364 0.36416,-0.10917 0.68248,-0.1985 0.70739,-0.1985 0.0659,0 0.0583,-0.059 -0.0776,-0.60175 -0.0676,-0.26987 -0.21179,-0.90167 -0.32044,-1.404 -1.57029,-7.25969 -1.26087,-13.0318 0.8877,-16.56018 0.38443,-0.63131 0.71571,-1.04681 1.28942,-1.61723 1.12961,-1.12314 2.32111,-1.75626 3.9119,-2.07867 0.41292,-0.0837 0.49699,-0.088 1.70741,-0.088 1.19414,0 1.30607,0.006 1.80427,0.0898 4.02494,0.6809 8.64462,3.46497 13.77935,8.30419 l 0.45067,0.42474 0.2451,-0.22775 c 0.13481,-0.12526 0.48242,-0.44982 0.77248,-0.72125 0.29005,-0.27142 0.79652,-0.72921 1.12548,-1.0173 4.38725,-3.8422 8.53229,-6.1609 12.08928,-6.76263 0.49819,-0.0843 0.61012,-0.0898 1.80426,-0.0898 1.21042,0 1.2945,0.004 1.70742,0.088 1.16097,0.2353 2.06769,0.62545 3.04045,1.30828 0.41816,0.29352 1.32428,1.1921 1.66724,1.65337 2.09941,2.82355 2.81491,7.28907 2.09959,13.10383 -0.21135,1.71801 -0.63462,3.98837 -1.05633,5.66596 -0.11822,0.4703 -0.1249,0.53039 -0.059,0.53039 0.0255,0 0.41631,0.11166 0.86856,0.24813 4.55185,1.37355 8.32159,3.12477 10.9764,5.09906 2.62085,1.94901 4.22112,4.1009 4.76312,6.40495 0.25151,1.06918 0.25151,2.36099 0,3.43017 -1.0383,4.41386 -6.00061,8.2738 -14.13147,10.99221 -0.8634,0.28866 -2.40189,0.75992 -2.48086,0.75992 -0.0614,0 -0.0535,0.0661 0.0632,0.5304 0.0579,0.23032 0.19383,0.8217 0.30207,1.31418 1.55655,7.08217 1.33226,12.7853 -0.6434,16.36018 -0.45276,0.81925 -0.93238,1.44504 -1.60194,2.09016 -1.07865,1.03928 -2.3425,1.68595 -3.8717,1.98106 -0.3421,0.066 -0.51761,0.0739 -1.64968,0.0739 -1.18743,0 -1.30013,-0.006 -1.79798,-0.0899 -3.45581,-0.58461 -7.47318,-2.79361 -11.72311,-6.44608 -0.54911,-0.47191 -1.16092,-1.02651 -2.21258,-2.00571 l -0.29549,-0.27513 -0.28239,0.26256 c -1.60603,1.49328 -2.2435,2.0578 -3.19187,2.82661 -3.95703,3.20782 -7.5622,5.09731 -10.75692,5.63775 -0.50185,0.0849 -0.60262,0.0897 -1.82667,0.0875 -1.21267,-0.002 -1.32122,-0.008 -1.69723,-0.0858 z m 2.9089,-3.4181 c 3.40848,-0.57617 7.59578,-3.19828 12.33576,-7.72472 l 0.0863,-0.0824 -0.42658,-0.47312 c -2.18294,-2.42105 -4.1224,-4.83475 -6.10273,-7.59498 l -0.29871,-0.41634 -0.4331,-0.0421 c -3.25173,-0.31624 -6.50478,-0.81247 -9.4514,-1.44177 -0.4686,-0.10007 -0.85744,-0.17584 -0.86407,-0.16838 -0.007,0.007 -0.0857,0.31982 -0.17575,0.6941 -1.23892,5.15101 -1.50157,9.70176 -0.73799,12.7867 0.67605,2.73132 2.05613,4.24293 4.13413,4.52811 0.39254,0.0539 1.43879,0.0187 1.93412,-0.065 z m 31.57369,0.0664 c 2.60558,-0.31949 4.1159,-2.53737 4.53572,-6.66058 0.0785,-0.77138 0.0889,-2.96565 0.0182,-3.85033 -0.14317,-1.79097 -0.3926,-3.50197 -0.78062,-5.35465 -0.16089,-0.76822 -0.47607,-2.11808 -0.50099,-2.14568 -0.007,-0.008 -0.13822,0.0133 -0.29109,0.0474 -3.01558,0.67243 -7.0894,1.30442 -10.18403,1.5799 l -0.27129,0.0242 -0.29935,0.41723 c -1.94435,2.71005 -3.81441,5.04423 -5.92612,7.39686 -0.31595,0.352 -0.57445,0.65312 -0.57445,0.66916 0,0.0161 0.21758,0.23433 0.48353,0.48508 4.77147,4.49896 9.08552,7.05434 12.50016,7.40434 0.28383,0.0291 1.00681,0.0219 1.29035,-0.0129 z m -16.53374,-10.5915 c 0.60517,-0.65601 1.71142,-1.93373 2.44208,-2.8206 0.8213,-0.99688 2.06997,-2.59489 2.0462,-2.61866 -0.007,-0.007 -0.44705,0.006 -0.97753,0.0294 -1.29004,0.0567 -6.16611,0.0557 -7.4073,-0.001 -0.52953,-0.0244 -0.96926,-0.0379 -0.97719,-0.03 -0.0439,0.0439 1.92397,2.50508 3.09772,3.87435 0.38867,0.45343 1.55902,1.76975 1.57518,1.77166 0.006,7.2e-4 0.0963,-0.0914 0.20084,-0.20466 z m 2.4746,-8.85607 c 1.2467,-0.0373 2.98076,-0.11912 4.02942,-0.19009 l 0.6268,-0.0424 0.31524,-0.46563 c 2.29352,-3.38758 4.6423,-7.43298 6.56619,-11.30924 l 0.45776,-0.92229 -0.45784,-0.92229 c -1.88051,-3.78815 -4.16833,-7.74269 -6.38732,-11.04061 l -0.49403,-0.73425 -0.89543,-0.0589 c -3.59638,-0.23666 -7.45685,-0.27221 -11.04957,-0.10175 -1.06663,0.0506 -2.54447,0.14154 -2.64159,0.16254 -0.0576,0.0125 -0.23281,0.24533 -0.61224,0.81367 -2.27134,3.40216 -4.44697,7.16631 -6.31365,10.92351 l -0.47601,0.9581 0.4759,0.95811 c 1.84818,3.72085 3.93386,7.33423 6.24086,10.81213 0.43732,0.65927 0.62398,0.91192 0.68369,0.92535 0.20553,0.0462 3.51349,0.20981 4.97115,0.2458 1.05974,0.0262 3.92069,0.0194 4.96067,-0.0117 z m -3.40262,-5.80557 c -2.1244,-0.2209 -4.07647,-1.4099 -5.25716,-3.20213 -0.87752,-1.332 -1.29279,-3.01746 -1.13527,-4.60765 0.16865,-1.70243 0.91526,-3.25366 2.13593,-4.43778 0.60936,-0.59112 1.09887,-0.93618 1.85675,-1.30882 1.97238,-0.96982 4.29404,-0.9699 6.26799,-2.2e-4 1.46238,0.71837 2.58216,1.83831 3.29806,3.29851 0.96981,1.97807 0.96981,4.28991 0,6.26799 -0.97544,1.98957 -2.78042,3.40464 -4.92944,3.8646 -0.7206,0.15422 -1.52601,0.19941 -2.23686,0.1255 z m -11.09701,5.07509 c -0.0106,-0.0276 -0.1604,-0.27344 -0.33288,-0.54621 -1.32496,-2.09541 -2.91598,-4.85197 -4.02441,-6.97258 -0.16294,-0.31174 -0.30912,-0.55351 -0.32483,-0.53726 -0.0379,0.0392 -0.46897,1.08778 -0.85877,2.08903 -0.76334,1.96075 -1.71317,4.72626 -1.63741,4.76748 0.0244,0.0133 0.17336,0.051 0.33095,0.0839 2.30438,0.48021 3.86639,0.75362 6.03518,1.05641 0.89263,0.12462 0.83566,0.12046 0.81217,0.0592 z m 24.95681,-0.13172 c 1.42976,-0.19963 2.74884,-0.41954 4.08455,-0.68098 0.73937,-0.14472 1.7566,-0.36312 1.79862,-0.38617 0.0759,-0.0416 -0.87467,-2.81109 -1.63658,-4.76815 -0.38637,-0.99243 -0.82074,-2.04967 -0.85793,-2.08819 -0.0152,-0.0158 -0.21771,0.33074 -0.4499,0.77007 -1.11273,2.10533 -2.49202,4.49658 -3.73386,6.47332 -0.26523,0.42218 -0.49058,0.78935 -0.50078,0.81594 -0.0143,0.0374 0.0129,0.0439 0.12002,0.0287 0.0762,-0.0108 0.60535,-0.0849 1.17586,-0.16451 z m -35.10909,-3.28333 c 0.89115,-2.67593 1.95075,-5.38389 3.1394,-8.02314 0.17969,-0.39898 0.32671,-0.74143 0.32671,-0.761 0,-0.0196 -0.14445,-0.35668 -0.321,-0.74914 -1.20189,-2.67175 -2.25215,-5.35443 -3.14216,-8.02604 -0.2461,-0.73873 -0.45312,-1.34894 -0.46006,-1.35604 -0.0378,-0.0386 -2.22706,0.65356 -3.34765,1.05846 -6.15701,2.22469 -10.05373,5.10702 -10.83732,8.01616 -0.61898,2.29799 0.81175,4.6664 4.17535,6.91185 2.18953,1.46168 5.20184,2.81551 8.59609,3.86337 1.30819,0.40386 1.34,0.41343 1.38175,0.4156 0.0212,0.001 0.24124,-0.60643 0.48889,-1.35008 z m 45.25189,1.11731 c 6.46648,-1.93945 11.04821,-4.63626 12.7857,-7.52564 1.06947,-1.77849 0.9248,-3.59786 -0.42893,-5.39443 -1.828,-2.42598 -5.68388,-4.69299 -10.94716,-6.43623 -1.00463,-0.33275 -2.21534,-0.69864 -2.2377,-0.67627 -0.007,0.007 -0.21442,0.61764 -0.46017,1.35621 -0.87018,2.6153 -1.80333,5.01047 -3.01173,7.73042 -0.24801,0.55825 -0.45094,1.02827 -0.45094,1.04449 0,0.0162 0.20309,0.48625 0.45131,1.04449 1.20211,2.70357 2.13666,5.10278 3.0148,7.73965 0.24766,0.74365 0.46192,1.3521 0.47615,1.3521 0.0142,0 0.37813,-0.10566 0.80867,-0.23479 z M 139.43041,134.1495 c 0.84268,-1.67829 2.72612,-4.95904 4.10513,-7.15071 0.21562,-0.34268 0.40084,-0.64602 0.41161,-0.6741 0.0154,-0.0401 -0.006,-0.0468 -0.10161,-0.0311 -0.0667,0.011 -0.54027,0.0772 -1.05245,0.14715 -1.05636,0.14424 -2.5845,0.39102 -3.5638,0.57553 -0.91889,0.17313 -2.40856,0.48285 -2.46156,0.51179 -0.0885,0.0483 1.01696,3.21304 1.87189,5.35883 0.47523,1.19278 0.61428,1.52223 0.64249,1.52223 0.01,0 0.0766,-0.11685 0.1483,-0.25967 z m 33.14662,-0.42085 c 0.92477,-2.24398 2.31367,-6.14349 2.20847,-6.20059 -0.17497,-0.095 -3.36265,-0.69546 -5.01937,-0.94553 -0.60531,-0.0914 -2.12833,-0.30381 -2.17814,-0.30383 -0.0145,0 0.0995,0.19744 0.25332,0.43875 1.2632,1.98189 2.84766,4.7136 4.00022,6.89664 0.23195,0.43933 0.43421,0.78586 0.44946,0.77007 0.0152,-0.0158 0.14396,-0.31077 0.28604,-0.65551 z m -36.00114,-9.72255 c 2.17072,-0.46932 4.73141,-0.89607 7.20217,-1.20024 0.83883,-0.10327 2.55929,-0.28796 2.68248,-0.28796 0.0342,0 0.20002,-0.19753 0.39832,-0.4745 1.94496,-2.71651 4.08272,-5.36889 6.2132,-7.70888 l 0.28602,-0.31414 -0.23809,-0.21942 c -0.13095,-0.12068 -0.53423,-0.49342 -0.89618,-0.82831 -4.69485,-4.34384 -9.26925,-6.85897 -12.47475,-6.85897 -1.7584,0 -3.06883,0.7306 -3.96195,2.20888 -1.62416,2.68827 -1.79276,7.75525 -0.46341,13.92671 0.22939,1.06492 0.44258,1.91622 0.47989,1.91622 0.0193,0 0.36684,-0.0717 0.7723,-0.15939 z m 39.36219,-0.47637 c 0.5795,-2.40791 0.95045,-4.68771 1.1204,-6.88583 0.0701,-0.90638 0.0596,-3.06241 -0.0186,-3.83243 -0.15634,-1.539 -0.44303,-2.73871 -0.89872,-3.76079 -1.2866,-2.88576 -3.79832,-3.64492 -7.54409,-2.2802 -2.40327,0.8756 -5.17777,2.6436 -8.12696,5.17873 -0.41828,0.35956 -0.73857,0.65095 -2.03705,1.85327 l -0.23861,0.22094 0.12751,0.13723 c 1.92301,2.06956 4.40522,5.13403 6.28062,7.75388 l 0.42668,0.59605 0.27175,0.0236 c 1.77924,0.15421 4.79846,0.55961 6.84419,0.919 0.82762,0.1454 2.94373,0.5658 3.29517,0.65464 0.36445,0.0921 0.32558,0.13727 0.49773,-0.57804 z m -22.61477,-1.41043 c 1.62611,-0.0431 4.79987,-0.0227 6.28299,0.0404 0.46133,0.0196 0.84521,0.0293 0.85305,0.0215 0.0231,-0.0231 -0.98977,-1.32388 -1.8853,-2.42115 -0.92928,-1.13861 -2.73168,-3.20563 -2.79525,-3.20563 -0.0546,0 -1.43114,1.56018 -2.37015,2.68628 -0.7657,0.91825 -2.18987,2.71944 -2.30535,2.91564 -0.0249,0.0424 0.0262,0.0466 0.32514,0.0271 0.1951,-0.0128 1.04779,-0.0416 1.89487,-0.0641 z"
         id="path1065" />
    </g>
  </g>
</svg>
