<?xml version="1.0" encoding="UTF-8" standalone="no"?>
<!-- Created with Inkscape (http://www.inkscape.org/) -->

<svg
   version="1.1"
   id="svg2"
   width="1129.5205"
   height="107.80215"
   viewBox="0 0 1129.5205 107.80216"
   xml:space="preserve"
   sodipodi:docname="iconos-ig.svg"
   inkscape:version="1.2.2 (732a01da63, 2022-12-09)"
   xmlns:inkscape="http://www.inkscape.org/namespaces/inkscape"
   xmlns:sodipodi="http://sodipodi.sourceforge.net/DTD/sodipodi-0.dtd"
   xmlns="http://www.w3.org/2000/svg"
   xmlns:svg="http://www.w3.org/2000/svg"><sodipodi:namedview
     id="namedview13"
     pagecolor="#ffffff"
     bordercolor="#666666"
     borderopacity="1.0"
     inkscape:showpageshadow="2"
     inkscape:pageopacity="0.0"
     inkscape:pagecheckerboard="0"
     inkscape:deskcolor="#d1d1d1"
     showgrid="false"
     inkscape:zoom="0.28453194"
     inkscape:cx="435.80345"
     inkscape:cy="-210.87264"
     inkscape:window-width="1366"
     inkscape:window-height="705"
     inkscape:window-x="-8"
     inkscape:window-y="-8"
     inkscape:window-maximized="1"
     inkscape:current-layer="svg2" /><defs
     id="defs6" /><g
     id="g8"
     style="display:inline"
     transform="translate(-413.47214,-446.09892)"><path
       style="display:inline;fill:#000000;stroke-width:0.244045"
       d="m 1443.838,553.79628 c -3.2159,-0.41028 -6.037,-1.91426 -7.58,-4.041 l -0.9682,-1.33462 -0.073,-47.03931 c -0.066,-42.43786 -0.029,-47.15356 0.3751,-48.20725 1.162,-3.02847 4.1769,-5.37708 8.472,-6.59957 l 1.6711,-0.47561 h 43.192 c 41.3875,0 43.257,0.0164 44.7448,0.39299 4.3596,1.10346 7.3363,3.28853 8.7318,6.40967 l 0.589,1.31739 -0.073,47.10084 -0.073,47.10085 -0.9682,1.33462 c -2.723,3.75327 -8.8429,5.17487 -14.1204,3.28002 -1.3097,-0.47021 -4.3035,-2.59881 -18.2229,-12.95624 -9.1607,-6.81646 -17.1004,-12.56679 -17.6438,-12.77849 -1.3381,-0.52128 -4.3051,-0.52193 -5.646,-10e-4 -0.5434,0.21102 -8.4196,5.91572 -17.5027,12.67711 -10.169,7.56979 -17.0027,12.49743 -17.785,12.82433 -2.2621,0.9454 -4.7669,1.29563 -7.1195,0.99549 z m 19.5286,-18.6242 c 12.5958,-9.37445 17.1753,-12.65423 18.2701,-13.08491 1.8925,-0.74447 5.3986,-1.40942 7.4314,-1.40942 2.0316,0 5.5377,0.66465 7.4315,1.40875 1.0964,0.4308 5.655,3.69649 18.2655,13.08492 16.1877,12.05171 16.843,12.51084 17.8555,12.51084 0.6747,0 1.2533,-0.15111 1.6157,-0.42195 0.5612,-0.41936 0.5646,-0.70324 0.5646,-46.3169 0,-45.30346 -0.01,-45.90549 -0.5582,-46.71268 -0.307,-0.44974 -0.9739,-1.03932 -1.4821,-1.31017 l -0.9238,-0.49246 h -42.7687 -42.7686 l -0.9238,0.49246 c -0.5082,0.27085 -1.1751,0.86043 -1.4821,1.31017 -0.551,0.80719 -0.5582,1.40922 -0.5582,46.71268 0,45.61366 0,45.89754 0.5646,46.3169 0.3615,0.27017 0.941,0.42195 1.611,0.42195 1.0063,0 1.6911,-0.47975 17.8556,-12.51018 z"
       id="path929" /></g><g
     id="layer2"
     style="display:inline"
     transform="translate(-39.472135,-446.09892)"><path
       style="display:inline;fill:#000000;stroke-width:0.211143"
       d="m 454.02752,553.80516 c -1.38728,-0.23439 -3.18187,-1.17261 -4.39645,-2.29847 -0.96036,-0.89021 -1.84594,-2.52566 -10.69843,-19.75758 -5.30826,-10.33287 -9.86676,-19.12715 -10.13,-19.54283 -0.42968,-0.67854 -2.46124,-1.77475 -19.87658,-10.7252 -17.80777,-9.15214 -19.47758,-10.05529 -20.36901,-11.01682 -3.83279,-4.13423 -2.86382,-10.03561 2.05177,-12.49612 0.56717,-0.2839 22.20868,-7.56872 48.09224,-16.18848 46.91721,-15.62441 47.06634,-15.67232 48.80669,-15.68032 1.42061,-0.006 1.95843,0.0894 2.88822,0.51478 2.42564,1.10994 3.61097,3.07133 3.61097,5.97505 v 1.76858 l -15.67895,47.03375 c -8.62344,25.86856 -15.89512,47.46548 -16.15928,47.99317 -1.57641,3.14895 -4.92045,4.9647 -8.14119,4.42049 z m 2.37621,-6.752 c 0.42444,-0.57355 29.80377,-88.44684 29.57109,-88.44684 -0.0781,0 -11.67575,11.52842 -25.77276,25.61871 l -25.63095,25.61872 9.58035,18.58467 c 6.83196,13.25318 9.7318,18.6812 10.10833,18.92115 0.73786,0.47022 1.6722,0.34104 2.14394,-0.29641 z m -0.50749,-67.17917 c 14.08433,-14.0769 25.60788,-25.65815 25.60788,-25.73611 0,-0.25031 -87.82263,29.11229 -88.48595,29.58438 -0.72851,0.51848 -0.82862,1.20486 -0.30367,2.08214 0.25657,0.42879 4.68041,2.79991 18.84927,10.10292 10.18272,5.24844 18.5614,9.54677 18.6193,9.55183 0.0579,0.005 11.62883,-11.50825 25.71317,-25.58516 z"
       id="path917" /></g><g
     id="layer1"
     style="display:inline"
     transform="translate(-39.472135,-446.09892)"><path
       style="display:inline;fill:#000000;stroke-width:0.224792"
       d="m 92.600373,553.80409 c -0.83057,-0.21232 0.232496,0.77454 -12.2262,-11.34978 C 63.072529,525.617 58.60864,521.03421 53.800767,515.17309 45.139505,504.61443 40.999455,496.12032 39.713736,486.27086 c -0.264942,-2.02963 -0.328673,-7.75425 -0.107296,-9.63729 0.988162,-8.40512 3.693665,-15.19356 8.233041,-20.65771 5.481895,-6.59869 12.071657,-9.84018 20.077493,-9.8761 3.379827,-0.0152 4.852347,0.20958 7.710768,1.17682 6.422987,2.17342 12.686546,8.11737 16.613737,15.76599 0.564289,1.099 1.073513,1.99819 1.131607,1.99819 0.0581,0 0.567308,-0.89919 1.131597,-1.99819 3.927201,-7.64862 10.190747,-13.59257 16.613737,-15.76599 2.85842,-0.96724 4.33095,-1.19199 7.71077,-1.17682 8.00583,0.0359 14.59559,3.27741 20.07749,9.8761 4.53937,5.46415 7.24488,12.25259 8.23304,20.65771 0.22138,1.88304 0.15765,7.60766 -0.10726,9.63729 -1.72494,13.21418 -8.57493,24.28445 -25.66819,41.48232 -3.87555,3.89927 -25.520526,24.96139 -26.236309,25.52982 -0.711579,0.56508 -1.621535,0.75268 -2.527556,0.52109 z m 10.853697,-17.73508 c 15.22858,-14.77468 20.14848,-19.8279 24.84723,-25.52053 4.60387,-5.57768 7.53125,-10.08099 9.58843,-14.75029 2.56913,-5.83134 3.35963,-9.80872 3.17247,-15.96221 -0.14763,-4.8535 -0.83419,-8.13894 -2.56567,-12.27761 -3.49564,-8.35543 -10.143,-13.70758 -17.92036,-14.42864 -10.34691,-0.95931 -18.83993,6.31253 -23.713235,20.30359 -0.435325,1.2498 -1.038197,2.57077 -1.339708,2.9355 -1.161231,1.40468 -3.139061,1.40468 -4.300293,0 -0.301511,-0.36473 -0.904371,-1.6857 -1.339697,-2.9355 -4.873314,-13.99106 -13.366335,-21.2629 -23.713243,-20.30359 -6.423985,0.59558 -12.417137,4.5885 -16.097478,10.72488 -2.726909,4.54669 -4.204407,9.92715 -4.388548,15.98137 -0.187163,6.15349 0.603339,10.13087 3.172469,15.96221 3.296109,7.4814 9.139851,15.09073 20.223224,26.33334 6.734125,6.83085 24.158026,23.55733 24.420707,23.44319 0.155342,-0.0675 4.634511,-4.34506 9.953702,-9.50571 z"
       id="path901" /></g><g
     id="layer3"
     style="display:inline"
     transform="translate(-39.472135,-446.09892)"><path
       style="display:inline;fill:#000000;stroke-width:0.210978"
       d="m 216.92161,553.78176 c -0.88128,-0.25478 -1.93651,-1.36707 -2.19001,-2.30842 -0.27486,-1.02074 -0.23115,-1.16842 3.96064,-13.37652 l 3.54489,-10.32408 -1.81198,-3.60014 c -1.8574,-3.69037 -3.57401,-8.34795 -4.3983,-11.93356 -4.19569,-18.25132 1.19288,-37.04677 14.42477,-50.31384 14.77773,-14.81703 36.69523,-19.71744 56.45976,-12.62351 3.13902,1.12666 8.31986,3.75974 11.26574,5.72565 3.40279,2.2708 5.66217,4.11634 8.43998,6.89401 21.08701,21.08601 21.08701,55.07652 0,76.16253 -7.91502,7.91465 -18.23339,13.26657 -29.04602,15.06556 -11.44921,1.90489 -22.84446,0.17542 -33.20767,-5.03997 l -3.59979,-1.81163 -10.87767,3.72276 c -5.98271,2.04753 -11.19865,3.77435 -11.59098,3.83737 -0.39232,0.0631 -1.01034,0.0288 -1.37336,-0.0762 z m 56.89252,-6.73708 c 18.86905,-2.27807 34.54006,-15.30607 39.97392,-33.23205 1.58639,-5.23341 2.10085,-9.23257 1.95012,-15.15992 -0.12082,-4.75149 -0.53324,-7.54866 -1.72085,-11.67103 -5.22853,-18.14891 -20.77888,-31.52587 -39.42834,-33.91766 -2.85852,-0.36661 -8.71294,-0.42005 -11.33506,-0.10349 -21.80709,2.63279 -38.84895,19.40102 -41.65626,40.98741 -0.40492,3.11351 -0.41382,9.01507 -0.018,11.9619 0.87834,6.53988 2.71522,11.88227 6.24405,18.16027 0.99008,1.76141 1.25657,2.42674 1.25657,3.13725 0,0.60625 -0.94341,3.66096 -2.87886,9.32168 -1.58337,4.63095 -2.81906,8.47973 -2.74597,8.55282 0.0731,0.0731 3.92243,-1.16317 8.5541,-2.74723 5.65026,-1.93242 8.71718,-2.8801 9.32073,-2.8801 0.7078,0 1.37608,0.26784 3.13514,1.2565 6.18493,3.47619 11.56133,5.34157 17.95016,6.22794 2.4478,0.3396 8.961,0.40001 11.3986,0.10565 z"
       id="path885" /></g><g
     id="layer4"
     transform="translate(-39.472135,-446.09892)" /></svg>
