<?xml version="1.0" encoding="UTF-8" standalone="no"?>
<!-- Created with Inkscape (http://www.inkscape.org/) -->

<svg
   version="1.1"
   id="svg3176"
   width="468.84665"
   height="526.01428"
   viewBox="0 0 468.84665 526.01428"
   xml:space="preserve"
   xmlns="http://www.w3.org/2000/svg"
   xmlns:svg="http://www.w3.org/2000/svg"><defs
     id="defs3180"><clipPath
       clipPathUnits="userSpaceOnUse"
       id="clipPath3258"><rect
         style="fill:#ead41c;fill-opacity:1;stroke:#262425;stroke-linejoin:round"
         id="rect3260"
         width="290.13333"
         height="293.76001"
         x="-81.600021"
         y="371.73334" /></clipPath></defs><g
     id="g3182"
     transform="translate(-118.83538,-46.149228)"><g
       id="g3776"
       transform="translate(123.09315,101.2954)"><path
         style="fill:#bcc2c6"
         d="m 137.06341,469.68239 c -2.69652,-1.30366 -4.72849,-5.95258 -3.83384,-8.77138 0.3679,-1.15915 1.61861,-2.99232 2.77935,-4.07372 1.82667,-1.7018 3.55427,-1.96617 12.84855,-1.96617 9.38589,0 10.7957,-0.22037 11.19543,-1.75 0.43555,-1.66667 0.46285,-1.66667 0.57333,0 0.10928,1.64862 4.10908,1.75 69.04268,1.75 64.80356,0 68.95403,-0.10468 69.38399,-1.75 0.43555,-1.66667 0.46285,-1.66667 0.57333,0 0.10266,1.54882 1.35182,1.75366 10.866,1.7818 11.23555,0.0332 12.90623,0.55901 15.14805,4.76717 1.69441,3.1806 -0.15858,8.54308 -3.47403,10.0537 -3.40709,1.55237 -181.88881,1.51245 -185.10284,-0.0414 z m 31.81939,-45.81127 c 0,-0.825 0.38674,-2.4 0.85943,-3.5 0.54172,-1.26064 0.85943,-1.44548 0.85943,-0.5 0,0.825 -0.38674,2.4 -0.85943,3.5 -0.54172,1.26064 -0.85943,1.44548 -0.85943,0.5 z m 120.43086,-1.57143 c -0.36782,-1.46551 -0.47591,-2.85742 -0.24019,-3.09314 0.23571,-0.23571 0.72951,0.77049 1.09733,2.236 0.36782,1.46551 0.47591,2.85742 0.24019,3.09314 -0.23571,0.23571 -0.72951,-0.77049 -1.09733,-2.236 z M 170.8828,416.87112 c 0,-0.825 0.38674,-2.4 0.85943,-3.5 0.54172,-1.26064 0.85943,-1.44548 0.85943,-0.5 0,0.825 -0.38674,2.4 -0.85943,3.5 -0.54172,1.26064 -0.85943,1.44548 -0.85943,0.5 z m 116.43086,-1.57143 c -0.36782,-1.46551 -0.47591,-2.85742 -0.24019,-3.09314 0.23571,-0.23571 0.72951,0.77049 1.09733,2.236 0.36782,1.46551 0.47591,2.85742 0.24019,3.09314 -0.23571,0.23571 -0.72951,-0.77049 -1.09733,-2.236 z M 175.85823,399.63768 c -0.10893,-1.62782 -5.29014,-1.74967 -85.043025,-2 -83.9387748,-0.26346 -84.9598768,-0.29051 -87.7499998,-2.3251 -1.5526355,-1.1322 -3.84296777,-4.05526 -5.0896278,-6.49569 -2.2010543,-4.30872 -2.2589371,-5.1608 -2,-29.44145 l 0.2666545,-25.00432 h 233.4999981 233.5 v 26.07501 26.07501 l -2.66076,4.0187 c -5.147,7.77381 0.47673,7.33128 -93.16704,7.33128 -78.70726,0 -83.55193,0.10095 -83.98287,1.75 -0.43555,1.66667 -0.46285,1.66667 -0.57333,0 -0.10892,-1.64316 -3.34718,-1.75 -53.04268,-1.75 -49.56547,0 -52.95571,0.11114 -53.38399,1.75 -0.42915,1.64219 -0.46447,1.64321 -0.57333,0.0166 z m 218.884,-115.76656 c -0.90129,-0.58246 -1.02463,-0.97549 -0.30902,-0.98469 0.65504,-0.008 1.4691,0.43469 1.80902,0.98469 0.7673,1.24153 0.42112,1.24153 -1.5,0 z m 42.45669,-11.07008 c -0.36374,-0.58854 -1.6278,-1.46002 -2.80902,-1.93661 -1.46543,-0.59127 -1.64099,-0.88667 -0.55266,-0.92992 0.87726,-0.0349 2.4095,0.83661 3.40499,1.93661 0.99549,1.1 1.54179,2 1.214,2 -0.32778,0 -0.89357,-0.48153 -1.25731,-1.07008 z m -30.15759,-3.6752 c 4.83951,-0.18371 12.48951,-0.18277 17,0.002 4.5105,0.18485 0.5509,0.33516 -8.7991,0.33401 -9.35,-0.001 -13.0404,-0.1524 -8.2009,-0.3361 z m -6.99268,-17.00198 c 6.49353,-0.17445 16.84353,-0.17388 23,0.001 6.15647,0.17516 0.84358,0.31789 -11.80642,0.31719 -12.65,-7e-4 -17.68711,-0.14401 -11.19358,-0.31847 z m -14.8181,-2.26565 c -2.58943,-2.86128 -2.33103,-7.62845 0.5579,-10.29265 l 2.37954,-2.19444 -1.87954,2.26291 c -2.38577,2.87237 -2.41267,7.6222 -0.0579,10.22418 1.00191,1.1071 1.59666,2.01291 1.32166,2.01291 -0.275,0 -1.31975,-0.90581 -2.32166,-2.01291 z m 51.01168,0.0129 c 0.99549,-1.1 2.03498,-2 2.30998,-2 0.275,0 -0.31449,0.9 -1.30998,2 -0.99549,1.1 -2.03498,2 -2.30998,2 -0.275,0 0.31449,-0.9 1.30998,-2 z m -0.095,-10.25 -1.90499,-2.25 2.25,1.90499 c 2.11444,1.79022 2.70524,2.59501 1.90499,2.59501 -0.18976,0 -1.20226,-1.0125 -2.25,-2.25 z m -36.21041,-2.49565 c 5.88201,-0.17649 15.78201,-0.17711 22,-0.001 6.21798,0.17574 1.40542,0.32014 -10.69458,0.32089 -12.1,7.6e-4 -17.18744,-0.14302 -11.30542,-0.31951 z m 18.58894,-16.99275 c 2.90594,-0.20265 7.40594,-0.20052 10,0.005 2.59406,0.20525 0.21648,0.37104 -5.28352,0.36844 -5.5,-0.003 -7.62242,-0.17053 -4.71648,-0.37317 z m -8.91108,-2.0116 c -1.24387,-1.58606 -1.2085,-1.62143 0.37756,-0.37756 1.66575,1.30637 2.19548,2.12756 1.37244,2.12756 -0.20765,0 -0.99515,-0.7875 -1.75,-1.75 z m 26.62755,-0.25 c 0.99549,-1.1 2.03498,-2 2.30998,-2 0.275,0 -0.31449,0.9 -1.30998,2 -0.99549,1.1 -2.03498,2 -2.30998,2 -0.275,0 0.31449,-0.9 1.30998,-2 z m -28.42105,-7.09501 c -0.0434,-0.87726 0.93355,-2.45226 2.17105,-3.5 2.23084,-1.88877 2.23621,-1.88796 0.63049,0.095 -0.89073,1.1 -1.86771,2.675 -2.17105,3.5 -0.46813,1.27314 -0.56349,1.25877 -0.63049,-0.095 z m 15.92105,-4.90499 -11.5,-0.60107 11.19098,-0.19946 c 6.60654,-0.11776 11.44417,0.21019 11.80902,0.80053 0.33992,0.55 0.47898,0.91024 0.30902,0.80053 -0.16996,-0.1097 -5.48402,-0.46994 -11.80902,-0.80053 z M 462.82118,40.202903 c -0.0434,-0.642516 -0.33793,-1.992516 -0.65446,-3 -0.54705,-1.741219 -0.51883,-1.7434 0.57078,-0.04411 0.63045,0.983222 0.92496,2.333222 0.65445,3 -0.35498,0.874997 -0.51379,0.887271 -0.57077,0.04411 z M 0.24223193,31.871116 c 0.99548627,-1.1 2.03497497,-2 2.30997527,-2 0.275,0 -0.3144893,0.9 -1.3099753,2 -0.99548627,1.1 -2.03497507,2 -2.3099751,2 -0.275,0 0.31448883,-0.9 1.30997513,-2 z m 457.90498807,-0.25 -1.90499,-2.25 2.25,1.904988 c 1.2375,1.047743 2.25,2.060243 2.25,2.25 0,0.800253 -0.80479,0.209457 -2.59501,-1.904988 z m -371.247093,-6.75 c 0,-1.375 0.226973,-1.9375 0.504386,-1.25 0.277412,0.6875 0.277412,1.8125 0,2.5 -0.277413,0.6875 -0.504386,0.125 -0.504386,-1.25 z M 380.82118,20.287783 c 0.048,-1.164943 0.28494,-1.4019 0.60416,-0.604167 0.28887,0.721875 0.25335,1.584375 -0.0789,1.916667 -0.33229,0.332291 -0.56864,-0.258334 -0.52522,-1.3125 z m 1.17323,-7.916667 c 0.0111,-2.2 0.21589,-2.9822528 0.45508,-1.738341 0.23919,1.243913 0.23011,3.043913 -0.0202,4 -0.25027,0.956088 -0.44598,-0.06166 -0.43488,-2.261659 z M 85.821179,12.287783 c 0.04798,-1.164943 0.284941,-1.4019 0.604167,-0.604167 0.288871,0.721875 0.253344,1.584375 -0.07895,1.916667 -0.332292,0.332291 -0.568641,-0.258334 -0.52522,-1.3125 z M 84.858233,3.6801332 c -0.0638,-2.5800406 0.239954,-4.9109749 0.675009,-5.1798541 0.435056,-0.2688791 0.634116,1.16706333 0.442357,3.1909831 -0.585894,6.183799 -0.995598,6.913057 -1.117366,1.988871 z M 382.71756,2.6676082 c -0.26529,-2.58692957 -0.11257,-4.33373 0.33938,-3.8817787 0.45195,0.45195133 0.66901,2.56853 0.48235,4.7035087 l -0.33938,3.881778 z"
         id="path3680" /><path
         style="fill:#95a3a3"
         d="m 160.74223,453.39535 c 0,-0.81168 2.07688,-8.12418 4.61528,-16.25 2.53841,-8.12583 6.20249,-20.28673 8.1424,-27.02423 l 3.52711,-12.25 h 52.71521 52.71521 l 3.52711,12.25 c 1.93991,6.7375 5.60399,18.8984 8.1424,27.02423 2.5384,8.12582 4.61528,15.43832 4.61528,16.25 0,1.28677 -8.83676,1.47577 -69,1.47577 -60.16324,0 -69,-0.189 -69,-1.47577 z M -4.0111267,187.37112 -3.7644854,40.371116 l 0.2566915,146.250004 0.2566916,146.25 H 229.74223 462.73556 l 0.2567,-146.25 0.25669,-146.250004 0.24664,147.000004 0.24664,147 h -234 H -4.2577681 Z M 407.04133,285.12584 c 4.83951,-0.18371 12.48951,-0.18277 17,0.002 4.5105,0.18485 0.5509,0.33516 -8.7991,0.33401 -9.35,-0.001 -13.0404,-0.1524 -8.2009,-0.3361 z m -16.10415,-7.75472 c 0.0204,-1.65 0.2445,-2.20394 0.49804,-1.23097 0.25354,0.97297 0.23687,2.32297 -0.0371,3 -0.27393,0.67703 -0.48137,-0.11903 -0.46099,-1.76903 z m 48,0 c 0.0204,-1.65 0.2445,-2.20394 0.49804,-1.23097 0.25354,0.97297 0.23687,2.32297 -0.0371,3 -0.27393,0.67703 -0.48137,-0.11903 -0.46099,-1.76903 z m -39.00037,-24.24565 c 5.88201,-0.17649 15.78201,-0.17711 22,-0.001 6.21798,0.17574 1.40542,0.32014 -10.69458,0.32089 -12.1,7.6e-4 -17.18744,-0.14302 -11.30542,-0.31951 z m 33.88875,-0.51501 c 0.22917,-0.14336 1.54167,-1.15586 2.91667,-2.25 l 2.5,-1.98934 -1.90499,2.25 c -1.04774,1.2375 -2.36024,2.25 -2.91666,2.25 -0.55643,0 -0.82418,-0.1173 -0.59502,-0.26066 z m -49.21089,-2.48934 c -1.24387,-1.58606 -1.2085,-1.62143 0.37756,-0.37756 1.66575,1.30637 2.19548,2.12756 1.37244,2.12756 -0.20765,0 -0.99515,-0.7875 -1.75,-1.75 z m 54.28545,-5.25 c 0,-1.375 0.22698,-1.9375 0.50439,-1.25 0.27741,0.6875 0.27741,1.8125 0,2.5 -0.27741,0.6875 -0.50439,0.125 -0.50439,-1.25 z m -55.15789,-4.37756 c 0,-0.20765 0.7875,-0.99515 1.75,-1.75 1.58606,-1.24387 1.62143,-1.2085 0.37756,0.37756 -1.30637,1.66575 -2.12756,2.19548 -2.12756,1.37244 z m 52.87244,-1.37244 c -1.24387,-1.58606 -1.2085,-1.62143 0.37756,-0.37756 0.9625,0.75485 1.75,1.54235 1.75,1.75 0,0.82304 -0.82119,0.29331 -2.12756,-1.37244 z m -29.71455,-26.25 c 0,-1.375 0.22698,-1.9375 0.50439,-1.25 0.27741,0.6875 0.27741,1.8125 0,2.5 -0.27741,0.6875 -0.50439,0.125 -0.50439,-1.25 z m 32,0 c 0,-1.375 0.22698,-1.9375 0.50439,-1.25 0.27741,0.6875 0.27741,1.8125 0,2.5 -0.27741,0.6875 -0.50439,0.125 -0.50439,-1.25 z m -31.15789,-4.37756 c 0,-0.20765 0.7875,-0.99515 1.75,-1.75 1.58606,-1.24387 1.62143,-1.2085 0.37756,0.37756 -1.30637,1.66575 -2.12756,2.19548 -2.12756,1.37244 z m 11.28017,-4.35871 c 2.6291,-0.20668 6.6791,-0.20418 9,0.006 2.32091,0.20972 0.16983,0.37882 -4.78017,0.37577 -4.95,-0.003 -6.84892,-0.17464 -4.21983,-0.38131 z M -2.2577681,36.160227 c 0,-0.574322 0.7875,-1.661822 1.75000003,-2.416666 1.61875537,-1.269516 1.63997707,-1.222451 0.2829677,0.627555 -0.80686783,1.1 -1.59436783,2.1875 -1.75000003,2.416667 -0.1556323,0.229166 -0.2829677,-0.05323 -0.2829677,-0.627556 z M 459.84262,34.575638 c -1.26492,-2.106309 -1.24361,-2.127619 0.47833,-0.478332 0.99123,0.949405 1.58698,1.94144 1.3239,2.204522 -0.26308,0.263082 -1.07408,-0.513704 -1.80223,-1.72619 z M 28.992232,27.122366 c 10.8625,-0.161441 28.6375,-0.161441 39.5,0 10.8625,0.161441 1.975,0.29353 -19.75,0.29353 -21.725,0 -30.6125,-0.132089 -19.75,-0.29353 z M 397.42773,27.123 c 9.45202,-0.164207 25.20202,-0.164487 35,-6.22e-4 9.79797,0.163864 2.0645,0.298215 -17.1855,0.298558 -19.25,3.42e-4 -27.26653,-0.133729 -17.8145,-0.297936 z"
         id="path3678" /><path
         style="fill:#68adbe"
         d="m 23.210518,282.60274 c -3.124563,-2.53012 -1.724199,-9.92015 1.359488,-13.00384 2.150946,-2.15094 2.89842,-2.22778 21.672226,-2.22778 18.128156,0 19.576373,0.13539 21.393311,2 3.098836,3.18014 4.910861,9.7411 1.869742,12.78222 -1.862467,1.86247 -5.096386,2.64111 -23.152269,2.64111 -17.454229,0 -21.062324,-0.50729 -23.142498,-2.19171 z m 0.665096,-31.6994 c -4.441117,-3.37245 -2.328967,-12.71081 2.463446,-14.89438 1.625094,-0.74045 10.191297,-1.13784 24.527148,-1.13784 h 22.02987 l 2.923077,2.92308 c 1.607692,1.60769 2.923077,3.65504 2.923077,4.54966 0,2.47165 -1.119074,8.32849 -2.942027,9.02802 -0.890325,0.34165 -13.448735,1.58285 -25.948631,1.58285 -16.637078,0 -24.770951,-1.13634 -25.97596,-2.05139 z m -0.538435,-32.03035 c -1.257093,-0.88051 -2.529404,-4.26645 -3.023252,-5.56537 -1.124054,-2.95648 2.949427,-8.10984 5.467747,-9.45761 1.005991,-0.53839 6.723806,-0.97889 12.706255,-0.97889 9.564202,0 11.14136,0.24612 13.065742,2.03896 3.253573,3.03116 5.587969,8.51798 2.118143,11.24735 -2.272257,1.78736 -6.5951,5.11785 -15.341934,5.11785 -7.681361,0 -13.26172,-1.18987 -14.992701,-2.40229 z"
         id="path3676" /><path
         style="fill:#68adbe;stroke-width:1.1149"
         d="m 443.14565,283.23739 c -4.58042,0 3.81395,-8.58399 0.1,-11.76653 -2.59059,-2.21989 -4.13195,-5.50474 -26.74304,-5.50474 -21.83347,0 -22.93659,3.34528 -25.1249,5.26966 -3.73223,3.28208 -3.79121,8.73003 -0.1285,11.86864 2.24315,1.92217 4.01465,2.06411 25.76108,2.06411 21.0218,0 29.1848,-1.93114 26.13539,-1.93114 z m -0.99408,-32.38471 c 5.34886,-3.48055 4.73538,-11.79493 -1.03659,-14.0485 -1.95725,-0.76419 -12.07379,-3.59685 -29.31371,-2.64764 l -26.75935,1.47333 -3.52055,3.01678 c -1.93629,1.65922 -3.52054,3.7722 -3.52054,4.6955 0,2.55088 3.27818,7.43756 5.47374,8.15951 1.07231,0.3526 14.26722,1.88776 29.32204,1.88776 20.03763,0 27.90366,-1.59235 29.35496,-2.53674 z m -0.50974,-33.38793 c 1.51405,-0.90874 3.23945,-2.74906 3.83423,-4.08961 1.35381,-3.05125 -0.65671,-8.36981 -3.68976,-9.76078 -1.21161,-0.55565 -8.09813,-1.01027 -15.30337,-1.01027 -11.51908,0 -13.4186,0.25401 -15.73632,2.10432 -3.91858,3.12832 -4.60318,10.0938 -0.42414,12.91066 2.7367,1.84465 5.65589,4.62332 16.19054,4.62332 9.25139,0 13.04403,-3.52636 15.12882,-4.77764 z"
         id="path3676-3" /><path
         style="fill:#5d5e61"
         d="M -1.4111076,184.97505 V 38.361204 l 2.184091,-3.886065 c 1.391967,-2.476672 3.682547,-4.611455 6.315725,-5.886154 3.9150646,-1.895251 6.1748666,-2.00009 43.1117946,-2.00009 h 38.98016 c 392.120247,-20.3148066 389.865757,39.210011 293.530777,0 h 34.623 c 32.5797,0 34.86683,0.118037 38.75463,2.00009 2.63318,1.274699 4.92376,3.409482 6.31573,5.886154 l 2.18409,3.886065 V 184.97505 331.5889 h -233 H -1.4111076 Z M 439.1772,281.28314 c 2.65527,-3.08915 2.98096,-5.35072 1.30142,-9.03692 -1.86288,-4.08857 -4.79542,-4.65732 -24.01371,-4.65732 h -18.02987 l -2.92307,2.92308 c -1.63481,1.63481 -2.92308,3.99935 -2.92308,5.36514 0,3.10818 3.37291,7.43742 6.26993,8.04764 1.22654,0.25836 10.25731,0.40099 20.06838,0.31694 l 17.8383,-0.1528 z M 67.588893,281.5889 c 3.04112,-3.04112 2.99215,-8.31986 -0.10669,-11.5 -1.81694,-1.86461 -3.26515,-2 -21.39331,-2 -18.77381,0 -19.52128,0.0768 -21.672223,2.22778 -3.083691,3.08369 -3.041557,8.87094 0.08301,11.40106 2.080173,1.68442 4.245773,1.87116 21.700003,1.87116 18.05588,0 19.52674,-0.13753 21.38921,-2 z M 438.79041,249.83385 c 3.18051,-3.18337 3.13535,-9.744 -0.085,-12.35171 -2.14549,-1.73728 -4.26853,-1.89324 -25.77276,-1.89324 h -23.43467 l -2.45454,2.45455 c -4.04234,4.04233 -2.96372,10.09194 2.32059,13.0154 2.23864,1.2385 6.69049,1.46489 24.94911,1.26877 21.57231,-0.23172 22.29033,-0.30487 24.47727,-2.49377 z m -364.746317,1.13387 c 1.82295,-0.69953 4.5448,-5.43443 4.5448,-7.90608 0,-0.89462 -1.31539,-2.94197 -2.92308,-4.54966 l -2.92307,-2.92308 h -22.02987 c -14.33586,0 -22.90206,0.39739 -24.527153,1.13784 -3.21389,1.46434 -4.865712,6.00183 -3.512824,9.64958 1.878961,5.06618 2.638,5.21258 27.025337,5.21258 12.4999,0 23.45553,-0.27953 24.34586,-0.62118 z m -23.09006,-33.4514 c 3.46983,-2.72937 3.69987,-8.8573 0.4463,-11.88846 -1.92438,-1.79284 -3.50154,-2.03896 -13.06574,-2.03896 -5.98245,0 -11.70027,0.4405 -12.706259,0.97889 -2.51832,1.34777 -4.187638,6.50113 -3.063584,9.45761 1.719769,4.52334 4.638583,5.5635 15.611793,5.5635 8.74683,0 10.50523,-0.28522 12.77749,-2.07258 z m 387.612127,0.12461 c 3.34348,-2.56907 3.47957,-9.03963 0.25789,-12.26132 -1.92965,-1.92964 -3.49329,-2.26416 -11.97728,-2.56232 -7.94091,-0.27907 -10.39851,-0.006 -13.19833,1.46434 -4.17939,2.19544 -5.76998,6.17792 -4.08864,10.23703 1.70587,4.11834 4.31699,4.92963 16.02909,4.98032 8.83329,0.0382 10.89323,-0.2567 12.97727,-1.85805 z M 181.76209,19.839109 c 30.07026,-0.14697 79.57026,-0.147004 110,-7.5e-5 30.42974,0.146929 5.8268,0.267178 -54.6732,0.267219 -60.5,4.2e-5 -85.39706,-0.120173 -55.3268,-0.267144 z"
         id="path3670" /></g></g><g
     id="layer3"><path
       style="fill:#f8f9f9;stroke-width:0.728298"
       d="m 193.48295,284.63083 c -23.53163,-6.26184 -42.84169,-11.44866 -42.91123,-11.52626 -0.0695,-0.0776 -1.34091,-13.44625 -2.82526,-29.70812 -1.48435,-16.26187 -2.87698,-30.60901 -3.09473,-31.88253 l -0.3959,-2.31549 h 20.86525 20.86526 l 0.35454,1.60303 c 0.195,0.88167 0.91077,8.17546 1.59059,16.20844 0.67983,8.03297 1.47551,14.85618 1.76818,15.16268 0.29268,0.3065 10.95573,3.24766 23.69568,6.5359 l 23.16354,5.97862 23.26318,-5.99634 c 12.79475,-3.298 23.48123,-6.23915 23.74773,-6.5359 0.26652,-0.29676 1.73662,-11.60048 3.26691,-25.11939 1.53029,-13.5189 2.96833,-25.9424 3.19563,-27.60777 l 0.41329,-3.02795 H 216.41065 142.3757 l -2.01696,-18.63042 c -1.10933,-10.24673 -1.92744,-18.70413 -1.81803,-18.79422 0.10941,-0.0901 35.04102,-0.5566 77.62582,-1.03669 42.58479,-0.48008 77.48173,-0.91951 77.54875,-0.97651 0.13778,-0.11716 3.22834,-38.44936 3.22834,-40.04113 0,-0.89058 -10.95669,-1.02886 -81.52158,-1.02886 h -81.52159 l -0.006,-1.60304 c -0.003,-0.88166 -0.50104,-8.015157 -1.1062,-15.852204 -0.60516,-7.837046 -1.10503,-15.451449 -1.11083,-16.920895 l -0.0105,-2.67172 h 104.973 104.97299 l -0.002,1.603032 c -10e-4,0.881668 -2.50862,28.37367 -5.57156,61.093337 -3.06294,32.71967 -7.28864,77.92517 -9.39046,100.45668 -2.10181,22.5315 -3.87457,41.02789 -3.93946,41.10309 -0.0916,0.1061 -80.49593,21.43911 -85.32445,22.63841 -0.61421,0.15256 -20.36989,-4.84595 -43.90152,-11.10778 z"
       id="path3871" /><path
       style="fill:#cde5f8;stroke-width:0.728298"
       d="m 178.40337,148.11685 c 1.75107,-0.1505 4.43123,-0.14838 5.95591,0.005 1.52469,0.15308 0.092,0.27622 -3.18375,0.27364 -3.27576,-0.003 -4.52323,-0.12785 -2.77216,-0.27835 z m 62.88967,-0.70888 c 1.53551,-0.1537 4.04816,-0.1537 5.58367,0 1.53551,0.15372 0.27918,0.27947 -2.79183,0.27947 -3.07102,0 -4.32735,-0.12575 -2.79184,-0.27947 z m 53.47589,-16.9956 c 0.0357,-0.82998 0.21213,-0.99879 0.44979,-0.43044 0.21506,0.5143 0.18862,1.12879 -0.0587,1.36554 -0.24739,0.23675 -0.42335,-0.18405 -0.39102,-0.9351 z m 1.48898,-19.23638 c 0.0357,-0.82998 0.21213,-0.9988 0.44979,-0.43045 0.21506,0.5143 0.18862,1.1288 -0.0587,1.36555 -0.24739,0.23674 -0.42335,-0.18406 -0.39102,-0.9351 z M 132.47025,89.089765 c 0.0357,-0.829979 0.21214,-0.998796 0.44979,-0.430446 0.21506,0.514303 0.18862,1.128798 -0.0587,1.365548 -0.24739,0.236745 -0.42334,-0.184056 -0.39102,-0.935102 z m -0.9124,-20.426294 c 0.30855,-0.29525 47.78094,-0.455537 105.49419,-0.356193 l 104.93319,0.180626 -105.4942,0.356193 c -58.0218,0.195907 -105.24173,0.114625 -104.93318,-0.180626 z"
       id="path3869" /><path
       style="fill:#add6f7;stroke-width:0.728298"
       d="m 154.56003,208.66571 c 5.83494,-0.12038 15.38301,-0.12038 21.21795,0 5.83493,0.12038 1.0609,0.21887 -10.60897,0.21887 -11.66988,0 -16.44391,-0.0985 -10.60898,-0.21887 z m 14.1453,-60.54166 c 1.33077,-0.15804 3.50841,-0.15804 4.83918,0 1.33077,0.15804 0.24196,0.28735 -2.41959,0.28735 -2.66155,0 -3.75037,-0.12931 -2.41959,-0.28735 z m 63.28159,-0.71246 c 1.33078,-0.15804 3.50841,-0.15804 4.83918,0 1.33078,0.15804 0.24196,0.28735 -2.41959,0.28735 -2.66154,0 -3.75036,-0.12931 -2.41959,-0.28735 z M 136.69229,106.0827 c 1.74024,-0.14999 4.58791,-0.14999 6.32816,0 1.74024,0.15001 0.3164,0.27273 -3.16408,0.27273 -3.48049,0 -4.90433,-0.12272 -3.16408,-0.27273 z M 341.67176,69.140919 c 0.0357,-0.829974 0.21213,-0.998796 0.44979,-0.430444 0.21506,0.514306 0.18862,1.128802 -0.0587,1.365546 -0.24739,0.236744 -0.42335,-0.184052 -0.39102,-0.935102 z"
       id="path3867" /><path
       style="fill:#8ec8f6;stroke-width:0.728298"
       d="m 146.74289,186.58388 c 2.76392,-0.13708 7.28669,-0.13708 10.05061,0 2.76392,0.13709 0.50253,0.24924 -5.0253,0.24924 -5.52784,0 -7.78922,-0.11215 -5.02531,-0.24924 z m 12.26748,-38.45864 c 1.32164,-0.15739 3.66678,-0.15998 5.21142,-0.006 1.54464,0.15423 0.4633,0.283 -2.40299,0.28616 -2.86628,0.003 -4.13008,-0.12303 -2.80843,-0.28041 z m 63.28159,-0.71246 c 1.32164,-0.15739 3.66678,-0.15998 5.21143,-0.006 1.54463,0.15423 0.46329,0.283 -2.40299,0.28616 -2.86629,0.003 -4.13009,-0.12302 -2.80844,-0.28041 z m 63.2982,-0.71365 c 1.33077,-0.15804 3.5084,-0.15804 4.83918,0 1.33077,0.15804 0.24196,0.28735 -2.41959,0.28735 -2.66155,0 -3.75037,-0.12931 -2.41959,-0.28735 z M 155.30452,106.07188 c 5.42547,-0.12173 14.3035,-0.12173 19.72897,0 5.42547,0.12173 0.98645,0.22133 -9.86448,0.22133 -10.85094,0 -15.28996,-0.0996 -9.86449,-0.22133 z m -22.08978,-3.4454 c 0.0357,-0.82998 0.21214,-0.99879 0.44979,-0.43044 0.21506,0.5143 0.18862,1.12879 -0.0587,1.36554 -0.24739,0.23675 -0.42335,-0.18405 -0.39102,-0.9351 z"
       id="path3865" /><path
       style="fill:#6db9f5;stroke-width:0.728298"
       d="m 171.35556,186.57932 c 5.65467,-0.12118 14.70022,-0.12087 20.10121,7e-4 5.40098,0.12156 0.77442,0.22072 -10.28124,0.22033 -11.05567,-3.8e-4 -15.47466,-0.0998 -9.81997,-0.22103 z M 150.0931,148.12405 c 1.33077,-0.15804 3.5084,-0.15804 4.83918,0 1.33077,0.15804 0.24196,0.28735 -2.41959,0.28735 -2.66155,0 -3.75037,-0.12931 -2.41959,-0.28735 z m 63.28159,-0.71246 c 1.33078,-0.15804 3.50841,-0.15804 4.83918,0 1.33078,0.15804 0.24196,0.28735 -2.41959,0.28735 -2.66155,0 -3.75036,-0.12931 -2.41959,-0.28735 z m 63.2816,-0.71246 c 1.33077,-0.15804 3.5084,-0.15804 4.83918,0 1.33077,0.15804 0.24195,0.28735 -2.41959,0.28735 -2.66155,0 -3.75037,-0.12931 -2.41959,-0.28735 z m -82.96722,-40.62742 c 5.24456,-0.12264 13.62006,-0.12228 18.61223,7.1e-4 4.99216,0.12308 0.70115,0.22342 -9.53558,0.22299 -10.23673,-4.4e-4 -14.32122,-0.10113 -9.07665,-0.22378 z"
       id="path3863" /><path
       style="fill:#4fabf3;stroke-width:0.728298"
       d="m 322.67637,273.11087 c 0.27957,-0.70264 0.69586,-1.09806 0.92508,-0.8787 0.22922,0.21936 4.8e-4,0.79424 -0.50832,1.27753 -0.73527,0.6984 -0.82078,0.61657 -0.41676,-0.39883 z M 212.95478,186.57928 c 6.8324,-0.11746 18.22309,-0.11767 25.31264,-4.7e-4 7.08956,0.11721 1.49942,0.21332 -12.42253,0.21358 -13.92195,2.5e-4 -19.7225,-0.0956 -12.89011,-0.21311 z m -72.55665,-38.45404 c 1.32164,-0.15739 3.66678,-0.15998 5.21143,-0.006 1.54463,0.15423 0.46329,0.283 -2.40299,0.28616 -2.86628,0.003 -4.13009,-0.12303 -2.80844,-0.28041 z m 62.57339,-0.72085 c 1.75107,-0.1505 4.43123,-0.14838 5.95591,0.005 1.52469,0.15308 0.092,0.27623 -3.18376,0.27364 -3.27575,-0.003 -4.52322,-0.12784 -2.77215,-0.27835 z m 62.51742,-0.71154 c 1.74025,-0.14999 4.58792,-0.14999 6.32816,0 1.74025,0.15 0.31641,0.27273 -3.16408,0.27273 -3.48048,0 -4.90432,-0.12273 -3.16408,-0.27273 z m 27.79101,-2.74376 c 0.0357,-0.82998 0.21214,-0.9988 0.44979,-0.43045 0.21506,0.5143 0.18862,1.1288 -0.0587,1.36555 -0.24739,0.23674 -0.42335,-0.18406 -0.39102,-0.9351 z m 1.48898,-19.23639 c 0.0357,-0.82998 0.21213,-0.99879 0.44979,-0.43044 0.21506,0.5143 0.18862,1.12879 -0.0587,1.36554 -0.24739,0.23675 -0.42335,-0.18405 -0.39102,-0.9351 z m -61.99064,-18.64161 c 6.67967,-0.1182 17.40031,-0.11796 23.82366,5.2e-4 6.42336,0.11848 0.95818,0.21519 -12.14483,0.21491 -13.10301,-2.9e-4 -18.35848,-0.0972 -11.67883,-0.21543 z M 132.47025,95.501895 c 0.0357,-0.829979 0.21214,-0.998796 0.44979,-0.430446 0.21506,0.514302 0.18862,1.128798 -0.0587,1.365548 -0.24739,0.236743 -0.42334,-0.184057 -0.39102,-0.935102 z m -0.74449,-10.686882 c 0.0357,-0.829979 0.21214,-0.998796 0.44979,-0.430446 0.21506,0.514302 0.18862,1.128798 -0.0587,1.365548 -0.24739,0.236743 -0.42334,-0.184057 -0.39102,-0.935102 z"
       id="path3861" /><path
       style="fill:#ead41c;fill-opacity:1;stroke-width:0.728298"
       d="M 167.21826,347.17324 C 107.3511,331.11197 100.39853,329.09953 100.36648,327.8228 100.34682,327.0391 93.553008,253.29962 85.269157,163.9573 L 70.207602,1.516713 153.42379,1.3355284 c 45.76891,-0.099652 120.66345,-0.099652 166.43232,0 L 403.07224,1.516713 388.01597,163.60107 c -8.28096,89.1464 -15.07468,162.88587 -15.09716,163.8655 -0.0401,1.75031 -1.21069,2.09319 -67.60149,19.80205 -37.15833,9.91149 -68.39815,17.97797 -69.42183,17.92551 -1.02367,-0.0524 -31.92843,-8.16186 -68.67723,-18.02089 z"
       id="path3859" /><g
       id="g3188"
       transform="matrix(0.9125,0,0,0.8091236,183.26001,-260.88487)"
       clip-path="url(#clipPath3258)"><path
         style="fill:#d0d0d0"
         d="m 248.96431,407.81 -2.42431,-2.75 2.75,2.42431 c 2.57029,2.26589 3.20859,3.07569 2.42431,3.07569 -0.17912,0 -1.41662,-1.2375 -2.75,-2.75 z M 350.79,382.89772 c 0.6875,-0.27741 1.8125,-0.27741 2.5,0 0.6875,0.27741 0.125,0.50439 -1.25,0.50439 -1.375,0 -1.9375,-0.22698 -1.25,-0.50439 z m 8,0 c 0.6875,-0.27741 1.8125,-0.27741 2.5,0 0.6875,0.27741 0.125,0.50439 -1.25,0.50439 -1.375,0 -1.9375,-0.22698 -1.25,-0.50439 z M 43.477092,370.31 l -2.937091,-3.25 3.25,2.93709 c 3.029455,2.73778 3.709652,3.56291 2.937091,3.56291 -0.1721,0 -1.6346,-1.4625 -3.25,-3.25 z m 257.509078,-9.5 -3.44617,-3.75 3.75,3.44617 c 3.49042,3.20761 4.20979,4.05383 3.44617,4.05383 -0.16711,0 -1.85461,-1.6875 -3.75,-3.75 z M 185.11895,348.97667 c 0.048,-1.16495 0.28494,-1.4019 0.60416,-0.60417 0.28887,0.72187 0.25335,1.58438 -0.0789,1.91667 -0.3323,0.33229 -0.56864,-0.25834 -0.52522,-1.3125 z M 405.272,347.56 c 0,-1.925 0.2058,-2.7125 0.45733,-1.75 0.25152,0.9625 0.25152,2.5375 0,3.5 -0.25153,0.9625 -0.45733,0.175 -0.45733,-1.75 z m -10.30769,-24.75 -2.42431,-2.75 2.75,2.42431 c 2.57029,2.26589 3.20859,3.07569 2.42431,3.07569 -0.17912,0 -1.41662,-1.2375 -2.75,-2.75 z m -116.05187,-64 c -1.24387,-1.58606 -1.2085,-1.62143 0.37756,-0.37756 0.9625,0.75485 1.75,1.54235 1.75,1.75 0,0.82304 -0.82119,0.29331 -2.12756,-1.37244 z m -9,-9 c -1.24387,-1.58606 -1.2085,-1.62143 0.37756,-0.37756 1.66575,1.30637 2.19548,2.12756 1.37244,2.12756 -0.20765,0 -0.99515,-0.7875 -1.75,-1.75 z m -23.60008,-68.25 c 0,-2.475 0.19502,-3.4875 0.43337,-2.25 0.23836,1.2375 0.23836,3.2625 0,4.5 -0.23835,1.2375 -0.43337,0.225 -0.43337,-2.25 z m 140.65195,-19.75 -2.42431,-2.75 2.75,2.42431 c 2.57029,2.26589 3.20859,3.07569 2.42431,3.07569 -0.17912,0 -1.41662,-1.2375 -2.75,-2.75 z"
         id="path3202" /><path
         style="fill:#afafaf"
         d="m 85.852501,447.87689 c 0.72187,-0.28887 1.58437,-0.25335 1.91667,0.0789 0.33229,0.33229 -0.25834,0.56864 -1.3125,0.52522 -1.16495,-0.048 -1.4019,-0.28494 -0.60417,-0.60416 z M 452.04,415.06 c 1.86578,-1.925 3.61733,-3.5 3.89233,-3.5 0.275,0 -1.02655,1.575 -2.89233,3.5 -1.86578,1.925 -3.61733,3.5 -3.89233,3.5 -0.275,0 1.02655,-1.575 2.89233,-3.5 z M 274.47709,254.31 271.54,251.06 l 3.25,2.93709 c 3.02946,2.73778 3.70965,3.56291 2.93709,3.56291 -0.1721,0 -1.6346,-1.4625 -3.25,-3.25 z"
         id="path3200" /><path
         style="fill:#8a8a8a"
         d="m 185.272,342.56 c 0,-1.925 0.2058,-2.7125 0.45733,-1.75 0.25152,0.9625 0.25152,2.5375 0,3.5 -0.25153,0.9625 -0.45733,0.175 -0.45733,-1.75 z m -72.74736,-128.5 c 3e-5,-68.75 0.1194,-96.7276 0.26525,-62.17245 0.14586,34.55516 0.14583,90.80516 -6e-5,125 -0.14588,34.19485 -0.26522,5.92245 -0.26519,-62.82755 z m 339.3878,60.75 c -1.24387,-1.58606 -1.2085,-1.62143 0.37756,-0.37756 0.9625,0.75485 1.75,1.54235 1.75,1.75 0,0.82304 -0.82119,0.29331 -2.12756,-1.37244 z m -17,-161 c -1.24387,-1.58606 -1.2085,-1.62143 0.37756,-0.37756 1.66575,1.30637 2.19548,2.12756 1.37244,2.12756 -0.20765,0 -0.99515,-0.7875 -1.75,-1.75 z"
         id="path3198" /><path
         style="fill:#727272"
         d="m 72.767701,447.83827 c 1.77523,-0.22091 4.92523,-0.22454 7,-0.008 2.07476,0.21648 0.6223,0.39722 -3.2277,0.40166 -3.85,0.004 -5.54754,-0.17268 -3.7723,-0.39359 z m 276.084799,0.0386 c 0.72187,-0.28887 1.58438,-0.25335 1.91667,0.0789 0.33229,0.33229 -0.25834,0.56864 -1.3125,0.52522 -1.16495,-0.048 -1.4019,-0.28494 -0.60417,-0.60416 z m 17,0 c 0.72187,-0.28887 1.58438,-0.25335 1.91667,0.0789 0.33229,0.33229 -0.25834,0.56864 -1.3125,0.52522 -1.16495,-0.048 -1.4019,-0.28494 -0.60417,-0.60416 z m -294.999999,-65 c 0.72187,-0.28887 1.58437,-0.25335 1.91667,0.0789 0.33229,0.33229 -0.25834,0.56864 -1.3125,0.52522 -1.16495,-0.048 -1.4019,-0.28494 -0.60417,-0.60416 z m 3.9375,0.0208 c 0.6875,-0.27741 1.8125,-0.27741 2.5,0 0.6875,0.27741 0.125,0.50439 -1.25,0.50439 -1.375,0 -1.9375,-0.22698 -1.25,-0.50439 z M 112.19789,340.56 c 0,-1.375 0.22698,-1.9375 0.50439,-1.25 0.27741,0.6875 0.27741,1.8125 0,2.5 -0.27741,0.6875 -0.50439,0.125 -0.50439,-1.25 z M 185.28606,214.82247 185.04,89.584947 148.79,89.309604 112.54,89.03426 148.82138,88.79713 c 28.28112,-0.184842 36.38632,0.0385 36.75725,1.012869 0.26173,0.6875 0.35833,57.275001 0.21468,125.750001 l -0.26119,124.5 z M 327.44499,203.31 325.54,201.06 l 2.25,1.90499 c 1.2375,1.04774 2.25,2.06024 2.25,2.25 0,0.80025 -0.80479,0.20945 -2.59501,-1.90499 z M 360.8525,84.876885 c 0.72187,-0.288871 1.58438,-0.253344 1.91667,0.07895 0.33229,0.332292 -0.25834,0.568641 -1.3125,0.52522 -1.16495,-0.04798 -1.4019,-0.284941 -0.60417,-0.604167 z"
         id="path3196" /><path
         style="fill:#4e4e4e"
         d="m 354.29,447.83153 c 2.0625,-0.21574 5.4375,-0.21574 7.5,0 2.0625,0.21575 0.375,0.39226 -3.75,0.39226 -4.125,0 -5.8125,-0.17651 -3.75,-0.39226 z M 154.04,422.24709 c 0,-0.1721 1.4625,-1.6346 3.25,-3.25 l 3.25,-2.93709 -2.93709,3.25 c -2.73778,3.02946 -3.56291,3.70965 -3.56291,2.93709 z M -9.507051,415.31 l -3.952948,-4.25 4.25,3.95295 c 2.3375,2.17412 4.25,4.08662 4.25,4.25 0,0.75658 -0.87085,-4.9e-4 -4.547052,-3.95295 z M 395.04,371.18244 c 0,-0.20765 0.7875,-0.99515 1.75,-1.75 1.58606,-1.24387 1.62143,-1.2085 0.37756,0.37756 -1.30637,1.66575 -2.12756,2.19548 -2.12756,1.37244 z m -69,-212 c 0,-0.20765 0.7875,-0.99515 1.75,-1.75 1.58606,-1.24387 1.62143,-1.2085 0.37756,0.37756 -1.30637,1.66575 -2.12756,2.19548 -2.12756,1.37244 z M 274.54,113.56 c 0.99549,-1.1 2.03498,-2 2.30998,-2 0.275,0 -0.31449,0.9 -1.30998,2 -0.99549,1.1 -2.03498,2 -2.30998,2 -0.275,0 0.31449,-0.9 1.30998,-2 z m 75.2277,-28.721733 c 1.77523,-0.220912 4.92523,-0.224542 7,-0.0081 2.07476,0.216475 0.6223,0.397221 -3.2277,0.401658 -3.85,0.0044 -5.54754,-0.17268 -3.7723,-0.393592 z"
         id="path3194" /><path
         style="fill:#2e2e2e"
         d="m 249.04,407.06 c -2.42903,-2.475 -4.19142,-4.5 -3.91642,-4.5 0.275,0 2.48739,2.025 4.91642,4.5 2.42903,2.475 4.19142,4.5 3.91642,4.5 -0.275,0 -2.48739,-2.025 -4.91642,-4.5 z m -205.595011,-35.75 -1.904988,-2.25 2.25,1.90499 c 2.114445,1.79022 2.705241,2.59501 1.904988,2.59501 -0.189757,0 -1.202257,-1.0125 -2.25,-2.25 z m 257.000001,-10 -1.90499,-2.25 2.25,1.90499 c 1.2375,1.04774 2.25,2.06024 2.25,2.25 0,0.80025 -0.80479,0.20945 -2.59501,-1.90499 z m 177.67396,-9.33333 c 0.048,-1.16495 0.28494,-1.4019 0.60416,-0.60417 0.28887,0.72187 0.25335,1.58438 -0.0789,1.91667 -0.33229,0.33229 -0.56864,-0.25834 -0.52522,-1.3125 z m 0,-12 c 0.048,-1.16495 0.28494,-1.4019 0.60416,-0.60417 0.28887,0.72187 0.25335,1.58438 -0.0789,1.91667 -0.33229,0.33229 -0.56864,-0.25834 -0.52522,-1.3125 z M 395.91244,322.81 c -1.24387,-1.58606 -1.2085,-1.62143 0.37756,-0.37756 1.66575,1.30637 2.19548,2.12756 1.37244,2.12756 -0.20765,0 -0.99515,-0.7875 -1.75,-1.75 z M 247.11895,190.97667 c 0.048,-1.16495 0.28494,-1.4019 0.60416,-0.60417 0.28887,0.72187 0.25335,1.58437 -0.0789,1.91667 -0.33229,0.33229 -0.56864,-0.25834 -0.52522,-1.3125 z m 71.116,-10.91667 c 0.0204,-1.65 0.2445,-2.20394 0.49804,-1.23097 0.25354,0.97297 0.23687,2.32297 -0.0371,3 -0.27393,0.67703 -0.48137,-0.11903 -0.46099,-1.76903 z m -71.116,-7.08333 c 0.048,-1.16495 0.28494,-1.4019 0.60416,-0.60417 0.28887,0.72187 0.25335,1.58437 -0.0789,1.91667 -0.33229,0.33229 -0.56864,-0.25834 -0.52522,-1.3125 z M 387.44499,161.31 385.54,159.06 l 2.25,1.90499 c 1.2375,1.04774 2.25,2.06024 2.25,2.25 0,0.80025 -0.80479,0.20945 -2.59501,-1.90499 z"
         id="path3192" /><path
         style="fill:#000000;stroke-width:0.601792"
         d="m -38.85372,655.34521 c -18.812281,-4.34509 -32.75377,-17.37387 -42.242323,-39.47685 -0.930569,-2.16772 -1.553674,-4.23468 -1.384679,-4.59325 0.310221,-0.65824 28.437235,-23.17155 29.788815,-23.84345 0.487068,-0.24213 1.68318,1.70385 3.606312,5.86714 7.340439,15.89101 15.606353,21.43552 27.616259,18.52415 8.415634,-2.04009 13.017015,-9.01188 14.435541,-21.87204 0.304406,-2.75974 0.511333,-39.65723 0.517584,-92.29044 l 0.01039,-87.69242 h 18.918653 18.91866 l -0.0017,89.41526 c -9.74e-4,60.72337 -0.186728,91.40544 -0.57879,95.61748 -2.390719,25.68408 -11.246577,43.60403 -26.4839182,53.5906 -11.1521218,7.30911 -28.7699418,10.06849 -43.1210438,6.75382 z m 149.80124,0.86272 c -13.497611,-2.25956 -25.567713,-7.85181 -35.633195,-16.50942 -7.191791,-6.18588 -17.838789,-21.54639 -21.632688,-31.20963 -0.891479,-2.27067 -0.889855,-2.398 0.04204,-3.29155 1.873404,-1.79637 28.990065,-22.25641 29.497474,-22.25641 0.28236,0 1.33901,1.62809 2.348117,3.61796 6.72552,13.26219 16.014202,22.07709 26.359542,25.01504 5.56842,1.58137 16.57558,1.10298 20.85299,-0.90631 9.70014,-4.55655 14.12152,-11.11799 14.58629,-21.6464 0.40951,-9.27665 -1.83886,-15.35541 -7.91651,-21.40323 -3.86978,-3.85077 -10.13489,-7.99093 -23.75642,-15.69893 -23.172575,-13.11261 -33.708552,-22.11137 -41.298878,-35.27333 -5.935371,-10.2922 -8.895122,-20.75169 -10.031507,-35.45046 -2.941519,-38.04765 15.696997,-67.97952 45.651245,-73.31198 6.7113,-1.19475 21.00422,-0.50708 26.97817,1.29797 10.56065,3.19094 18.95827,9.1587 26.22036,18.63345 3.91442,5.10712 11.47818,18.3561 10.90699,19.10514 -0.56179,0.73671 -28.86184,24.37987 -29.17298,24.37246 -0.20233,-0.005 -1.19557,-1.74073 -2.20718,-3.85759 -5.54145,-11.59568 -12.45282,-16.80769 -22.28773,-16.80769 -11.82525,0 -18.76259,7.99048 -18.84668,21.70775 -0.0456,7.431 1.23379,11.56908 5.13037,16.59454 3.80402,4.90607 9.39944,8.87599 24.7054,17.52837 29.3397,16.58562 41.87935,28.84755 48.86049,47.77841 7.03945,19.08904 7.02145,45.45836 -0.0437,64.04941 -7.68912,20.23278 -23.07644,33.11556 -44.61261,37.35118 -4.81275,0.94654 -20.31567,1.3051 -24.69935,0.57125 z"
         id="path3190" /></g></g></svg>
