<?xml version="1.0" encoding="UTF-8" standalone="no"?>
<!-- Created with Inkscape (http://www.inkscape.org/) -->

<svg
   version="1.1"
   id="svg2"
   width="700"
   height="700"
   viewBox="0 0 700 700"
   sodipodi:docname="like-ig.svg"
   xml:space="preserve"
   inkscape:version="1.2.2 (732a01da63, 2022-12-09)"
   xmlns:inkscape="http://www.inkscape.org/namespaces/inkscape"
   xmlns:sodipodi="http://sodipodi.sourceforge.net/DTD/sodipodi-0.dtd"
   xmlns="http://www.w3.org/2000/svg"
   xmlns:svg="http://www.w3.org/2000/svg"><defs
     id="defs6" /><sodipodi:namedview
     id="namedview4"
     pagecolor="#ffffff"
     bordercolor="#666666"
     borderopacity="1.0"
     inkscape:showpageshadow="2"
     inkscape:pageopacity="0.0"
     inkscape:pagecheckerboard="0"
     inkscape:deskcolor="#d1d1d1"
     showgrid="false"
     inkscape:zoom="0.51269531"
     inkscape:cx="37.059048"
     inkscape:cy="407.64953"
     inkscape:window-width="1366"
     inkscape:window-height="705"
     inkscape:window-x="-8"
     inkscape:window-y="-8"
     inkscape:window-maximized="1"
     inkscape:current-layer="layer1" /><g
     inkscape:groupmode="layer"
     id="layer1"
     inkscape:label="like"
     style="display:inline"><path
       style="display:inline;fill:#000000;stroke-width:1.14525"
       d="m 345.81102,607.60792 c -4.5027,-1.01652 1.26038,3.70846 -66.2804,-54.34146 C 185.73531,472.65132 161.53578,450.70945 135.47145,422.64706 88.517205,372.09336 66.073266,331.42455 59.103147,284.26642 c -1.436293,-9.71761 -1.781793,-37.12649 -0.581641,-46.14226 5.357,-40.24279 20.024011,-72.74508 44.632774,-98.90682 29.71833,-31.59373 65.44259,-47.113656 108.84363,-47.285649 18.32262,-0.07261 26.30546,1.003407 41.80146,5.63446 34.82016,10.406149 68.77598,38.865079 90.06602,75.485809 3.05909,5.26191 5.81967,9.5671 6.13461,9.5671 0.31494,0 3.07552,-4.30519 6.13461,-9.5671 21.29004,-36.62073 55.24586,-65.07966 90.06602,-75.485809 15.496,-4.631053 23.47884,-5.707068 41.80146,-5.63446 43.40104,0.171993 79.12529,15.691919 108.84362,47.285649 24.60876,26.16174 39.27579,58.66403 44.63279,98.90682 1.20014,9.01577 0.85465,36.42465 -0.58165,46.14226 -9.35121,63.26804 -46.48622,116.27118 -139.15181,198.61268 -21.01005,18.66926 -138.35135,119.51235 -142.23173,122.23391 -3.85756,2.70555 -8.79061,3.60377 -13.70229,2.49491 z m 58.83981,-84.91357 c 82.55686,-70.73952 109.22848,-94.93372 134.70125,-122.18938 24.95842,-26.70531 40.82827,-48.2667 51.98057,-70.6228 13.92771,-27.91976 18.21315,-46.96303 17.19852,-76.42523 -0.80029,-23.238 -4.52228,-38.96837 -13.90894,-58.78381 -18.95048,-40.00488 -54.98701,-65.63037 -97.14945,-69.08277 -56.09246,-4.59303 -102.13463,30.22372 -128.55369,97.21135 -2.35997,5.98391 -5.62822,12.30857 -7.26275,14.05482 -6.29525,6.72548 -17.01743,6.72548 -23.31268,0 -1.63453,-1.74625 -4.90278,-8.07091 -7.26275,-14.05482 -26.41906,-66.98763 -72.46123,-101.80438 -128.55369,-97.21135 -34.82556,2.85163 -67.3155,21.96927 -87.26728,51.34958 -14.78306,21.76901 -22.792841,47.5301 -23.791106,76.517 -1.014641,29.4622 3.27081,48.50547 17.198516,76.42523 17.8688,35.82013 49.54876,72.25275 109.63372,126.08109 36.50685,32.7054 130.96494,112.78985 132.38897,112.2434 0.84214,-0.32316 25.12449,-20.8037 53.96079,-45.51231 z"
       id="path901" /></g></svg>
