<?xml version="1.0" encoding="UTF-8" standalone="no"?>
<!-- Created with Inkscape (http://www.inkscape.org/) -->

<svg
   version="1.1"
   id="svg2"
   width="700"
   height="700"
   viewBox="0 0 700 700"
   xml:space="preserve"
   xmlns="http://www.w3.org/2000/svg"
   xmlns:svg="http://www.w3.org/2000/svg"><defs
     id="defs6" /><g
     id="layer2"
     style="display:inline"><path
       style="display:inline;fill:#000000"
       d="m 415.91739,604.89182 c -6.56868,-1.11044 -15.06591,-5.55505 -20.8169,-10.88861 -4.54724,-4.21718 -8.74037,-11.96484 -50.65628,-93.59776 -25.13427,-48.95 -46.71844,-90.61119 -47.96483,-92.58042 -2.03453,-3.21446 -11.65383,-8.40755 -94.11419,-50.80861 -84.31847,-43.3565 -92.22496,-47.63496 -96.4458,-52.19006 -18.147965,-19.5851 -13.559995,-47.54179 9.71497,-59.19796 2.68553,-1.34492 105.15652,-35.85535 227.71331,-76.68984 222.14966,-74.017679 222.85577,-74.244648 231.09618,-74.282548 6.72653,-0.03094 9.27305,0.423175 13.67557,2.438717 11.48515,5.258081 17.09773,14.549811 17.09773,28.305631 v 8.37831 l -74.23882,222.81339 c -40.83135,122.54736 -75.26221,224.85868 -76.51301,227.35849 -7.46418,14.91756 -23.29796,23.5193 -38.54793,20.94127 z m 11.25117,-31.98637 c 2.00971,-2.71709 141.11872,-419 140.01697,-419 -0.36931,0 -55.28377,54.61369 -122.03215,121.36376 l -121.36068,121.36377 45.36222,88.04133 c 32.3489,62.7844 46.07942,88.49861 47.86223,89.63532 3.49374,2.22757 7.91778,1.61563 10.15141,-1.40418 z m -2.40295,-318.24846 c 66.68835,-66.68665 121.25154,-121.55061 121.25154,-121.91992 0,-1.18581 -415.83392,137.91393 -418.97468,140.15035 -3.44943,2.45621 -3.92342,5.70777 -1.43789,9.86374 1.21488,2.03134 22.16144,13.26401 89.25001,47.86065 48.21441,24.86349 87.88687,45.22599 88.16102,45.25 0.27416,0.024 55.06166,-54.51817 121.75,-121.20482 z"
       id="path917" /></g></svg>
